<svg xmlns="http://www.w3.org/2000/svg" xmlns:xlink="http://www.w3.org/1999/xlink" width="900" zoomAndPan="magnify" viewBox="0 0 675 599.999999" height="800" preserveAspectRatio="xMidYMid meet" version="1.0"><defs><clipPath id="f2b2f40c85"><path d="M 0 68.320312 L 563 68.320312 L 563 531.679688 L 0 531.679688 Z M 0 68.320312 " clip-rule="nonzero"/></clipPath><clipPath id="1b23115547"><path d="M 281.765625 68.320312 C 126.152344 68.320312 0 172.046875 0 300 C 0 427.953125 126.152344 531.679688 281.765625 531.679688 C 437.382812 531.679688 563.535156 427.953125 563.535156 300 C 563.535156 172.046875 437.382812 68.320312 281.765625 68.320312 Z M 281.765625 68.320312 " clip-rule="nonzero"/></clipPath><clipPath id="c40b2e65ae"><path d="M 67 146.203125 L 675 146.203125 L 675 531.703125 L 67 531.703125 Z M 67 146.203125 " clip-rule="nonzero"/></clipPath><clipPath id="a47d34dc30"><path d="M 67 146.203125 L 675 146.203125 L 675 531.703125 L 67 531.703125 Z M 67 146.203125 " clip-rule="nonzero"/></clipPath></defs><g clip-path="url(#f2b2f40c85)"><g clip-path="url(#1b23115547)"><path fill="#b9c1ff" d="M 0 68.320312 L 562.910156 68.320312 L 562.910156 531.679688 L 0 531.679688 Z M 0 68.320312 " fill-opacity="1" fill-rule="nonzero"/></g></g><g clip-path="url(#c40b2e65ae)"><path fill="#ecebeb" d="M 669.105469 520.34375 L 614.925781 520.34375 L 614.25 515.394531 C 631.476562 513.976562 641.910156 509.910156 644.386719 498.554688 C 646.761719 487.65625 644.492188 473.085938 644.394531 472.472656 C 644.394531 472.46875 644.394531 472.46875 644.394531 472.46875 C 641.605469 449.15625 634.996094 418.738281 627.082031 407 C 622.5 400.210938 615.117188 394.964844 608.445312 391.265625 C 607.765625 362.207031 603.347656 320.964844 593.988281 310.207031 C 583.773438 298.460938 566.824219 299.8125 565.683594 299.917969 C 563.78125 299.835938 561.917969 299.867188 560.167969 299.976562 C 548.265625 300.714844 543.886719 304.851562 541.046875 310.847656 C 540.523438 311.269531 540.023438 311.707031 539.570312 312.175781 C 539.5625 312.179688 539.554688 312.183594 539.550781 312.1875 C 539.542969 312.195312 539.535156 312.203125 539.53125 312.210938 C 539.515625 312.222656 539.5 312.234375 539.488281 312.25 C 539.476562 312.257812 539.472656 312.269531 539.460938 312.277344 C 534.664062 316.523438 536.027344 325.492188 536.085938 325.875 C 536.085938 325.875 536.089844 325.875 536.089844 325.875 C 536.527344 329.308594 537.210938 332.644531 537.8125 335.585938 C 537.984375 336.410156 538.144531 337.203125 538.296875 337.960938 C 533.722656 340.402344 530.597656 345.222656 530.597656 350.761719 C 530.597656 353.34375 531.285156 355.769531 532.472656 357.871094 C 531.410156 358.351562 526.828125 360.683594 525.992188 365.785156 C 525.191406 370.683594 528.078125 374.070312 528.964844 374.976562 C 529.238281 377.441406 531.785156 379.386719 534.910156 379.386719 C 538.21875 379.386719 540.910156 377.214844 540.910156 374.539062 C 540.910156 371.867188 538.21875 369.691406 534.910156 369.691406 C 532.433594 369.691406 530.304688 370.910156 529.386719 372.644531 C 528.457031 371.328125 527.300781 369.019531 527.78125 366.078125 C 528.539062 361.449219 533.320312 359.476562 533.371094 359.457031 C 533.410156 359.441406 533.433594 359.410156 533.46875 359.390625 C 534.964844 361.394531 536.953125 363.007812 539.269531 364.027344 C 539.90625 365.871094 540.867188 367.671875 542.300781 369.382812 C 544.476562 371.96875 547.210938 373.925781 550.285156 375.160156 L 550.285156 377.480469 L 542.78125 388.945312 C 540.484375 389.484375 528.167969 392.703125 510.226562 403.152344 C 493.714844 412.769531 476.214844 422.457031 476.042969 422.550781 L 476.039062 422.554688 L 463.753906 428.878906 L 452.679688 399.761719 C 452.160156 398.398438 450.941406 397.457031 449.535156 397.191406 L 447.90625 391.644531 C 448.832031 390.652344 451.0625 387.925781 451.878906 383.925781 C 452.300781 381.867188 452.4375 379.582031 452.574219 377.371094 C 452.757812 374.316406 452.929688 371.433594 453.78125 369.191406 L 454.347656 367.730469 C 455.996094 363.480469 457.703125 359.085938 456.910156 356.710938 C 456.480469 355.421875 455.5625 354.574219 454.386719 354.382812 C 452.949219 354.15625 451.414062 354.921875 450.265625 356.457031 C 449.414062 357.589844 448.226562 359.570312 447.207031 361.351562 C 447.59375 356.972656 448.183594 350.414062 448.476562 347.695312 C 448.601562 346.558594 448.832031 344.964844 449.085938 343.199219 C 450.042969 336.59375 450.660156 331.800781 449.929688 330.21875 C 449.40625 329.078125 448.082031 328.417969 446.488281 328.417969 C 444.75 328.453125 442.328125 329.429688 441.222656 332.089844 C 439.824219 335.449219 438.644531 345.742188 438.324219 350.757812 C 437.390625 350.085938 436.035156 349.449219 434.273438 349.449219 C 431.902344 349.449219 430.375 350.277344 429.570312 350.894531 C 428.824219 350.363281 427.496094 349.726562 425.453125 349.871094 C 423.613281 350 422.433594 351.023438 421.835938 351.714844 C 420.746094 351.375 418.582031 351.023438 416.316406 352.457031 C 412.410156 354.921875 411.234375 359.617188 411.800781 363.175781 C 412.238281 365.898438 413.644531 367.929688 415.628906 368.769531 C 415.292969 371.75 414.394531 382.746094 418.34375 389.90625 C 418.324219 391.277344 418.445312 393.796875 418.683594 397.070312 L 303.003906 397.070312 C 301.488281 397.070312 300.070312 397.816406 299.210938 399.0625 C 298.351562 400.308594 298.160156 401.894531 298.699219 403.308594 L 332.164062 491.308594 C 332.835938 493.082031 334.566406 494.273438 336.464844 494.273438 L 368.6875 494.273438 L 360.882812 516.847656 C 360.589844 517.6875 360.726562 518.625 361.242188 519.347656 C 361.578125 519.824219 362.058594 520.152344 362.59375 520.339844 L 242.070312 520.339844 C 238.941406 520.339844 236.40625 522.875 236.40625 526.003906 C 236.40625 529.132812 238.941406 531.667969 242.070312 531.667969 L 669.105469 531.667969 C 672.234375 531.667969 674.769531 529.132812 674.769531 526.003906 C 674.769531 522.878906 672.234375 520.34375 669.105469 520.34375 Z M 484.265625 494.277344 C 485.253906 494.277344 486.179688 493.792969 486.738281 492.980469 C 487.296875 492.167969 487.421875 491.128906 487.070312 490.207031 L 477.636719 465.402344 C 483.445312 463.679688 488.242188 461.996094 490.253906 461.265625 C 490.347656 461.476562 490.507812 461.648438 490.722656 461.738281 C 490.945312 461.835938 491.195312 461.839844 491.421875 461.746094 L 506.75 455.558594 C 506.757812 455.5625 506.761719 455.570312 506.773438 455.574219 C 506.8125 455.597656 506.859375 455.589844 506.898438 455.605469 C 506.503906 457.605469 506.261719 459.742188 506.261719 462.03125 C 506.261719 474.351562 513.105469 480.226562 517.847656 482.828125 L 517.828125 491.589844 C 513.667969 494.539062 510.273438 498.273438 508.410156 501.886719 C 506.9375 504.742188 507.539062 506.425781 508.304688 507.335938 C 509.382812 508.617188 511.242188 508.878906 512.527344 508.476562 C 513.792969 508.078125 515.339844 506.714844 517.128906 505.140625 C 517.351562 504.945312 517.578125 504.75 517.800781 504.554688 L 517.78125 513.429688 L 402.082031 513.429688 C 401.996094 513.429688 401.921875 513.453125 401.84375 513.476562 C 401.808594 513.445312 401.769531 513.425781 401.742188 513.386719 C 401.605469 513.195312 401.570312 512.960938 401.648438 512.738281 L 408.03125 494.277344 Z M 230.605469 420.09375 C 228.972656 420.167969 227.332031 420.21875 225.6875 420.21875 C 224.03125 420.21875 222.378906 420.167969 220.734375 420.089844 C 220.265625 420.070312 219.800781 420.039062 219.335938 420.011719 C 218.089844 419.9375 216.851562 419.84375 215.613281 419.726562 C 215.179688 419.6875 214.746094 419.648438 214.316406 419.601562 C 210.988281 419.25 207.695312 418.742188 204.4375 418.082031 C 204.25 418.042969 204.066406 418 203.882812 417.960938 C 202.398438 417.652344 200.925781 417.3125 199.457031 416.941406 C 199.25 416.886719 199.039062 416.832031 198.828125 416.777344 C 193.898438 415.496094 189.074219 413.859375 184.378906 411.871094 C 184.308594 411.84375 184.238281 411.8125 184.167969 411.78125 C 182.664062 411.140625 181.167969 410.464844 179.691406 409.753906 C 179.628906 409.726562 179.570312 409.699219 179.507812 409.667969 C 174.988281 407.480469 170.609375 404.964844 166.390625 402.125 C 166.253906 402.035156 166.121094 401.941406 165.984375 401.851562 C 165.394531 401.449219 164.792969 401.054688 164.207031 400.640625 C 164.15625 400.605469 164.128906 400.546875 164.089844 400.5 C 153.777344 393.15625 144.816406 384.042969 137.679688 373.574219 C 135.699219 372.855469 133.632812 371.859375 131.5 370.5 C 121.074219 363.839844 96.691406 326.511719 94.59375 323.285156 C 92.699219 322.09375 90.738281 320.921875 88.800781 319.757812 C 81.46875 315.363281 74.542969 311.210938 72.199219 307.042969 C 68.480469 300.425781 67.1875 291.863281 67.898438 288.640625 C 68.261719 286.984375 69.367188 286.003906 69.972656 285.574219 C 70.183594 284.6875 70.800781 283.488281 72.160156 283.042969 C 73.484375 282.605469 74.566406 282.816406 75.234375 283.066406 C 75.664062 282.683594 76.339844 282.246094 77.238281 282.152344 C 78.359375 282.042969 79.488281 282.492188 80.578125 283.507812 C 81.125 284.015625 82.398438 285.988281 83.832031 288.34375 C 83.5625 287.625 83.34375 287.019531 83.203125 286.605469 C 82.523438 284.628906 83.132812 283.542969 83.558594 283.070312 C 84.175781 282.386719 85.140625 282.132812 86.199219 282.378906 C 88.027344 282.800781 89.84375 284.5 91.910156 287.726562 C 93.28125 289.871094 95.328125 294.535156 95.992188 296.078125 C 97.757812 296.269531 103.308594 297.035156 107.421875 299.453125 C 112.511719 302.449219 113.792969 307.980469 114.046875 309.453125 L 119.242188 313.953125 C 119.242188 313.890625 119.238281 313.828125 119.238281 313.765625 C 119.238281 266.335938 150.421875 226.0625 193.363281 212.347656 C 190.289062 203.179688 187.789062 187.832031 201.082031 179.410156 C 219.035156 168.023438 239.011719 176.992188 242.070312 178.488281 C 244.703125 177.433594 249.773438 176.820312 252.617188 181.234375 C 255.582031 185.828125 252.390625 190.796875 251.257812 192.304688 C 253.125 196.878906 252.074219 199.964844 250.273438 201.535156 C 250.234375 204.308594 250.070312 207.003906 249.914062 209.433594 C 249.898438 209.667969 249.886719 209.886719 249.871094 210.117188 C 251.71875 210.550781 253.546875 211.027344 255.359375 211.550781 C 257.039062 210.167969 259.671875 209.410156 261.414062 209.304688 C 263.746094 209.164062 265.585938 209.945312 266.6875 211.484375 C 268.773438 211.460938 270.4375 212.199219 271.476562 213.59375 C 273.730469 213.640625 275.453125 214.605469 276.394531 216.328125 C 279.492188 216.503906 281.480469 218.082031 282.289062 221.035156 C 282.589844 222.136719 282.539062 223.070312 282.40625 223.746094 C 283.914062 224.699219 285.394531 225.691406 286.851562 226.714844 L 288.929688 227.582031 C 289.097656 227.652344 289.230469 227.777344 289.378906 227.882812 L 289.378906 152.367188 C 289.378906 148.96875 292.140625 146.203125 295.539062 146.203125 L 415.554688 146.203125 C 418.957031 146.203125 421.71875 148.964844 421.71875 152.367188 L 421.71875 258.304688 L 522.691406 258.304688 C 526.140625 258.304688 528.945312 261.113281 528.945312 264.558594 L 528.945312 313.332031 C 528.945312 316.78125 526.136719 319.585938 522.691406 319.585938 L 510.546875 319.585938 L 510.546875 345.488281 C 510.546875 345.855469 510.324219 346.1875 509.984375 346.328125 C 509.875 346.375 509.757812 346.398438 509.640625 346.398438 C 509.402344 346.398438 509.171875 346.304688 509 346.132812 L 482.457031 319.585938 L 390.742188 319.585938 C 387.292969 319.585938 384.488281 316.78125 384.488281 313.332031 L 384.488281 278.546875 L 326.125 278.546875 C 330.007812 289.578125 332.140625 301.425781 332.140625 313.765625 C 332.140625 350.160156 313.777344 382.332031 285.835938 401.535156 C 285.789062 401.582031 285.761719 401.644531 285.707031 401.679688 C 275.460938 408.691406 264.195312 413.777344 252.355469 416.832031 C 252.257812 416.859375 252.15625 416.882812 252.058594 416.90625 C 250.570312 417.285156 249.078125 417.628906 247.570312 417.945312 C 247.304688 418 247.035156 418.058594 246.765625 418.113281 C 243.53125 418.765625 240.257812 419.265625 236.957031 419.617188 C 236.5625 419.65625 236.167969 419.6875 235.773438 419.726562 C 234.515625 419.84375 233.253906 419.941406 231.984375 420.015625 C 231.523438 420.042969 231.066406 420.070312 230.605469 420.09375 Z M 243.199219 458.59375 C 231.304688 450.328125 226.476562 441.234375 226.277344 440.851562 C 226.042969 440.40625 226.214844 439.859375 226.660156 439.628906 C 227.101562 439.402344 227.652344 439.566406 227.882812 440.011719 C 228.070312 440.375 247.441406 476.085938 302.585938 468.667969 C 303.09375 468.578125 303.542969 468.949219 303.605469 469.445312 C 303.671875 469.941406 303.324219 470.398438 302.828125 470.464844 C 297.539062 471.175781 292.578125 471.496094 287.941406 471.496094 C 266.730469 471.496094 252.175781 464.835938 243.199219 458.59375 Z M 431.9375 189.8125 C 432.046875 189.324219 432.53125 189.011719 433.019531 189.125 C 433.40625 189.210938 471.808594 198.207031 485.964844 238.722656 C 486.132812 239.195312 485.882812 239.710938 485.410156 239.878906 C 485.308594 239.910156 485.210938 239.925781 485.109375 239.925781 C 484.734375 239.925781 484.382812 239.691406 484.253906 239.320312 C 470.4375 199.78125 433 190.976562 432.625 190.894531 C 432.136719 190.785156 431.828125 190.300781 431.9375 189.8125 Z M 431.9375 189.8125 " fill-opacity="1" fill-rule="nonzero"/></g><path fill="#f47521" d="M 253.933594 213.03125 L 249.796875 211.3125 C 249.820312 210.921875 249.84375 210.523438 249.871094 210.117188 C 251.71875 210.550781 253.546875 211.027344 255.355469 211.550781 C 254.878906 211.941406 254.46875 212.375 254.191406 212.863281 C 254.148438 212.933594 254.132812 213.007812 254.097656 213.078125 C 254.09375 213.085938 254.089844 213.089844 254.089844 213.097656 Z M 165.417969 363.167969 C 164.140625 366.105469 162.179688 369.304688 159.25 371.261719 C 157.414062 372.484375 152.6875 375.128906 146.226562 375.128906 C 144.445312 375.128906 142.527344 374.910156 140.507812 374.425781 C 139.582031 374.203125 138.644531 373.925781 137.679688 373.578125 C 144.8125 384.042969 153.777344 393.160156 164.089844 400.503906 C 163.925781 400.324219 163.816406 400.105469 163.824219 399.863281 L 163.898438 398.144531 Z M 197.917969 233.203125 C 195.613281 230.628906 194.246094 226.671875 194.511719 223.351562 C 194.648438 221.648438 195.238281 220.253906 196.1875 219.230469 C 195.742188 218.347656 194.871094 216.519531 193.960938 214.058594 C 193.761719 213.519531 193.558594 212.941406 193.359375 212.347656 C 150.421875 226.066406 119.234375 266.335938 119.234375 313.765625 C 119.234375 313.828125 119.238281 313.890625 119.242188 313.953125 L 121.097656 315.5625 L 137.855469 330.082031 C 143.328125 311.175781 152.820312 285.453125 166.070312 275.199219 C 177.84375 266.09375 191.640625 261.003906 200.664062 258.40625 C 200.734375 258.375 200.804688 258.359375 200.878906 258.34375 C 204.964844 257.175781 208.035156 256.527344 209.453125 256.253906 L 206.617188 236.121094 C 204.773438 236.296875 200.664062 236.265625 197.917969 233.203125 Z M 246.863281 247.488281 C 245.699219 248.589844 244.417969 249.558594 243.023438 250.359375 L 243.675781 255.039062 C 246.257812 255.851562 257.71875 259.476562 267.875 262.933594 C 266.117188 259.664062 264.890625 257.292969 264.410156 256.351562 C 257.265625 255.152344 250.476562 250.464844 246.863281 247.488281 Z M 332.136719 313.765625 C 332.136719 301.421875 330.003906 289.574219 326.125 278.542969 C 325.910156 277.9375 325.707031 277.328125 325.484375 276.730469 C 318.554688 258.125 306.558594 241.980469 291.191406 229.945312 C 290.933594 229.746094 290.683594 229.542969 290.425781 229.34375 C 290.582031 229.910156 290.589844 230.503906 290.359375 231.050781 L 290.1875 231.460938 L 285.714844 242.21875 C 295.589844 250.285156 317.476562 269.304688 326.652344 286.335938 C 328.164062 289.140625 329.347656 291.890625 330.058594 294.527344 C 331.042969 298.1875 330.945312 301.613281 329.902344 304.601562 C 328.976562 307.246094 327.316406 309.550781 324.914062 311.324219 C 323.664062 312.246094 322.28125 312.964844 320.804688 313.503906 C 320.789062 313.511719 320.777344 313.519531 320.761719 313.527344 C 320.667969 313.558594 320.566406 313.589844 320.46875 313.621094 C 319.71875 313.878906 318.949219 314.089844 318.160156 314.25 C 307.664062 316.5625 287.605469 315.144531 282.777344 314.753906 L 286.035156 399.167969 L 286.101562 400.894531 C 286.113281 401.140625 286 401.359375 285.835938 401.535156 C 313.769531 382.328125 332.136719 350.15625 332.136719 313.765625 Z M 282.402344 223.75 C 282.308594 224.226562 282.179688 224.5625 282.097656 224.746094 L 286.847656 226.71875 C 285.390625 225.691406 283.910156 224.703125 282.402344 223.75 Z M 534.90625 379.386719 C 538.21875 379.386719 540.910156 377.214844 540.910156 374.539062 C 540.910156 371.867188 538.21875 369.691406 534.90625 369.691406 C 532.433594 369.691406 530.304688 370.910156 529.386719 372.644531 C 529.078125 373.226562 528.90625 373.867188 528.90625 374.539062 C 528.90625 374.6875 528.945312 374.828125 528.960938 374.976562 C 529.238281 377.441406 531.785156 379.386719 534.90625 379.386719 Z M 543.238281 513.429688 L 402.082031 513.429688 C 401.996094 513.429688 401.921875 513.457031 401.84375 513.476562 C 401.976562 513.605469 402.136719 513.691406 402.328125 513.691406 L 439.816406 513.691406 C 441.007812 513.691406 442.058594 514.3125 442.667969 515.242188 C 443.019531 515.777344 443.226562 516.414062 443.226562 517.101562 C 443.226562 517.628906 443.09375 518.121094 442.878906 518.566406 C 442.472656 519.414062 441.726562 520.058594 440.820312 520.34375 L 543.433594 520.34375 C 543.835938 520.25 544.144531 519.90625 544.144531 519.472656 L 544.144531 514.335938 C 544.148438 513.835938 543.742188 513.429688 543.238281 513.429688 Z M 416.453125 466.230469 L 379.027344 466.230469 C 378.640625 466.230469 378.296875 466.472656 378.171875 466.839844 L 369.3125 492.464844 L 368.6875 494.277344 L 336.464844 494.277344 C 334.566406 494.277344 332.835938 493.085938 332.164062 491.308594 L 298.699219 403.3125 C 298.160156 401.898438 298.351562 400.3125 299.210938 399.0625 C 300.070312 397.820312 301.488281 397.074219 303.003906 397.074219 L 445.589844 397.074219 C 445.96875 397.074219 446.304688 397.308594 446.4375 397.660156 L 446.90625 398.886719 L 482.492188 492.464844 L 482.714844 493.046875 C 482.820312 493.324219 482.78125 493.640625 482.613281 493.886719 C 482.441406 494.128906 482.164062 494.277344 481.867188 494.277344 L 408.03125 494.277344 L 408.660156 492.464844 L 417.3125 467.433594 C 417.40625 467.15625 417.363281 466.851562 417.195312 466.613281 C 417.019531 466.371094 416.746094 466.230469 416.453125 466.230469 Z M 404.953125 433.015625 L 365.828125 433.015625 C 365.328125 433.015625 364.921875 433.421875 364.921875 433.921875 C 364.921875 434.421875 365.328125 434.828125 365.828125 434.828125 L 404.953125 434.828125 C 405.453125 434.828125 405.859375 434.421875 405.859375 433.921875 C 405.859375 433.421875 405.453125 433.015625 404.953125 433.015625 Z M 407.429688 441.339844 C 407.933594 441.339844 408.335938 440.933594 408.335938 440.429688 C 408.335938 439.929688 407.933594 439.523438 407.429688 439.523438 L 368.304688 439.523438 C 367.804688 439.523438 367.398438 439.929688 367.398438 440.429688 C 367.398438 440.933594 367.804688 441.339844 368.304688 441.339844 Z M 370.78125 447.851562 L 409.90625 447.851562 C 410.40625 447.851562 410.8125 447.445312 410.8125 446.945312 C 410.8125 446.441406 410.40625 446.035156 409.90625 446.035156 L 370.78125 446.035156 C 370.28125 446.035156 369.875 446.441406 369.875 446.945312 C 369.875 447.445312 370.28125 447.851562 370.78125 447.851562 Z M 413.289062 453.457031 C 413.289062 452.953125 412.882812 452.546875 412.382812 452.546875 L 373.257812 452.546875 C 372.753906 452.546875 372.351562 452.953125 372.351562 453.457031 C 372.351562 453.957031 372.753906 454.363281 373.257812 454.363281 L 412.382812 454.363281 C 412.882812 454.363281 413.289062 453.957031 413.289062 453.457031 Z M 413.289062 453.457031 " fill-opacity="1" fill-rule="nonzero"/><path fill="#00cc93" d="M 508.996094 346.132812 C 509.167969 346.304688 509.402344 346.398438 509.636719 346.398438 C 509.753906 346.398438 509.871094 346.375 509.984375 346.328125 C 510.320312 346.1875 510.542969 345.859375 510.542969 345.488281 L 510.542969 319.585938 L 522.6875 319.585938 C 526.136719 319.585938 528.941406 316.78125 528.941406 313.332031 L 528.941406 264.558594 C 528.941406 261.109375 526.132812 258.304688 522.6875 258.304688 L 421.714844 258.304688 L 421.714844 272.382812 C 421.714844 275.78125 418.953125 278.546875 415.554688 278.546875 L 384.484375 278.546875 L 384.484375 313.332031 C 384.484375 316.78125 387.292969 319.585938 390.738281 319.585938 L 482.453125 319.585938 Z M 427.410156 292.078125 C 427.410156 288.59375 430.246094 285.757812 433.730469 285.757812 C 437.214844 285.757812 440.050781 288.59375 440.050781 292.078125 C 440.050781 295.5625 437.214844 298.398438 433.730469 298.398438 C 430.246094 298.398438 427.410156 295.5625 427.410156 292.078125 Z M 450.394531 292.078125 C 450.394531 288.59375 453.230469 285.757812 456.710938 285.757812 C 460.199219 285.757812 463.035156 288.59375 463.035156 292.078125 C 463.035156 295.5625 460.199219 298.398438 456.710938 298.398438 C 453.230469 298.398438 450.394531 295.5625 450.394531 292.078125 Z M 479.699219 298.398438 C 476.214844 298.398438 473.378906 295.5625 473.378906 292.078125 C 473.378906 288.59375 476.214844 285.757812 479.699219 285.757812 C 483.183594 285.757812 486.015625 288.59375 486.015625 292.078125 C 486.015625 295.5625 483.183594 298.398438 479.699219 298.398438 Z M 530.894531 512.183594 C 531.472656 512.914062 532.5 513.375 533.65625 513.429688 L 517.78125 513.429688 L 517.800781 504.554688 C 518.066406 504.324219 518.328125 504.101562 518.59375 503.875 C 517.738281 506.375 517.796875 508.527344 518.289062 509.921875 C 518.5625 510.703125 519.023438 511.320312 519.597656 511.765625 C 520.050781 512.121094 520.570312 512.378906 521.160156 512.476562 C 521.371094 512.511719 521.582031 512.527344 521.796875 512.527344 C 522.71875 512.527344 523.648438 512.1875 524.445312 511.609375 C 524.449219 511.609375 524.449219 511.613281 524.449219 511.617188 C 525.09375 512.433594 526.1875 512.953125 527.453125 513.039062 C 527.578125 513.046875 527.703125 513.050781 527.824219 513.050781 C 528.960938 513.050781 530.027344 512.6875 530.828125 512.066406 C 530.855469 512.105469 530.867188 512.148438 530.894531 512.183594 Z M 627.082031 407 C 622.5 400.210938 615.117188 394.964844 608.445312 391.265625 C 607.824219 390.917969 607.207031 390.585938 606.601562 390.269531 C 600.375 387.003906 595.09375 385.15625 593.835938 384.734375 L 584.347656 373.28125 L 584.140625 373.027344 C 583.859375 372.683594 583.371094 372.597656 582.984375 372.820312 L 582.535156 373.082031 L 559.890625 386.191406 L 552.097656 377.40625 L 551.867188 377.148438 C 551.683594 376.9375 551.402344 376.820312 551.125 376.847656 C 550.84375 376.867188 550.585938 377.019531 550.433594 377.253906 L 550.285156 377.484375 L 542.777344 388.945312 C 540.484375 389.488281 528.164062 392.707031 510.226562 403.152344 C 493.714844 412.769531 476.214844 422.457031 476.039062 422.554688 C 475.644531 422.777344 475.472656 423.253906 475.636719 423.679688 L 476 424.617188 L 489.589844 459.582031 L 490.234375 461.234375 C 490.238281 461.246094 490.25 461.257812 490.253906 461.269531 C 490.347656 461.476562 490.507812 461.648438 490.722656 461.738281 C 490.945312 461.835938 491.195312 461.839844 491.421875 461.746094 L 506.75 455.558594 C 506.316406 455.332031 506.140625 454.804688 506.355469 454.363281 C 506.480469 454.109375 506.609375 453.863281 506.738281 453.609375 C 507.34375 452.382812 507.957031 451.171875 508.582031 449.980469 C 509.886719 447.492188 511.234375 445.070312 512.632812 442.707031 C 516.058594 436.914062 519.78125 431.460938 523.878906 426.234375 C 524.191406 425.839844 524.761719 425.777344 525.152344 426.082031 C 525.546875 426.390625 525.613281 426.960938 525.308594 427.355469 C 523.09375 430.175781 520.996094 433.074219 518.992188 436.046875 C 517.203125 438.695312 515.488281 441.402344 513.851562 444.199219 C 512.664062 446.226562 511.519531 448.300781 510.402344 450.417969 C 509.582031 451.976562 508.769531 453.550781 507.984375 455.160156 C 507.824219 455.480469 507.503906 455.667969 507.167969 455.667969 C 507.078125 455.667969 506.988281 455.632812 506.898438 455.605469 C 506.5 457.605469 506.261719 459.742188 506.261719 462.03125 C 506.261719 474.351562 513.105469 480.226562 517.84375 482.828125 L 517.824219 491.589844 C 518.417969 491.171875 519.023438 490.769531 519.640625 490.386719 C 523.882812 487.761719 528.753906 486.007812 533.574219 486.007812 C 533.578125 486.007812 533.585938 486.007812 533.589844 486.007812 C 541.6875 486.007812 549.777344 488.394531 555.859375 492.5625 L 608.628906 487.828125 L 609.472656 487.753906 L 606.5625 472.785156 C 606.5625 472.78125 606.566406 472.78125 606.5625 472.777344 L 606.558594 472.75 L 597.605469 426.964844 C 597.507812 426.472656 597.828125 426 598.320312 425.902344 C 598.800781 425.796875 599.289062 426.125 599.382812 426.617188 L 608.199219 471.703125 L 643.496094 471.703125 C 643.941406 471.703125 644.320312 472.027344 644.394531 472.464844 C 641.605469 449.15625 634.996094 418.738281 627.082031 407 Z M 567.222656 403.914062 C 567.074219 404.015625 566.902344 404.066406 566.722656 404.066406 C 566.636719 404.066406 566.550781 404.054688 566.46875 404.03125 C 566.210938 403.953125 566 403.773438 565.894531 403.527344 L 559.445312 389.007812 L 548.257812 401.660156 C 548.046875 401.898438 547.726562 402.015625 547.414062 401.949219 C 547.101562 401.894531 546.84375 401.675781 546.730469 401.378906 L 542.773438 390.820312 L 542.488281 390.066406 C 542.3125 389.597656 542.550781 389.078125 543.019531 388.902344 C 543.488281 388.722656 544.007812 388.960938 544.1875 389.429688 L 544.347656 389.859375 L 547.898438 399.328125 L 558.492188 387.347656 L 559.023438 386.746094 C 559.226562 386.519531 559.539062 386.40625 559.839844 386.453125 C 560.144531 386.5 560.40625 386.699219 560.53125 386.980469 L 560.863281 387.726562 L 567.117188 401.808594 L 591.964844 385.316406 L 592.804688 384.757812 C 593.214844 384.488281 593.78125 384.59375 594.0625 385.015625 C 594.335938 385.433594 594.226562 385.996094 593.804688 386.273438 L 593.4375 386.519531 Z M 614.246094 515.394531 L 614.925781 520.34375 L 543.433594 520.34375 C 543.839844 520.25 544.148438 519.90625 544.148438 519.472656 L 544.148438 514.335938 C 544.148438 513.835938 543.742188 513.429688 543.238281 513.429688 L 534.023438 513.429688 C 535.410156 513.390625 536.734375 512.777344 537.683594 511.703125 C 538.011719 511.332031 538.40625 510.847656 538.855469 510.296875 C 539.585938 509.40625 540.453125 508.34375 541.414062 507.292969 C 548.070312 514.960938 568.734375 516.300781 585.394531 516.300781 C 590.679688 516.300781 595.5625 516.167969 599.453125 516.0625 L 602.160156 515.988281 C 605.8125 515.902344 609.222656 515.75 612.433594 515.523438 C 613.042969 515.484375 613.65625 515.441406 614.246094 515.394531 Z M 263.222656 220.011719 L 262.523438 219.71875 C 262.714844 219.695312 262.902344 219.671875 263.097656 219.636719 C 263.121094 219.765625 263.179688 219.886719 263.222656 220.011719 Z M 254.027344 216.1875 L 249.65625 214.367188 C 249.667969 214.003906 249.679688 213.621094 249.699219 213.234375 C 249.726562 212.617188 249.757812 211.980469 249.796875 211.3125 L 253.933594 213.03125 L 254.089844 213.097656 C 253.792969 213.695312 253.664062 214.308594 253.6875 214.894531 C 253.710938 215.328125 253.792969 215.753906 253.996094 216.140625 C 254.003906 216.15625 254.015625 216.171875 254.027344 216.1875 Z M 268.503906 222.207031 L 267.46875 221.777344 C 267.800781 221.722656 268.136719 221.65625 268.460938 221.582031 C 268.449219 221.796875 268.476562 222.003906 268.503906 222.207031 Z M 258.785156 218.164062 L 257.371094 217.578125 C 257.761719 217.539062 258.160156 217.480469 258.558594 217.40625 C 258.597656 217.667969 258.675781 217.921875 258.785156 218.164062 Z M 251.585938 240.617188 C 251.484375 240.882812 251.371094 241.144531 251.253906 241.410156 C 251.675781 241.691406 252.070312 241.984375 252.425781 242.273438 C 253.605469 243.238281 254.375 244.136719 254.445312 244.222656 C 254.667969 244.484375 254.703125 244.835938 254.585938 245.136719 L 277.640625 254.722656 C 277.972656 254.863281 278.316406 254.925781 278.65625 254.925781 C 279.695312 254.925781 280.6875 254.308594 281.109375 253.292969 C 281.109375 253.292969 281.109375 253.289062 281.109375 253.289062 L 284.980469 243.988281 L 285.714844 242.21875 L 290.1875 231.464844 L 290.355469 231.054688 C 290.585938 230.503906 290.578125 229.910156 290.425781 229.34375 C 290.394531 229.238281 290.402344 229.125 290.359375 229.023438 C 290.160156 228.535156 289.796875 228.171875 289.375 227.882812 C 289.226562 227.78125 289.097656 227.652344 288.925781 227.582031 L 286.847656 226.71875 L 282.097656 224.742188 C 282.0625 224.824219 282.035156 224.878906 282.027344 224.890625 C 281.863281 225.195312 281.554688 225.363281 281.230469 225.363281 C 281.085938 225.363281 280.9375 225.328125 280.800781 225.253906 C 280.382812 225.027344 280.226562 224.527344 280.410156 224.101562 L 277.578125 222.875 C 277.484375 223.089844 277.308594 223.273438 277.070312 223.363281 C 277.007812 223.386719 276.316406 223.640625 275.386719 223.917969 C 274.867188 224.070312 274.285156 224.226562 273.671875 224.355469 L 282.445312 228.003906 L 273.425781 249.699219 Z M 281.167969 238.253906 C 282.351562 238.089844 283.445312 238.914062 283.613281 240.097656 C 283.777344 241.28125 282.953125 242.375 281.765625 242.542969 C 280.585938 242.707031 279.492188 241.882812 279.324219 240.695312 C 279.160156 239.511719 279.988281 238.421875 281.167969 238.253906 Z M 314.144531 314.652344 C 315.515625 314.652344 316.859375 314.511719 318.15625 314.25 C 307.660156 316.566406 287.605469 315.144531 282.777344 314.753906 L 286.03125 399.167969 L 286.101562 400.898438 C 286.109375 401.140625 285.996094 401.359375 285.832031 401.535156 C 285.789062 401.582031 285.761719 401.644531 285.707031 401.679688 C 275.457031 408.691406 264.191406 413.777344 252.355469 416.832031 C 252.253906 416.859375 252.15625 416.882812 252.054688 416.90625 C 250.570312 417.285156 249.074219 417.628906 247.570312 417.945312 C 247.300781 418 247.03125 418.058594 246.761719 418.113281 C 243.527344 418.761719 240.257812 419.265625 236.953125 419.613281 C 236.5625 419.65625 236.167969 419.6875 235.773438 419.726562 C 234.511719 419.84375 233.25 419.941406 231.984375 420.015625 C 231.523438 420.039062 231.066406 420.070312 230.609375 420.089844 C 228.972656 420.164062 227.335938 420.214844 225.6875 420.214844 C 224.03125 420.214844 222.382812 420.164062 220.734375 420.089844 C 220.269531 420.066406 219.804688 420.035156 219.339844 420.007812 C 218.09375 419.9375 216.851562 419.839844 215.617188 419.726562 C 215.183594 419.683594 214.75 419.644531 214.316406 419.601562 C 210.992188 419.246094 207.695312 418.742188 204.4375 418.078125 C 204.253906 418.042969 204.070312 418 203.882812 417.960938 C 202.402344 417.652344 200.925781 417.308594 199.460938 416.9375 C 199.25 416.882812 199.039062 416.832031 198.828125 416.777344 C 193.902344 415.492188 189.074219 413.855469 184.382812 411.871094 C 184.3125 411.839844 184.242188 411.808594 184.171875 411.78125 C 182.664062 411.140625 181.171875 410.464844 179.695312 409.753906 C 179.632812 409.722656 179.570312 409.695312 179.511719 409.664062 C 174.992188 407.480469 170.609375 404.964844 166.390625 402.125 C 166.257812 402.035156 166.125 401.941406 165.988281 401.847656 C 165.394531 401.445312 164.796875 401.054688 164.210938 400.636719 C 164.160156 400.601562 164.132812 400.542969 164.089844 400.5 C 163.925781 400.320312 163.816406 400.101562 163.828125 399.859375 L 163.902344 398.140625 L 165.421875 363.164062 C 166.882812 359.804688 167.445312 356.808594 167.515625 356.410156 L 167.53125 356.347656 L 178.261719 317.433594 C 178.394531 316.949219 178.109375 316.453125 177.628906 316.320312 C 177.152344 316.191406 176.648438 316.46875 176.511719 316.953125 L 166.136719 354.578125 L 139.414062 331.433594 L 137.855469 330.082031 C 143.328125 311.175781 152.820312 285.453125 166.070312 275.199219 C 177.839844 266.09375 191.640625 261.003906 200.664062 258.40625 C 200.570312 258.453125 200.480469 258.503906 200.402344 258.582031 C 200.050781 258.941406 200.058594 259.515625 200.414062 259.863281 C 200.449219 259.898438 200.589844 260.035156 200.824219 260.246094 C 202.335938 261.613281 207.949219 266.316406 216.226562 268.8125 C 219.6875 269.859375 223.820312 270.464844 227.984375 270.464844 C 233.792969 270.464844 239.65625 269.28125 243.835938 266.457031 C 248.28125 263.449219 250.226562 260.597656 250.960938 259.261719 C 251.214844 258.796875 251.328125 258.515625 251.34375 258.472656 C 251.515625 258.007812 251.28125 257.488281 250.8125 257.3125 C 250.347656 257.136719 249.824219 257.371094 249.644531 257.835938 C 249.640625 257.84375 249.496094 258.175781 249.1875 258.691406 C 248.449219 259.925781 246.664062 262.355469 242.820312 264.953125 C 236.1875 269.4375 224.4375 269.394531 216.75 267.078125 C 210.0625 265.058594 205.113281 261.449219 202.925781 259.652344 C 202.136719 259.003906 201.699219 258.582031 201.683594 258.566406 C 201.460938 258.351562 201.160156 258.289062 200.878906 258.34375 C 204.964844 257.175781 208.035156 256.523438 209.449219 256.25 C 209.984375 256.148438 210.296875 256.09375 210.324219 256.089844 C 210.542969 256.054688 210.765625 256.101562 210.953125 256.21875 C 210.960938 256.222656 211.097656 256.304688 211.308594 256.425781 C 213.097656 257.453125 221.757812 262.066406 230.871094 260.796875 C 239.609375 259.578125 241.597656 256.3125 241.925781 255.613281 C 241.964844 255.53125 241.984375 255.476562 241.988281 255.472656 C 242.136719 254.996094 242.660156 254.714844 243.128906 254.863281 C 243.148438 254.871094 243.347656 254.933594 243.675781 255.035156 C 246.253906 255.847656 257.71875 259.472656 267.875 262.933594 C 268.269531 263.671875 268.695312 264.460938 269.144531 265.285156 C 276.785156 279.332031 291.503906 304.796875 300.753906 310.617188 C 302.859375 311.941406 305.070312 312.9375 307.304688 313.609375 C 309.59375 314.300781 311.902344 314.652344 314.144531 314.652344 Z M 320.46875 313.621094 C 320.578125 313.582031 320.691406 313.546875 320.804688 313.503906 C 320.785156 313.511719 320.773438 313.523438 320.757812 313.527344 C 320.667969 313.5625 320.5625 313.589844 320.46875 313.621094 Z M 320.46875 313.621094 " fill-opacity="1" fill-rule="nonzero"/><g clip-path="url(#a47d34dc30)"><path fill="#231f20" d="M 431.9375 189.8125 C 432.046875 189.324219 432.53125 189.011719 433.019531 189.125 C 433.40625 189.210938 471.808594 198.207031 485.964844 238.722656 C 486.132812 239.195312 485.882812 239.710938 485.410156 239.878906 C 485.308594 239.910156 485.210938 239.925781 485.109375 239.925781 C 484.734375 239.925781 484.382812 239.691406 484.253906 239.320312 C 470.4375 199.78125 433 190.976562 432.625 190.894531 C 432.136719 190.785156 431.828125 190.300781 431.9375 189.8125 Z M 547.800781 360.992188 C 547.710938 360.710938 547.761719 360.40625 547.9375 360.167969 C 548.117188 359.933594 548.386719 359.816406 548.6875 359.804688 C 548.773438 359.8125 557.683594 360.023438 561.695312 357.820312 C 561.964844 357.671875 562.296875 357.667969 562.570312 357.820312 C 562.84375 357.972656 563.019531 358.253906 563.035156 358.5625 C 563.167969 360.828125 562.035156 365.429688 556.796875 366.628906 C 556.175781 366.769531 555.589844 366.835938 555.03125 366.835938 C 550.855469 366.835938 548.507812 363.179688 547.800781 360.992188 Z M 550.058594 361.625 C 550.910156 363.199219 552.851562 365.671875 556.394531 364.859375 C 559.800781 364.082031 560.816406 361.640625 561.113281 360.066406 C 557.570312 361.375 552.507812 361.597656 550.058594 361.625 Z M 243.835938 266.457031 C 248.28125 263.449219 250.230469 260.597656 250.964844 259.261719 C 251.21875 258.800781 251.328125 258.515625 251.34375 258.476562 C 251.519531 258.007812 251.28125 257.488281 250.8125 257.3125 C 250.347656 257.136719 249.824219 257.371094 249.644531 257.835938 C 249.640625 257.84375 249.496094 258.175781 249.1875 258.691406 C 248.449219 259.925781 246.664062 262.355469 242.820312 264.953125 C 236.1875 269.4375 224.441406 269.394531 216.753906 267.078125 C 210.0625 265.058594 205.113281 261.449219 202.925781 259.652344 C 202.140625 259.003906 201.703125 258.585938 201.6875 258.570312 C 201.464844 258.351562 201.160156 258.289062 200.878906 258.34375 C 200.804688 258.359375 200.734375 258.371094 200.664062 258.40625 C 200.570312 258.453125 200.480469 258.503906 200.402344 258.582031 C 200.054688 258.941406 200.058594 259.515625 200.417969 259.863281 C 200.449219 259.898438 200.59375 260.035156 200.824219 260.246094 C 202.335938 261.613281 207.949219 266.316406 216.226562 268.8125 C 219.6875 269.859375 223.820312 270.464844 227.984375 270.464844 C 233.792969 270.464844 239.660156 269.285156 243.835938 266.457031 Z M 560.214844 342.664062 C 560.226562 342.664062 560.242188 342.664062 560.253906 342.660156 C 560.753906 342.636719 561.144531 342.214844 561.117188 341.714844 L 560.945312 337.976562 C 560.921875 337.476562 560.488281 337.070312 559.996094 337.113281 C 559.496094 337.136719 559.109375 337.5625 559.132812 338.0625 L 559.308594 341.796875 C 559.328125 342.285156 559.730469 342.664062 560.214844 342.664062 Z M 506.75 455.558594 C 506.757812 455.5625 506.761719 455.570312 506.769531 455.574219 C 506.8125 455.597656 506.859375 455.589844 506.898438 455.605469 C 506.988281 455.632812 507.078125 455.667969 507.171875 455.667969 C 507.503906 455.667969 507.828125 455.480469 507.984375 455.160156 C 508.773438 453.550781 509.582031 451.976562 510.40625 450.417969 C 511.523438 448.300781 512.667969 446.226562 513.851562 444.199219 C 515.492188 441.40625 517.207031 438.695312 518.992188 436.046875 C 521 433.074219 523.09375 430.175781 525.308594 427.355469 C 525.617188 426.960938 525.550781 426.390625 525.15625 426.082031 C 524.761719 425.777344 524.195312 425.839844 523.882812 426.234375 C 519.78125 431.460938 516.058594 436.914062 512.632812 442.707031 C 511.234375 445.070312 509.886719 447.492188 508.585938 449.980469 C 507.957031 451.171875 507.34375 452.382812 506.738281 453.609375 C 506.613281 453.863281 506.484375 454.109375 506.355469 454.363281 C 506.140625 454.804688 506.320312 455.332031 506.75 455.558594 Z M 229.488281 208.683594 C 229.300781 208.695312 224.886719 209.042969 221.628906 213.265625 C 221.320312 213.660156 221.394531 214.230469 221.792969 214.535156 C 221.957031 214.664062 222.152344 214.726562 222.34375 214.726562 C 222.617188 214.726562 222.886719 214.605469 223.0625 214.371094 C 225.808594 210.820312 229.574219 210.496094 229.613281 210.492188 C 230.109375 210.457031 230.488281 210.023438 230.449219 209.523438 C 230.414062 209.027344 229.96875 208.667969 229.488281 208.683594 Z M 565.167969 333.707031 C 565.496094 333.707031 565.8125 333.527344 565.972656 333.214844 C 566.203125 332.769531 566.027344 332.222656 565.582031 331.992188 C 560.054688 329.148438 556.59375 331.3125 556.449219 331.40625 C 556.03125 331.675781 555.914062 332.230469 556.179688 332.648438 C 556.445312 333.070312 557.007812 333.195312 557.425781 332.933594 C 557.539062 332.867188 560.214844 331.273438 564.753906 333.605469 C 564.886719 333.671875 565.027344 333.707031 565.167969 333.707031 Z M 544.914062 338.042969 C 544.414062 338.066406 544.027344 338.492188 544.050781 338.992188 L 544.222656 342.726562 C 544.246094 343.210938 544.648438 343.589844 545.128906 343.589844 C 545.144531 343.589844 545.160156 343.589844 545.171875 343.589844 C 545.671875 343.566406 546.058594 343.144531 546.035156 342.640625 L 545.859375 338.90625 C 545.839844 338.40625 545.394531 338 544.914062 338.042969 Z M 674.769531 526.007812 C 674.769531 529.136719 672.234375 531.671875 669.105469 531.671875 L 242.070312 531.671875 C 238.941406 531.671875 236.40625 529.136719 236.40625 526.007812 C 236.40625 522.878906 238.941406 520.34375 242.070312 520.34375 L 362.59375 520.34375 C 362.058594 520.15625 361.578125 519.824219 361.242188 519.351562 C 360.726562 518.628906 360.589844 517.691406 360.882812 516.851562 L 368.6875 494.277344 L 369.3125 492.464844 L 378.171875 466.839844 C 378.296875 466.472656 378.640625 466.230469 379.027344 466.230469 L 416.453125 466.230469 C 416.746094 466.230469 417.019531 466.371094 417.191406 466.609375 C 417.363281 466.851562 417.40625 467.15625 417.308594 467.433594 L 408.65625 492.464844 L 408.03125 494.277344 L 401.648438 512.738281 C 401.570312 512.960938 401.605469 513.195312 401.742188 513.386719 C 401.769531 513.425781 401.808594 513.445312 401.84375 513.476562 C 401.976562 513.605469 402.136719 513.691406 402.328125 513.691406 L 439.816406 513.691406 C 441.007812 513.691406 442.058594 514.308594 442.667969 515.242188 C 443.019531 515.777344 443.226562 516.414062 443.226562 517.097656 C 443.226562 517.625 443.09375 518.121094 442.878906 518.566406 C 442.472656 519.414062 441.726562 520.058594 440.820312 520.339844 L 669.105469 520.339844 C 672.234375 520.34375 674.769531 522.878906 674.769531 526.007812 Z M 439.816406 518.695312 C 440.699219 518.695312 441.414062 517.980469 441.414062 517.101562 C 441.414062 516.21875 440.699219 515.503906 439.816406 515.503906 L 402.328125 515.503906 C 401.511719 515.503906 400.742188 515.105469 400.265625 514.441406 C 399.792969 513.773438 399.667969 512.917969 399.933594 512.144531 L 415.179688 468.042969 L 379.675781 468.042969 L 362.597656 517.441406 C 362.496094 517.734375 362.539062 518.046875 362.71875 518.296875 C 362.898438 518.550781 363.179688 518.695312 363.488281 518.695312 Z M 546.730469 401.378906 C 546.839844 401.675781 547.097656 401.894531 547.414062 401.949219 C 547.726562 402.015625 548.046875 401.898438 548.257812 401.660156 L 559.445312 389.007812 L 565.894531 403.527344 C 566 403.773438 566.210938 403.953125 566.46875 404.03125 C 566.550781 404.054688 566.636719 404.066406 566.722656 404.066406 C 566.898438 404.066406 567.074219 404.011719 567.222656 403.914062 L 593.433594 386.515625 L 593.804688 386.269531 C 594.222656 385.992188 594.335938 385.429688 594.0625 385.011719 C 593.78125 384.589844 593.214844 384.488281 592.804688 384.757812 L 591.960938 385.316406 L 567.117188 401.808594 L 560.859375 387.726562 L 560.53125 386.980469 C 560.402344 386.699219 560.144531 386.5 559.839844 386.453125 C 559.535156 386.40625 559.226562 386.519531 559.019531 386.746094 L 558.488281 387.347656 L 547.898438 399.328125 L 544.347656 389.859375 L 544.183594 389.429688 C 544.007812 388.960938 543.484375 388.722656 543.015625 388.902344 C 542.546875 389.078125 542.308594 389.597656 542.488281 390.066406 L 542.769531 390.820312 Z M 608.203125 471.707031 L 643.5 471.707031 C 643.945312 471.707031 644.324219 472.027344 644.394531 472.46875 C 644.394531 472.46875 644.394531 472.46875 644.394531 472.472656 C 644.492188 473.085938 646.761719 487.660156 644.386719 498.554688 C 641.910156 509.910156 631.476562 513.976562 614.246094 515.394531 C 613.65625 515.441406 613.042969 515.484375 612.4375 515.527344 C 609.222656 515.75 605.8125 515.902344 602.160156 515.992188 L 599.457031 516.0625 C 595.5625 516.167969 590.679688 516.300781 585.398438 516.300781 C 568.734375 516.300781 548.070312 514.960938 541.414062 507.292969 C 540.453125 508.347656 539.585938 509.40625 538.859375 510.296875 C 538.40625 510.847656 538.011719 511.332031 537.683594 511.703125 C 536.734375 512.78125 535.410156 513.394531 534.023438 513.429688 L 533.65625 513.429688 C 532.5 513.375 531.472656 512.917969 530.894531 512.183594 C 530.867188 512.148438 530.855469 512.105469 530.828125 512.070312 C 530.027344 512.6875 528.960938 513.054688 527.824219 513.054688 C 527.699219 513.054688 527.578125 513.050781 527.449219 513.039062 C 526.1875 512.957031 525.089844 512.4375 524.449219 511.617188 C 524.445312 511.613281 524.445312 511.613281 524.445312 511.609375 C 523.648438 512.1875 522.71875 512.53125 521.796875 512.53125 C 521.582031 512.53125 521.367188 512.511719 521.160156 512.476562 C 520.570312 512.378906 520.050781 512.121094 519.597656 511.769531 C 519.023438 511.320312 518.5625 510.707031 518.285156 509.925781 C 517.792969 508.527344 517.738281 506.375 518.59375 503.875 C 518.328125 504.101562 518.066406 504.324219 517.800781 504.558594 C 517.574219 504.75 517.351562 504.949219 517.128906 505.140625 C 515.339844 506.71875 513.792969 508.078125 512.527344 508.476562 C 511.242188 508.878906 509.382812 508.621094 508.304688 507.335938 C 507.539062 506.429688 506.933594 504.746094 508.410156 501.886719 C 510.269531 498.277344 513.667969 494.539062 517.828125 491.59375 C 518.417969 491.175781 519.023438 490.773438 519.644531 490.390625 C 523.886719 487.765625 528.753906 486.011719 533.574219 486.007812 C 533.582031 486.007812 533.585938 486.007812 533.589844 486.007812 C 541.6875 486.007812 549.78125 488.394531 555.859375 492.566406 L 608.632812 487.832031 L 609.472656 487.753906 L 606.566406 472.785156 C 606.5625 472.785156 606.566406 472.78125 606.566406 472.78125 L 606.558594 472.75 L 597.605469 426.96875 C 597.507812 426.476562 597.828125 426 598.320312 425.90625 C 598.804688 425.800781 599.292969 426.125 599.382812 426.621094 Z M 608.554688 473.519531 L 611.445312 488.394531 C 611.492188 488.648438 611.433594 488.910156 611.28125 489.113281 C 611.125 489.320312 610.890625 489.449219 610.636719 489.472656 L 555.695312 494.402344 C 555.464844 494.417969 555.265625 494.367188 555.09375 494.242188 C 549.28125 490.160156 541.445312 487.820312 533.59375 487.820312 C 533.585938 487.820312 533.582031 487.820312 533.574219 487.820312 C 524.082031 487.828125 513.730469 495.527344 510.023438 502.71875 C 509.230469 504.253906 509.113281 505.480469 509.695312 506.167969 C 510.226562 506.800781 511.292969 506.957031 511.980469 506.75 C 512.882812 506.464844 514.433594 505.101562 515.929688 503.78125 C 517.410156 502.480469 518.933594 501.152344 520.335938 500.351562 C 523.488281 495.542969 528.890625 491.535156 529.125 491.363281 C 529.523438 491.066406 530.09375 491.148438 530.390625 491.558594 C 530.6875 491.960938 530.601562 492.527344 530.195312 492.824219 C 530.1875 492.828125 530.019531 492.957031 529.75 493.167969 C 528.390625 494.230469 524.199219 497.671875 521.742188 501.507812 C 519.601562 504.847656 519.464844 507.804688 519.996094 509.320312 C 520.273438 510.101562 520.777344 510.574219 521.460938 510.6875 C 522.234375 510.8125 523.105469 510.460938 523.753906 509.816406 C 523.476562 507.847656 524.25 505.003906 526.765625 501.746094 C 529.160156 498.644531 532.855469 495.25 534.519531 493.777344 C 535.007812 493.347656 535.328125 493.074219 535.375 493.03125 C 535.761719 492.707031 536.332031 492.753906 536.65625 493.132812 C 536.894531 493.414062 536.929688 493.796875 536.78125 494.105469 C 536.726562 494.21875 536.65625 494.324219 536.550781 494.410156 C 536.496094 494.457031 531.179688 498.992188 528.199219 502.855469 C 525.195312 506.746094 525.179688 509.605469 525.875 510.496094 C 526.195312 510.902344 526.832031 511.179688 527.574219 511.230469 C 528.480469 511.289062 529.382812 511.011719 529.910156 510.5 C 529.980469 510.429688 530.066406 510.386719 530.148438 510.34375 C 529.832031 508.011719 531.4375 505.257812 532.847656 503.203125 C 535.046875 500.003906 539.964844 496.613281 541.816406 495.402344 C 542.222656 495.140625 542.484375 494.972656 542.535156 494.941406 C 542.964844 494.675781 543.523438 494.8125 543.785156 495.238281 C 544.046875 495.660156 543.917969 496.222656 543.488281 496.484375 C 543.488281 496.484375 543.460938 496.503906 543.449219 496.507812 C 543.015625 496.78125 536.734375 500.75 534.34375 504.230469 C 532.050781 507.5625 531.371094 509.859375 532.320312 511.0625 C 532.527344 511.328125 533.074219 511.609375 533.808594 511.628906 C 534.34375 511.628906 535.425781 511.523438 536.324219 510.5 C 536.640625 510.144531 537.019531 509.679688 537.453125 509.148438 C 539.515625 506.632812 542.621094 502.835938 546.042969 501.261719 C 546.0625 501.253906 546.082031 501.242188 546.101562 501.230469 C 546.550781 501.027344 547.09375 501.226562 547.300781 501.683594 C 547.507812 502.140625 547.304688 502.675781 546.847656 502.882812 C 545.398438 503.539062 543.972656 504.703125 542.660156 506 C 550.613281 515.574219 584.675781 514.652344 599.40625 514.246094 L 602.117188 514.175781 C 626.246094 513.597656 639.84375 510.875 642.613281 498.167969 C 644.617188 488.992188 643.148438 476.679688 642.714844 473.519531 Z M 548.304688 352.914062 C 549.09375 354.035156 550.726562 354.660156 552.820312 354.660156 C 552.972656 354.660156 553.132812 354.65625 553.292969 354.652344 C 553.792969 354.628906 554.179688 354.207031 554.160156 353.707031 C 554.136719 353.207031 553.710938 352.816406 553.214844 352.839844 C 551.5625 352.925781 550.261719 352.539062 549.785156 351.871094 C 549.496094 351.460938 549.503906 350.871094 549.808594 350.121094 C 552.535156 343.390625 551.898438 339.695312 551.867188 339.539062 C 551.777344 339.046875 551.316406 338.726562 550.816406 338.816406 C 550.328125 338.902344 550 339.375 550.085938 339.867188 C 550.089844 339.898438 550.628906 343.265625 548.128906 349.441406 C 547.441406 351.132812 547.84375 352.265625 548.304688 352.914062 Z M 287.941406 471.496094 C 292.578125 471.496094 297.539062 471.175781 302.828125 470.464844 C 303.324219 470.398438 303.675781 469.941406 303.605469 469.445312 C 303.542969 468.949219 303.09375 468.578125 302.585938 468.667969 C 247.441406 476.085938 228.070312 440.375 227.882812 440.011719 C 227.648438 439.566406 227.101562 439.402344 226.660156 439.628906 C 226.214844 439.859375 226.042969 440.40625 226.277344 440.851562 C 226.476562 441.234375 231.304688 450.332031 243.199219 458.59375 C 252.175781 464.835938 266.730469 471.496094 287.941406 471.496094 Z M 528.960938 374.976562 C 528.078125 374.070312 525.1875 370.683594 525.992188 365.785156 C 526.828125 360.683594 531.40625 358.347656 532.472656 357.871094 C 531.285156 355.769531 530.59375 353.34375 530.59375 350.761719 C 530.59375 345.222656 533.71875 340.40625 538.296875 337.960938 C 538.144531 337.199219 537.980469 336.40625 537.8125 335.585938 C 537.210938 332.644531 536.523438 329.308594 536.085938 325.875 C 536.027344 325.492188 534.664062 316.523438 539.460938 312.277344 C 539.46875 312.269531 539.476562 312.257812 539.484375 312.25 C 539.5 312.234375 539.515625 312.222656 539.527344 312.210938 C 539.535156 312.203125 539.542969 312.195312 539.550781 312.1875 C 539.554688 312.183594 539.5625 312.179688 539.566406 312.175781 C 540.023438 311.707031 540.523438 311.269531 541.046875 310.847656 C 543.886719 304.851562 548.265625 300.714844 560.167969 299.976562 C 561.917969 299.867188 563.78125 299.835938 565.683594 299.917969 C 566.824219 299.8125 583.769531 298.460938 593.984375 310.207031 C 603.347656 320.964844 607.761719 362.207031 608.441406 391.265625 C 607.824219 390.917969 607.207031 390.585938 606.601562 390.269531 C 600.375 387.003906 595.09375 385.15625 593.832031 384.734375 L 584.347656 373.28125 L 584.136719 373.027344 C 583.855469 372.683594 583.371094 372.597656 582.984375 372.820312 L 582.535156 373.082031 L 582.535156 362.902344 C 578.566406 360.3125 575.9375 355.839844 575.9375 350.761719 C 575.9375 347.449219 577.066406 344.398438 578.945312 341.953125 C 566.761719 333.910156 565.367188 321.832031 565.222656 318.644531 C 544.371094 315.023438 538.667969 324.421875 537.917969 325.875 C 538.351562 329.160156 539.007812 332.378906 539.589844 335.222656 C 540.269531 338.546875 540.859375 341.417969 540.976562 343.730469 C 541.070312 345.59375 540.808594 347.726562 540.53125 349.988281 C 539.808594 355.910156 538.988281 362.625 543.6875 368.21875 C 546.917969 372.058594 551.5 374.398438 556.59375 374.800781 C 560.875 375.132812 567.46875 374.257812 574.574219 368.113281 C 574.953125 367.785156 575.527344 367.828125 575.851562 368.207031 C 576.179688 368.585938 576.140625 369.15625 575.761719 369.484375 C 569.074219 375.265625 562.757812 376.675781 558.191406 376.675781 C 557.578125 376.675781 556.996094 376.652344 556.449219 376.609375 C 554.953125 376.488281 553.5 376.203125 552.097656 375.789062 L 552.097656 377.402344 L 551.867188 377.144531 C 551.679688 376.933594 551.402344 376.816406 551.125 376.84375 C 550.84375 376.863281 550.585938 377.015625 550.429688 377.253906 L 550.28125 377.480469 L 550.28125 375.160156 C 547.207031 373.925781 544.472656 371.964844 542.300781 369.382812 C 540.863281 367.671875 539.90625 365.867188 539.265625 364.027344 C 536.953125 363.007812 534.960938 361.394531 533.46875 359.386719 C 533.433594 359.410156 533.40625 359.441406 533.367188 359.457031 C 533.320312 359.476562 528.535156 361.449219 527.777344 366.078125 C 527.296875 369.015625 528.453125 371.324219 529.386719 372.644531 C 529.078125 373.226562 528.90625 373.867188 528.90625 374.539062 C 528.90625 374.6875 528.945312 374.828125 528.960938 374.976562 Z M 590.4375 338.074219 C 588.058594 338.074219 585.835938 338.746094 583.933594 339.890625 L 580.933594 342.386719 C 578.960938 344.625 577.75 347.550781 577.75 350.761719 C 577.75 357.757812 583.441406 363.445312 590.4375 363.445312 C 597.433594 363.445312 603.121094 357.757812 603.121094 350.761719 C 603.121094 343.765625 597.433594 338.074219 590.4375 338.074219 Z M 544.367188 308.675781 C 546.1875 307.699219 548.230469 306.914062 550.445312 306.335938 C 550.6875 306.269531 550.921875 306.195312 551.167969 306.132812 C 551.269531 306.109375 551.375 306.089844 551.476562 306.066406 C 553.316406 305.625 555.246094 305.359375 557.261719 305.253906 C 557.40625 305.246094 557.550781 305.242188 557.691406 305.234375 C 558.160156 305.214844 558.617188 305.179688 559.09375 305.175781 C 559.175781 305.175781 559.261719 305.175781 559.339844 305.175781 C 559.59375 305.175781 559.824219 305.191406 560.074219 305.195312 C 560.273438 305.199219 560.464844 305.179688 560.664062 305.1875 C 560.953125 305.191406 561.226562 305.222656 561.511719 305.234375 C 562.140625 305.261719 562.753906 305.296875 563.347656 305.34375 C 563.382812 305.347656 563.414062 305.347656 563.445312 305.351562 C 568.988281 305.800781 573.0625 307.214844 576.105469 309.777344 C 576.570312 310.152344 576.988281 310.554688 577.367188 310.96875 C 577.414062 311.015625 577.464844 311.054688 577.511719 311.105469 C 577.515625 311.109375 577.519531 311.117188 577.527344 311.121094 C 577.527344 311.121094 577.527344 311.125 577.53125 311.125 C 577.539062 311.132812 577.542969 311.140625 577.550781 311.148438 C 578.210938 311.867188 578.824219 312.730469 579.398438 313.707031 C 579.449219 313.796875 579.503906 313.890625 579.554688 313.980469 C 579.640625 314.132812 579.730469 314.285156 579.816406 314.441406 C 584.074219 322.171875 584.414062 333.472656 584.382812 337.601562 C 585.964844 336.871094 587.695312 336.421875 589.523438 336.304688 C 589.457031 332.652344 588.929688 318.222656 584.714844 311.074219 C 579.636719 302.457031 568.632812 301.269531 560.285156 301.785156 C 551.324219 302.34375 547.0625 304.804688 544.367188 308.675781 Z M 538.621094 361.648438 C 537.792969 357.554688 538.289062 353.394531 538.734375 349.769531 C 539 347.589844 539.25 345.527344 539.167969 343.820312 C 539.109375 342.667969 538.917969 341.332031 538.652344 339.855469 C 534.921875 342.066406 532.410156 346.121094 532.410156 350.761719 C 532.410156 355.386719 534.90625 359.433594 538.621094 361.648438 Z M 486.015625 292.078125 C 486.015625 295.5625 483.183594 298.398438 479.699219 298.398438 C 476.214844 298.398438 473.378906 295.5625 473.378906 292.078125 C 473.378906 288.59375 476.214844 285.757812 479.699219 285.757812 C 483.183594 285.757812 486.015625 288.59375 486.015625 292.078125 Z M 484.203125 292.078125 C 484.203125 289.589844 482.183594 287.570312 479.695312 287.570312 C 477.210938 287.570312 475.191406 289.589844 475.191406 292.078125 C 475.191406 294.5625 477.210938 296.582031 479.695312 296.582031 C 482.183594 296.582031 484.203125 294.5625 484.203125 292.078125 Z M 547.464844 333.515625 C 547.964844 333.617188 548.433594 333.296875 548.535156 332.808594 C 548.632812 332.320312 548.320312 331.839844 547.828125 331.738281 C 547.65625 331.703125 543.605469 330.902344 541.152344 333.34375 C 540.796875 333.699219 540.796875 334.273438 541.148438 334.628906 C 541.324219 334.804688 541.558594 334.894531 541.792969 334.894531 C 542.019531 334.894531 542.253906 334.808594 542.429688 334.628906 C 544.191406 332.882812 547.433594 333.507812 547.464844 333.515625 Z M 427.410156 292.078125 C 427.410156 288.59375 430.246094 285.757812 433.730469 285.757812 C 437.214844 285.757812 440.050781 288.59375 440.050781 292.078125 C 440.050781 295.5625 437.214844 298.398438 433.730469 298.398438 C 430.246094 298.398438 427.410156 295.5625 427.410156 292.078125 Z M 429.222656 292.078125 C 429.222656 294.5625 431.242188 296.582031 433.730469 296.582031 C 436.214844 296.582031 438.234375 294.5625 438.234375 292.078125 C 438.234375 289.589844 436.214844 287.570312 433.730469 287.570312 C 431.242188 287.570312 429.222656 289.59375 429.222656 292.078125 Z M 344.792969 257.074219 L 364.46875 257.074219 L 364.46875 237.402344 L 344.792969 237.402344 Z M 245.167969 211.105469 C 245.417969 211.105469 245.667969 211.003906 245.847656 210.800781 C 246.175781 210.421875 246.140625 209.847656 245.765625 209.519531 C 245.667969 209.433594 243.351562 207.457031 238.976562 207.695312 C 238.476562 207.722656 238.09375 208.152344 238.117188 208.652344 C 238.148438 209.152344 238.5625 209.523438 239.074219 209.507812 C 242.675781 209.304688 244.480469 210.808594 244.574219 210.886719 C 244.742188 211.035156 244.953125 211.105469 245.167969 211.105469 Z M 227.667969 220.726562 C 227.695312 220.726562 227.722656 220.726562 227.753906 220.722656 C 228.25 220.675781 228.617188 220.234375 228.574219 219.738281 L 228.226562 216.011719 C 228.183594 215.515625 227.746094 215.140625 227.242188 215.195312 C 226.742188 215.238281 226.375 215.679688 226.421875 216.179688 L 226.765625 219.902344 C 226.808594 220.375 227.207031 220.726562 227.667969 220.726562 Z M 290.359375 229.023438 C 290.402344 229.125 290.394531 229.238281 290.425781 229.34375 C 290.679688 229.542969 290.933594 229.746094 291.1875 229.945312 L 291.1875 152.367188 C 291.1875 149.96875 293.140625 148.015625 295.535156 148.015625 L 415.550781 148.015625 C 417.949219 148.015625 419.902344 149.96875 419.902344 152.367188 L 419.902344 272.382812 C 419.902344 274.78125 417.949219 276.730469 415.550781 276.730469 L 325.480469 276.730469 C 325.703125 277.332031 325.910156 277.941406 326.121094 278.546875 L 415.550781 278.546875 C 418.949219 278.546875 421.714844 275.78125 421.714844 272.382812 L 421.714844 152.367188 C 421.714844 148.96875 418.949219 146.203125 415.550781 146.203125 L 295.539062 146.203125 C 292.140625 146.203125 289.375 148.964844 289.375 152.367188 L 289.375 227.882812 C 289.796875 228.171875 290.160156 228.535156 290.359375 229.023438 Z M 236.132812 229.832031 C 235.632812 229.878906 235.269531 230.320312 235.316406 230.820312 C 235.359375 231.289062 235.757812 231.640625 236.21875 231.640625 C 236.246094 231.640625 236.277344 231.640625 236.304688 231.636719 C 238.617188 231.414062 240.332031 230.539062 241.007812 229.226562 C 241.371094 228.519531 241.613281 227.34375 240.699219 225.761719 C 237.386719 220.015625 237.4375 216.613281 237.441406 216.546875 C 237.460938 216.050781 237.074219 215.628906 236.574219 215.605469 C 236.089844 215.585938 235.652344 215.972656 235.628906 216.472656 C 235.621094 216.628906 235.503906 220.378906 239.132812 226.667969 C 239.535156 227.371094 239.625 227.949219 239.398438 228.394531 C 239.019531 229.125 237.769531 229.675781 236.132812 229.832031 Z M 373.257812 454.363281 L 412.382812 454.363281 C 412.882812 454.363281 413.289062 453.957031 413.289062 453.457031 C 413.289062 452.953125 412.882812 452.546875 412.382812 452.546875 L 373.257812 452.546875 C 372.757812 452.546875 372.351562 452.953125 372.351562 453.457031 C 372.351562 453.957031 372.757812 454.363281 373.257812 454.363281 Z M 253.6875 214.894531 C 253.660156 214.308594 253.792969 213.699219 254.089844 213.097656 C 254.09375 213.089844 254.09375 213.085938 254.097656 213.078125 C 254.132812 213.007812 254.148438 212.9375 254.191406 212.863281 C 254.46875 212.375 254.882812 211.941406 255.355469 211.550781 C 257.039062 210.167969 259.671875 209.410156 261.414062 209.304688 C 263.746094 209.164062 265.582031 209.945312 266.6875 211.484375 C 268.769531 211.460938 270.433594 212.199219 271.472656 213.59375 C 273.726562 213.640625 275.449219 214.605469 276.394531 216.328125 C 279.492188 216.503906 281.476562 218.082031 282.285156 221.035156 C 282.585938 222.136719 282.535156 223.070312 282.402344 223.746094 C 282.308594 224.226562 282.179688 224.5625 282.097656 224.742188 C 282.0625 224.824219 282.035156 224.878906 282.03125 224.890625 C 281.867188 225.195312 281.554688 225.363281 281.234375 225.363281 C 281.085938 225.363281 280.9375 225.328125 280.800781 225.253906 C 280.386719 225.027344 280.230469 224.527344 280.414062 224.101562 C 280.421875 224.078125 280.421875 224.050781 280.4375 224.027344 C 280.453125 223.992188 280.945312 223.007812 280.535156 221.515625 C 279.925781 219.285156 278.59375 218.242188 276.21875 218.132812 C 274.503906 218.046875 271.378906 219.34375 270.5625 220.777344 C 270.234375 221.351562 270.175781 221.898438 270.398438 222.316406 C 270.542969 222.597656 270.808594 222.792969 271.078125 222.816406 C 272.648438 222.953125 275.464844 222.035156 276.425781 221.667969 C 276.890625 221.488281 277.417969 221.722656 277.59375 222.191406 C 277.683594 222.421875 277.667969 222.664062 277.578125 222.875 C 277.484375 223.089844 277.308594 223.269531 277.070312 223.359375 C 277.007812 223.386719 276.316406 223.640625 275.386719 223.917969 C 274.867188 224.070312 274.285156 224.226562 273.671875 224.355469 C 272.722656 224.558594 271.726562 224.691406 270.914062 224.621094 C 270.035156 224.542969 269.222656 223.980469 268.789062 223.15625 C 268.632812 222.859375 268.550781 222.535156 268.503906 222.207031 C 268.476562 222 268.449219 221.792969 268.460938 221.582031 C 268.132812 221.65625 267.800781 221.722656 267.46875 221.773438 C 266.773438 221.886719 266.085938 221.941406 265.492188 221.890625 C 264.613281 221.8125 263.800781 221.25 263.371094 220.425781 C 263.300781 220.292969 263.269531 220.148438 263.222656 220.007812 C 263.179688 219.882812 263.121094 219.765625 263.097656 219.636719 C 262.902344 219.671875 262.714844 219.695312 262.523438 219.71875 C 261.972656 219.785156 261.4375 219.824219 260.964844 219.785156 C 260.085938 219.703125 259.273438 219.140625 258.84375 218.316406 C 258.816406 218.269531 258.808594 218.214844 258.789062 218.164062 C 258.675781 217.921875 258.601562 217.667969 258.558594 217.40625 C 258.160156 217.480469 257.761719 217.539062 257.371094 217.578125 C 256.933594 217.621094 256.503906 217.640625 256.117188 217.605469 C 255.257812 217.527344 254.464844 216.984375 254.027344 216.1875 C 254.019531 216.171875 254.003906 216.15625 253.996094 216.140625 C 253.792969 215.757812 253.710938 215.332031 253.6875 214.894531 Z M 265.140625 218.046875 C 264.816406 218.621094 264.757812 219.164062 264.976562 219.585938 C 265.121094 219.863281 265.390625 220.0625 265.65625 220.085938 C 266.625 220.167969 268.070312 219.851562 269.261719 219.507812 C 270.292969 218.109375 272.40625 216.996094 274.339844 216.539062 C 273.414062 215.535156 272.046875 215.339844 270.894531 215.398438 C 268.820312 215.523438 265.917969 216.683594 265.140625 218.046875 Z M 260.613281 215.9375 C 260.285156 216.511719 260.226562 217.058594 260.449219 217.476562 C 260.59375 217.753906 260.859375 217.953125 261.128906 217.976562 C 261.726562 218.027344 262.507812 217.925781 263.296875 217.761719 C 263.375 217.554688 263.449219 217.351562 263.566406 217.148438 C 264.546875 215.421875 266.992188 214.324219 269.085938 213.851562 C 268.246094 213.355469 267.246094 213.242188 266.367188 213.292969 C 264.289062 213.417969 261.390625 214.574219 260.613281 215.9375 Z M 255.601562 215.300781 C 255.75 215.578125 256.015625 215.777344 256.28125 215.800781 C 256.976562 215.859375 257.917969 215.707031 258.839844 215.492188 C 258.90625 215.339844 258.953125 215.191406 259.035156 215.042969 C 259.996094 213.355469 262.347656 212.265625 264.402344 211.773438 C 263.53125 211.1875 262.453125 211.0625 261.519531 211.113281 C 259.445312 211.238281 256.542969 212.394531 255.765625 213.761719 C 255.441406 214.335938 255.382812 214.882812 255.601562 215.300781 Z M 206.617188 236.125 L 209.453125 256.253906 C 209.988281 256.148438 210.300781 256.097656 210.328125 256.09375 C 210.542969 256.058594 210.765625 256.101562 210.953125 256.21875 C 210.960938 256.226562 211.097656 256.308594 211.308594 256.429688 L 208.289062 234.980469 C 208.257812 234.730469 208.121094 234.511719 207.917969 234.367188 C 207.738281 234.238281 207.519531 234.195312 207.296875 234.214844 C 207.269531 234.21875 207.242188 234.210938 207.214844 234.214844 C 207.160156 234.222656 202.125 235.183594 199.273438 231.996094 C 197.308594 229.800781 196.09375 226.308594 196.320312 223.5 C 196.40625 222.445312 196.742188 221.003906 197.859375 220.097656 C 200.789062 217.734375 204.589844 219.925781 204.75 220.023438 C 204.933594 220.128906 205.140625 220.152344 205.335938 220.125 L 205.414062 220.679688 C 206.460938 221.609375 207.964844 222.707031 209.238281 222.707031 C 209.496094 222.707031 209.742188 222.660156 209.972656 222.5625 C 211.253906 222.011719 211.484375 219.292969 210.65625 214.480469 C 211.804688 214.097656 213.914062 213.144531 216.246094 210.84375 C 218.449219 208.671875 219.144531 205.132812 219.355469 202.730469 C 221.242188 204.722656 224.753906 207.371094 229.765625 206.773438 C 235.371094 206.105469 237.800781 201.859375 238.722656 199.53125 C 242.101562 202.703125 245.824219 203.449219 248.441406 202.574219 C 248.378906 204.929688 248.238281 207.222656 248.105469 209.316406 C 247.886719 212.707031 247.699219 215.632812 247.90625 217.945312 C 248.070312 219.800781 248.621094 221.882812 249.207031 224.085938 C 250.742188 229.847656 252.476562 236.382812 248.597656 242.570312 C 245.933594 246.820312 241.714844 249.769531 236.726562 250.875 C 232.535156 251.800781 225.878906 251.835938 217.996094 246.730469 C 217.574219 246.460938 217.011719 246.582031 216.738281 247 C 216.46875 247.421875 216.589844 247.980469 217.007812 248.253906 C 222.855469 252.039062 228.097656 253.167969 232.273438 253.167969 C 234.109375 253.167969 235.734375 252.953125 237.117188 252.644531 C 238.585938 252.320312 239.988281 251.839844 241.316406 251.234375 L 241.925781 255.617188 C 241.964844 255.535156 241.988281 255.480469 241.988281 255.476562 C 242.136719 255 242.660156 254.71875 243.128906 254.867188 C 243.148438 254.875 243.351562 254.9375 243.675781 255.039062 L 243.023438 250.363281 C 244.421875 249.5625 245.699219 248.589844 246.863281 247.488281 C 250.480469 250.46875 257.265625 255.15625 264.410156 256.355469 C 264.890625 257.292969 266.117188 259.667969 267.875 262.9375 C 268.269531 263.675781 268.695312 264.464844 269.144531 265.289062 C 276.785156 279.335938 291.503906 304.800781 300.753906 310.621094 C 302.859375 311.945312 305.070312 312.941406 307.304688 313.613281 C 309.59375 314.304688 311.902344 314.652344 314.144531 314.652344 C 315.515625 314.652344 316.859375 314.511719 318.15625 314.25 C 318.949219 314.09375 319.71875 313.882812 320.46875 313.625 C 320.578125 313.585938 320.691406 313.546875 320.804688 313.507812 C 322.277344 312.96875 323.664062 312.25 324.910156 311.328125 C 327.316406 309.554688 328.976562 307.25 329.898438 304.605469 C 330.945312 301.617188 331.039062 298.1875 330.054688 294.53125 C 329.34375 291.894531 328.160156 289.144531 326.652344 286.339844 C 317.472656 269.308594 295.585938 250.285156 285.714844 242.222656 L 284.980469 243.992188 C 296.359375 253.378906 322.566406 276.464844 328.003906 294.050781 L 328.410156 294.296875 C 328.28125 294.5 328.234375 294.753906 328.300781 295.003906 C 329.953125 301.136719 328.324219 306.554688 323.832031 309.871094 C 318.09375 314.113281 309.207031 313.792969 301.71875 309.082031 C 290.65625 302.121094 270.460938 264.058594 266.503906 256.460938 C 266.085938 255.652344 265.84375 255.179688 265.820312 255.136719 C 265.808594 255.113281 265.789062 255.101562 265.773438 255.078125 C 265.742188 255.023438 265.703125 254.976562 265.660156 254.933594 C 265.621094 254.890625 265.582031 254.851562 265.535156 254.820312 C 265.488281 254.785156 265.441406 254.761719 265.390625 254.738281 C 265.332031 254.710938 265.273438 254.6875 265.210938 254.675781 C 265.1875 254.671875 265.167969 254.65625 265.144531 254.652344 C 264.699219 254.585938 264.253906 254.496094 263.808594 254.398438 C 257.589844 253.070312 251.464844 248.941406 248.109375 246.207031 C 248.84375 245.375 249.53125 244.492188 250.132812 243.535156 C 250.234375 243.371094 250.316406 243.207031 250.410156 243.046875 C 251.925781 244.097656 253.042969 245.375 253.0625 245.398438 C 253.386719 245.777344 253.960938 245.828125 254.339844 245.5 C 254.363281 245.480469 254.375 245.449219 254.398438 245.425781 C 254.480469 245.339844 254.542969 245.242188 254.585938 245.136719 C 254.703125 244.839844 254.667969 244.488281 254.445312 244.222656 C 254.375 244.140625 253.605469 243.238281 252.425781 242.277344 C 252.070312 241.984375 251.675781 241.691406 251.253906 241.410156 C 251.371094 241.148438 251.484375 240.882812 251.585938 240.621094 C 253.886719 234.667969 252.289062 228.617188 250.960938 223.617188 C 250.394531 221.496094 249.859375 219.488281 249.710938 217.785156 C 249.621094 216.789062 249.621094 215.632812 249.65625 214.371094 C 249.664062 214.003906 249.679688 213.625 249.699219 213.238281 C 249.726562 212.617188 249.757812 211.980469 249.796875 211.316406 C 249.820312 210.925781 249.84375 210.523438 249.871094 210.121094 C 249.886719 209.886719 249.898438 209.671875 249.914062 209.433594 C 250.070312 207.003906 250.234375 204.3125 250.273438 201.535156 C 252.074219 199.964844 253.121094 196.878906 251.253906 192.308594 C 252.386719 190.796875 255.582031 185.832031 252.613281 181.234375 C 249.769531 176.824219 244.699219 177.4375 242.070312 178.492188 C 239.011719 176.992188 219.035156 168.023438 201.078125 179.410156 C 187.789062 187.835938 190.289062 203.179688 193.359375 212.347656 C 193.558594 212.941406 193.761719 213.519531 193.960938 214.058594 C 194.871094 216.519531 195.742188 218.347656 196.183594 219.234375 C 195.238281 220.253906 194.648438 221.648438 194.511719 223.355469 C 194.242188 226.671875 195.613281 230.628906 197.917969 233.203125 C 200.664062 236.265625 204.773438 236.296875 206.617188 236.125 Z M 364.46875 217.847656 C 364.46875 215.019531 364.722656 212.859375 365.234375 211.367188 C 365.742188 209.875 367.765625 208.34375 371.300781 206.773438 L 372.832031 206.066406 C 380.292969 202.765625 384.023438 196.875 384.023438 188.394531 C 384.023438 182.972656 382.097656 178.34375 378.25 174.492188 C 374.402344 170.644531 369.808594 168.71875 364.46875 168.71875 L 344.792969 168.71875 C 333.25 168.71875 326.691406 175.277344 325.121094 188.390625 L 335.015625 188.390625 C 335.488281 181.792969 338.746094 178.496094 344.792969 178.496094 L 354.570312 178.496094 C 357.320312 178.496094 359.65625 179.480469 361.578125 181.441406 C 363.503906 183.40625 364.464844 185.722656 364.464844 188.390625 C 364.464844 192.003906 362.699219 194.871094 359.164062 196.992188 L 357.515625 197.933594 C 349.035156 203.039062 344.792969 209.679688 344.792969 217.84375 L 344.792969 227.621094 L 364.464844 227.621094 L 364.464844 217.847656 Z M 238.234375 236.027344 C 239.039062 236.113281 241.488281 236.367188 241.710938 237.976562 C 241.820312 238.742188 241.589844 239.53125 241.042969 240.246094 C 239.730469 241.976562 236.882812 243.050781 234.644531 243.351562 C 234.207031 243.410156 233.742188 243.4375 233.261719 243.4375 C 230.777344 243.4375 227.902344 242.664062 226.738281 241.21875 C 226.175781 240.523438 226.027344 239.691406 226.320312 238.882812 C 227.242188 236.320312 235.195312 235.714844 238.234375 236.027344 Z M 228.152344 240.078125 C 229 241.132812 232.097656 241.855469 234.402344 241.550781 C 236.578125 241.261719 238.765625 240.25 239.597656 239.152344 C 239.828125 238.851562 239.933594 238.566406 239.921875 238.304688 C 239.601562 238.03125 238.296875 237.746094 236.28125 237.746094 C 235.316406 237.746094 234.183594 237.8125 232.921875 237.976562 C 229.605469 238.40625 228.167969 239.207031 228.023438 239.503906 C 227.960938 239.675781 227.957031 239.839844 228.152344 240.078125 Z M 242.308594 214.03125 C 241.8125 214.074219 241.445312 214.515625 241.488281 215.015625 L 241.835938 218.738281 C 241.878906 219.210938 242.273438 219.5625 242.734375 219.5625 C 242.765625 219.5625 242.792969 219.5625 242.820312 219.558594 C 243.320312 219.515625 243.6875 219.070312 243.640625 218.574219 L 243.296875 214.851562 C 243.25 214.351562 242.8125 213.984375 242.308594 214.03125 Z M 178.257812 317.4375 L 167.527344 356.351562 L 167.511719 356.414062 C 167.441406 356.8125 166.878906 359.808594 165.417969 363.167969 C 164.140625 366.105469 162.183594 369.304688 159.25 371.261719 C 157.414062 372.484375 152.6875 375.128906 146.226562 375.128906 C 144.445312 375.128906 142.527344 374.910156 140.507812 374.425781 C 139.585938 374.203125 138.644531 373.925781 137.679688 373.578125 C 135.699219 372.859375 133.632812 371.863281 131.5 370.503906 C 121.074219 363.84375 96.691406 326.515625 94.59375 323.285156 C 92.699219 322.097656 90.738281 320.921875 88.800781 319.761719 C 81.46875 315.367188 74.542969 311.214844 72.199219 307.046875 C 68.480469 300.429688 67.1875 291.867188 67.898438 288.644531 C 68.261719 286.988281 69.367188 286.003906 69.972656 285.574219 C 70.183594 284.691406 70.800781 283.488281 72.160156 283.046875 C 73.484375 282.609375 74.566406 282.820312 75.234375 283.070312 C 75.664062 282.6875 76.339844 282.25 77.238281 282.15625 C 78.359375 282.046875 79.488281 282.496094 80.578125 283.511719 C 81.125 284.019531 82.398438 285.988281 83.832031 288.34375 C 83.5625 287.628906 83.34375 287.023438 83.203125 286.605469 C 82.523438 284.628906 83.132812 283.542969 83.558594 283.074219 C 84.175781 282.386719 85.140625 282.132812 86.199219 282.378906 C 88.027344 282.804688 89.84375 284.503906 91.910156 287.726562 C 93.28125 289.871094 95.328125 294.539062 95.992188 296.082031 C 97.757812 296.273438 103.308594 297.039062 107.421875 299.457031 C 112.511719 302.449219 113.792969 307.984375 114.046875 309.457031 L 119.242188 313.957031 L 121.097656 315.5625 L 137.859375 330.082031 L 139.417969 331.433594 L 166.136719 354.582031 L 176.511719 316.957031 C 176.644531 316.472656 177.152344 316.195312 177.625 316.320312 C 178.105469 316.453125 178.390625 316.953125 178.257812 317.4375 Z M 165.636719 356.546875 L 112.605469 310.609375 C 112.4375 310.460938 112.328125 310.253906 112.300781 310.03125 C 112.292969 309.972656 111.496094 303.957031 106.503906 301.019531 C 102.011719 298.378906 95.367188 297.84375 95.300781 297.835938 C 94.960938 297.8125 94.667969 297.597656 94.535156 297.285156 C 94.507812 297.222656 91.921875 291.109375 90.378906 288.703125 C 88.636719 285.980469 87.089844 284.449219 85.789062 284.144531 C 85.601562 284.101562 85.136719 284.027344 84.90625 284.285156 C 84.703125 284.511719 84.597656 285.085938 84.917969 286.015625 C 85.773438 288.511719 89.585938 298.21875 89.621094 298.316406 C 89.796875 298.761719 89.597656 299.265625 89.167969 299.46875 C 88.734375 299.671875 88.222656 299.507812 87.988281 299.09375 C 85.140625 294.042969 80.277344 285.707031 79.34375 284.835938 C 78.652344 284.191406 78.007812 283.894531 77.425781 283.957031 C 77.058594 283.996094 76.753906 284.171875 76.539062 284.34375 C 76.476562 284.382812 76.445312 284.457031 76.398438 284.515625 C 75.605469 285.488281 76.625 289.054688 79.488281 295.207031 C 79.78125 295.839844 80.125 296.535156 80.480469 297.234375 C 81.324219 298.902344 82.226562 300.566406 82.640625 301.332031 C 82.898438 301.804688 83.28125 302.515625 82.539062 302.964844 L 82.0625 302.160156 L 82.023438 302.09375 L 81.613281 301.40625 L 82.070312 302.1875 L 81.257812 302.585938 L 81.050781 302.199219 C 80.453125 301.097656 78.863281 298.164062 77.875 296.042969 C 75.835938 291.65625 73.988281 287.308594 74.410156 284.703125 C 74.21875 284.648438 73.988281 284.601562 73.703125 284.601562 C 73.417969 284.601562 73.089844 284.648438 72.722656 284.765625 C 72.09375 284.972656 71.855469 285.582031 71.761719 285.941406 C 71.675781 286.738281 71.765625 287.773438 71.964844 288.917969 C 72.394531 291.378906 73.351562 294.359375 74.332031 296.703125 C 74.765625 297.738281 75.273438 298.773438 75.78125 299.738281 C 76.988281 302.042969 78.167969 303.882812 78.1875 303.910156 C 78.457031 304.328125 78.335938 304.890625 77.917969 305.164062 C 77.765625 305.261719 77.59375 305.308594 77.425781 305.308594 C 77.128906 305.308594 76.839844 305.164062 76.664062 304.894531 C 76.566406 304.742188 74.195312 301.070312 72.660156 297.40625 C 71.539062 294.722656 70.355469 291.074219 70.011719 288.148438 C 69.867188 288.398438 69.742188 288.691406 69.667969 289.03125 C 69.125 291.488281 70.0625 299.539062 73.78125 306.15625 C 75.890625 309.902344 82.613281 313.933594 89.734375 318.203125 C 91.738281 319.40625 93.765625 320.621094 95.726562 321.855469 C 95.839844 321.925781 95.933594 322.019531 96.003906 322.128906 C 96.265625 322.53125 122.136719 362.367188 132.476562 368.96875 C 145.242188 377.121094 155.425781 371.628906 158.242188 369.75 C 163.25 366.414062 165.203125 358.589844 165.636719 356.546875 Z M 456.710938 285.757812 C 460.199219 285.757812 463.035156 288.59375 463.035156 292.078125 C 463.035156 295.5625 460.199219 298.398438 456.710938 298.398438 C 453.230469 298.398438 450.394531 295.5625 450.394531 292.078125 C 450.394531 288.59375 453.230469 285.757812 456.710938 285.757812 Z M 456.710938 287.570312 C 454.226562 287.570312 452.207031 289.59375 452.207031 292.078125 C 452.207031 294.5625 454.226562 296.585938 456.710938 296.585938 C 459.199219 296.585938 461.21875 294.5625 461.21875 292.078125 C 461.21875 289.59375 459.195312 287.570312 456.710938 287.570312 Z M 405.859375 433.921875 C 405.859375 433.417969 405.453125 433.011719 404.953125 433.011719 L 365.828125 433.011719 C 365.328125 433.011719 364.921875 433.417969 364.921875 433.921875 C 364.921875 434.421875 365.328125 434.828125 365.828125 434.828125 L 404.953125 434.828125 C 405.453125 434.828125 405.859375 434.421875 405.859375 433.921875 Z M 370.78125 447.851562 L 409.90625 447.851562 C 410.40625 447.851562 410.8125 447.445312 410.8125 446.945312 C 410.8125 446.441406 410.40625 446.035156 409.90625 446.035156 L 370.78125 446.035156 C 370.28125 446.035156 369.875 446.441406 369.875 446.945312 C 369.875 447.445312 370.28125 447.851562 370.78125 447.851562 Z M 421.835938 351.71875 C 422.433594 351.023438 423.613281 350.003906 425.449219 349.875 C 427.496094 349.730469 428.824219 350.363281 429.570312 350.894531 C 430.375 350.28125 431.902344 349.453125 434.269531 349.453125 C 436.035156 349.453125 437.386719 350.085938 438.324219 350.757812 C 438.640625 345.746094 439.824219 335.449219 441.222656 332.089844 C 442.328125 329.433594 444.75 328.453125 446.488281 328.421875 C 448.078125 328.421875 449.40625 329.082031 449.929688 330.222656 C 450.660156 331.800781 450.039062 336.597656 449.085938 343.203125 C 448.828125 344.96875 448.601562 346.5625 448.476562 347.699219 C 448.183594 350.417969 447.59375 356.972656 447.207031 361.351562 C 448.226562 359.574219 449.414062 357.59375 450.265625 356.457031 C 451.414062 354.925781 452.945312 354.15625 454.386719 354.382812 C 455.5625 354.574219 456.480469 355.425781 456.910156 356.714844 C 457.703125 359.089844 455.996094 363.484375 454.347656 367.730469 L 453.78125 369.195312 C 452.929688 371.433594 452.753906 374.320312 452.570312 377.375 C 452.4375 379.585938 452.300781 381.871094 451.878906 383.929688 C 451.0625 387.925781 448.832031 390.65625 447.90625 391.648438 L 449.535156 397.191406 C 450.941406 397.460938 452.15625 398.398438 452.679688 399.761719 L 463.75 428.882812 L 476.039062 422.554688 C 475.644531 422.777344 475.472656 423.253906 475.636719 423.679688 L 476 424.617188 L 464.398438 430.589844 L 476.992188 463.703125 C 482.773438 461.996094 487.5625 460.3125 489.589844 459.582031 L 490.234375 461.234375 C 490.238281 461.246094 490.25 461.257812 490.253906 461.269531 C 488.242188 461.996094 483.445312 463.679688 477.636719 465.402344 L 487.070312 490.210938 C 487.421875 491.132812 487.296875 492.167969 486.738281 492.980469 C 486.175781 493.792969 485.253906 494.277344 484.265625 494.277344 L 481.863281 494.277344 C 482.160156 494.277344 482.441406 494.128906 482.609375 493.886719 C 482.78125 493.640625 482.816406 493.324219 482.710938 493.046875 L 482.488281 492.464844 L 484.265625 492.464844 C 484.664062 492.464844 485.019531 492.277344 485.246094 491.949219 C 485.46875 491.625 485.515625 491.222656 485.378906 490.851562 L 450.984375 400.40625 C 450.636719 399.496094 449.753906 398.886719 448.78125 398.886719 L 446.90625 398.886719 L 446.4375 397.660156 C 446.304688 397.308594 445.964844 397.074219 445.589844 397.074219 L 447.613281 397.074219 L 446.015625 391.648438 C 445.917969 391.316406 446.015625 390.960938 446.269531 390.726562 C 446.296875 390.699219 449.203125 387.960938 450.101562 383.566406 C 450.5 381.632812 450.628906 379.410156 450.761719 377.265625 C 450.945312 374.207031 451.136719 371.050781 452.085938 368.550781 L 452.65625 367.074219 C 453.972656 363.683594 455.773438 359.042969 455.1875 357.289062 C 455.039062 356.835938 454.726562 356.277344 454.097656 356.171875 C 453.347656 356.046875 452.441406 356.578125 451.71875 357.542969 C 450.027344 359.796875 446.765625 365.894531 446.730469 365.953125 C 446.730469 365.960938 446.722656 365.964844 446.722656 365.96875 C 446.71875 365.972656 446.71875 365.976562 446.71875 365.980469 C 445.71875 367.714844 443.773438 369.328125 441.707031 371.035156 C 438.984375 373.289062 435.898438 375.84375 434.578125 379.0625 C 432.3125 384.601562 433.679688 389.492188 433.691406 389.539062 C 433.832031 390.019531 433.554688 390.523438 433.074219 390.664062 C 432.988281 390.6875 432.90625 390.699219 432.820312 390.699219 C 432.425781 390.699219 432.066406 390.441406 431.949219 390.042969 C 431.886719 389.820312 430.398438 384.492188 432.902344 378.375 C 434.390625 374.738281 437.664062 372.03125 440.550781 369.640625 C 442.425781 368.089844 444.183594 366.621094 445.050781 365.207031 C 445.207031 363.414062 446.25 351.449219 446.675781 347.503906 C 446.800781 346.351562 447.035156 344.734375 447.292969 342.941406 C 447.875 338.925781 448.84375 332.195312 448.285156 330.980469 C 448.070312 330.519531 447.347656 330.214844 446.523438 330.234375 C 445.332031 330.257812 443.667969 330.941406 442.898438 332.789062 C 441.46875 336.21875 440.054688 349.320312 440.054688 352.816406 C 440.054688 353.214844 439.796875 353.566406 439.414062 353.683594 C 439.03125 353.800781 438.621094 353.652344 438.398438 353.324219 C 438.34375 353.242188 436.949219 351.265625 434.273438 351.265625 C 431.503906 351.265625 430.328125 352.625 430.28125 352.683594 C 430.28125 352.6875 430.277344 352.6875 430.277344 352.6875 C 428.0625 355.417969 427.757812 361.828125 429.289062 363.644531 C 429.703125 364.132812 430.269531 364.542969 430.914062 364.859375 C 430.925781 364.863281 430.941406 364.871094 430.953125 364.875 C 432.820312 365.785156 435.304688 365.917969 436.496094 364.929688 C 437.191406 364.355469 437.488281 363.117188 437.230469 361.855469 C 437.039062 360.90625 436.480469 359.789062 435.484375 359.492188 C 435.003906 359.351562 434.730469 358.84375 434.871094 358.363281 C 435.015625 357.886719 435.515625 357.613281 436 357.753906 C 437.476562 358.195312 438.628906 359.625 439.011719 361.492188 C 439.410156 363.453125 438.886719 365.304688 437.652344 366.328125 C 436.753906 367.074219 435.460938 367.425781 434.078125 367.425781 C 432.949219 367.425781 431.757812 367.191406 430.675781 366.746094 C 429.050781 368.054688 427.128906 368.804688 425.261719 368.804688 C 424.867188 368.804688 424.484375 368.773438 424.101562 368.710938 C 423.152344 368.546875 422.292969 368.199219 421.554688 367.683594 C 420.761719 368.269531 419.285156 369.148438 417.507812 369.148438 C 417.476562 369.148438 417.449219 369.140625 417.417969 369.140625 C 417.101562 372.175781 416.324219 382.734375 420.042969 389.230469 C 420.125 389.375 420.164062 389.539062 420.160156 389.707031 C 420.128906 390.960938 420.246094 393.574219 420.511719 397.074219 L 418.683594 397.074219 C 418.445312 393.800781 418.324219 391.28125 418.34375 389.910156 C 414.394531 382.75 415.292969 371.753906 415.628906 368.773438 C 413.644531 367.933594 412.238281 365.902344 411.800781 363.179688 C 411.234375 359.621094 412.410156 354.925781 416.316406 352.460938 C 418.582031 351.023438 420.742188 351.378906 421.835938 351.71875 Z M 421.335938 364.777344 C 421.960938 365.933594 423.050781 366.695312 424.398438 366.921875 C 425.878906 367.167969 427.519531 366.722656 428.960938 365.761719 C 428.574219 365.472656 428.203125 365.167969 427.902344 364.8125 C 425.808594 362.332031 426.132812 355.800781 428.363281 352.257812 C 427.863281 351.941406 426.972656 351.570312 425.578125 351.683594 C 423.8125 351.808594 422.972656 353.203125 422.9375 353.261719 C 422.933594 353.269531 422.925781 353.273438 422.921875 353.28125 C 422.917969 353.289062 422.917969 353.292969 422.917969 353.300781 C 420.390625 357.242188 419.757812 361.855469 421.335938 364.777344 Z M 419.863281 353.226562 C 419.113281 353.226562 418.214844 353.402344 417.285156 353.992188 C 414.09375 356.003906 413.136719 360.019531 413.59375 362.894531 C 413.960938 365.203125 415.167969 366.835938 416.816406 367.265625 C 418.195312 367.550781 419.5 366.882812 420.257812 366.375 C 420.078125 366.136719 419.890625 365.910156 419.746094 365.640625 C 417.964844 362.359375 418.417969 357.632812 420.816406 353.332031 C 420.539062 353.273438 420.230469 353.226562 419.863281 353.226562 Z M 368.304688 441.339844 L 407.429688 441.339844 C 407.933594 441.339844 408.335938 440.933594 408.335938 440.429688 C 408.335938 439.929688 407.933594 439.523438 407.429688 439.523438 L 368.304688 439.523438 C 367.804688 439.523438 367.398438 439.929688 367.398438 440.429688 C 367.398438 440.933594 367.804688 441.339844 368.304688 441.339844 Z M 368.304688 441.339844 " fill-opacity="1" fill-rule="nonzero"/></g></svg>