<svg xmlns="http://www.w3.org/2000/svg" xmlns:xlink="http://www.w3.org/1999/xlink" width="900" zoomAndPan="magnify" viewBox="0 0 675 599.999999" height="800" preserveAspectRatio="xMidYMid meet" version="1.0"><defs><g/><clipPath id="3a4fe94bb0"><path d="M 35.144531 66.910156 L 603 66.910156 L 603 533.765625 L 35.144531 533.765625 Z M 35.144531 66.910156 " clip-rule="nonzero"/></clipPath><clipPath id="d1f2805e34"><path d="M 319.035156 66.910156 C 162.246094 66.910156 35.144531 171.417969 35.144531 300.335938 C 35.144531 429.253906 162.246094 533.765625 319.035156 533.765625 C 475.824219 533.765625 602.925781 429.253906 602.925781 300.335938 C 602.925781 171.417969 475.824219 66.910156 319.035156 66.910156 Z M 319.035156 66.910156 " clip-rule="nonzero"/></clipPath><clipPath id="6f6f36bfda"><path d="M 355.980469 64.335938 L 625.980469 64.335938 L 625.980469 352 L 355.980469 352 Z M 355.980469 64.335938 " clip-rule="nonzero"/></clipPath><clipPath id="7a6d3b429e"><path d="M 355.980469 64.335938 L 619 64.335938 L 619 352 L 355.980469 352 Z M 355.980469 64.335938 " clip-rule="nonzero"/></clipPath><clipPath id="a8c4c9308d"><path d="M 533 87 L 625.980469 87 L 625.980469 352 L 533 352 Z M 533 87 " clip-rule="nonzero"/></clipPath></defs><g clip-path="url(#3a4fe94bb0)"><g clip-path="url(#d1f2805e34)"><path fill="#ec6300" d="M 35.144531 66.910156 L 602.296875 66.910156 L 602.296875 533.765625 L 35.144531 533.765625 Z M 35.144531 66.910156 " fill-opacity="1" fill-rule="nonzero"/></g></g><g clip-path="url(#6f6f36bfda)"><path fill="#ecebeb" d="M 618.101562 87.695312 L 518.96875 74.523438 L 518.96875 64.386719 L 376.335938 64.386719 L 376.335938 319.824219 L 356.429688 319.824219 C 356.179688 319.824219 355.980469 320.023438 355.980469 320.273438 C 355.980469 320.523438 356.179688 320.722656 356.429688 320.722656 L 452.886719 320.722656 C 452.792969 321.015625 452.703125 321.308594 452.617188 321.597656 C 452.613281 321.605469 452.613281 321.609375 452.609375 321.613281 C 452.433594 322.199219 452.257812 322.777344 452.09375 323.339844 C 452.09375 323.34375 452.09375 323.34375 452.09375 323.347656 C 452.015625 323.613281 451.9375 323.878906 451.863281 324.140625 C 451.851562 324.171875 451.84375 324.203125 451.835938 324.238281 C 451.761719 324.492188 451.691406 324.746094 451.621094 324.992188 C 451.617188 325.003906 451.617188 325.015625 451.613281 325.023438 C 451.546875 325.257812 451.484375 325.484375 451.425781 325.710938 C 451.414062 325.746094 451.40625 325.785156 451.394531 325.820312 C 451.335938 326.042969 451.28125 326.257812 451.226562 326.46875 C 451.214844 326.511719 451.203125 326.550781 451.195312 326.59375 C 451.140625 326.808594 451.085938 327.019531 451.039062 327.21875 C 450.863281 327.945312 450.730469 328.578125 450.652344 329.078125 C 450.589844 329.453125 450.5625 329.753906 450.570312 329.964844 C 450.574219 330.035156 450.582031 330.09375 450.59375 330.144531 C 450.953125 331.726562 454.125 336.988281 456.429688 338.140625 C 456.789062 338.320312 457.332031 338.527344 457.988281 338.753906 C 458.566406 338.949219 459.238281 339.15625 459.953125 339.371094 C 460.179688 339.4375 460.410156 339.503906 460.644531 339.570312 C 460.867188 339.632812 461.09375 339.699219 461.320312 339.761719 C 464.714844 340.710938 468.460938 341.597656 468.460938 341.597656 C 468.460938 341.597656 471.269531 339.222656 470.980469 337.78125 C 470.695312 336.339844 465.023438 330.902344 465.023438 330.902344 C 465.023438 330.902344 506.789062 346.507812 513.640625 347.96875 C 520.488281 349.429688 525.988281 349.652344 529.582031 346.398438 C 532.339844 343.898438 534.558594 341.136719 534.839844 337.753906 C 537.351562 337.414062 538.816406 336.625 538.816406 336.625 C 538.816406 336.625 539.3125 335.125 539.453125 333.632812 C 539.492188 333.199219 539.503906 332.769531 539.460938 332.375 C 539.316406 330.996094 534.25 327.980469 531.214844 326.429688 C 531.207031 326.421875 531.203125 326.414062 531.199219 326.402344 L 618.101562 352 L 626.300781 352 L 626.300781 87.695312 Z M 471.992188 311.589844 C 470.449219 310.433594 468.191406 308.835938 466.585938 308.097656 C 463.921875 306.871094 459.3125 306.152344 459.3125 306.152344 C 459.3125 306.152344 458.808594 306.65625 458.113281 307.65625 C 458.027344 307.78125 457.9375 307.914062 457.84375 308.054688 C 457.199219 309.039062 456.441406 310.398438 455.78125 312.132812 C 455.761719 312.183594 455.738281 312.242188 455.71875 312.296875 C 455.703125 312.34375 455.683594 312.382812 455.667969 312.429688 C 455.644531 312.488281 455.621094 312.554688 455.597656 312.617188 C 455.582031 312.664062 455.5625 312.710938 455.546875 312.761719 C 455.523438 312.824219 455.5 312.890625 455.472656 312.957031 C 455.453125 313.011719 455.433594 313.066406 455.414062 313.121094 C 455.390625 313.191406 455.363281 313.261719 455.339844 313.332031 C 455.316406 313.390625 455.296875 313.445312 455.277344 313.503906 C 455.25 313.574219 455.226562 313.652344 455.199219 313.726562 C 455.175781 313.789062 455.15625 313.847656 455.132812 313.910156 C 455.105469 313.988281 455.078125 314.066406 455.050781 314.144531 C 455.027344 314.210938 455.003906 314.277344 454.980469 314.339844 C 454.953125 314.417969 454.929688 314.496094 454.902344 314.574219 C 454.875 314.648438 454.847656 314.726562 454.824219 314.800781 C 454.796875 314.875 454.769531 314.953125 454.742188 315.03125 C 454.714844 315.109375 454.6875 315.191406 454.660156 315.277344 C 454.632812 315.351562 454.609375 315.429688 454.582031 315.503906 C 454.550781 315.59375 454.519531 315.6875 454.488281 315.777344 C 454.464844 315.847656 454.441406 315.917969 454.417969 315.992188 C 454.382812 316.09375 454.347656 316.195312 454.3125 316.296875 C 454.292969 316.363281 454.269531 316.429688 454.246094 316.496094 C 454.207031 316.613281 454.167969 316.734375 454.128906 316.851562 C 454.109375 316.90625 454.09375 316.960938 454.074219 317.015625 C 454.023438 317.171875 453.972656 317.328125 453.917969 317.488281 C 453.914062 317.507812 453.90625 317.523438 453.902344 317.542969 C 453.78125 317.910156 453.660156 318.285156 453.535156 318.664062 C 453.53125 318.675781 453.53125 318.683594 453.527344 318.695312 C 453.46875 318.871094 453.414062 319.046875 453.359375 319.222656 C 453.347656 319.257812 453.335938 319.289062 453.324219 319.324219 C 453.277344 319.480469 453.226562 319.636719 453.175781 319.792969 C 453.171875 319.804688 453.171875 319.8125 453.167969 319.824219 L 385.28125 319.824219 L 385.28125 73.335938 L 510.019531 73.335938 L 510.019531 221.144531 C 503.414062 227.945312 497.023438 236.164062 497.023438 236.164062 C 497.023438 236.164062 488.558594 247.054688 481.378906 256.578125 C 481.378906 256.582031 481.378906 256.582031 481.375 256.582031 C 480.867188 257.257812 480.363281 257.925781 479.871094 258.582031 C 479.867188 258.59375 479.859375 258.601562 479.851562 258.609375 C 479.359375 259.265625 478.878906 259.910156 478.410156 260.539062 C 478.410156 260.542969 478.410156 260.542969 478.40625 260.546875 C 475.523438 264.421875 473.152344 267.703125 472.097656 269.375 C 468.28125 275.441406 467.679688 285.675781 471.421875 293.742188 C 474.105469 299.515625 487.285156 313.890625 489.421875 316.207031 C 489.371094 316.253906 489.335938 316.308594 489.3125 316.371094 L 473.109375 310.019531 C 473.109375 310.019531 472.660156 310.621094 471.992188 311.589844 Z M 471.992188 311.589844 " fill-opacity="1" fill-rule="nonzero"/></g><g clip-path="url(#7a6d3b429e)"><path fill="#323231" d="M 539.460938 332.375 C 539.503906 332.769531 539.492188 333.199219 539.453125 333.632812 C 538.304688 333.875 536.574219 334.152344 534.453125 334.253906 C 533.628906 331.351562 532.21875 328.371094 531.210938 326.429688 C 534.25 327.980469 539.316406 330.992188 539.460938 332.375 Z M 557.039062 256.277344 C 557.488281 257.34375 557.859375 258.238281 558.132812 258.894531 L 561.898438 258.144531 L 561.898438 256.277344 C 561.3125 256.050781 560.886719 255.488281 560.871094 254.816406 L 560.847656 253.773438 C 560.828125 253.070312 561.273438 252.464844 561.898438 252.238281 L 561.898438 251.625 C 560.910156 250.46875 560.261719 249.625 560.261719 249.625 C 560.261719 249.625 559.046875 249.597656 557.039062 249.550781 Z M 556.140625 249.527344 C 555.527344 249.511719 554.855469 249.496094 554.140625 249.476562 C 554.867188 251.164062 555.542969 252.742188 556.140625 254.144531 Z M 562.800781 257.964844 L 566.921875 257.140625 C 566.804688 256.988281 566.792969 256.773438 566.910156 256.609375 C 566.914062 256.605469 566.914062 256.605469 566.917969 256.605469 C 566.785156 256.503906 566.652344 256.398438 566.523438 256.289062 L 562.800781 256.378906 Z M 594.746094 251.703125 C 594.457031 252.125 594.15625 252.574219 593.839844 253.035156 L 594.746094 253.015625 Z M 533.507812 258.148438 C 533.464844 257.957031 533.421875 257.765625 533.375 257.566406 C 530.964844 259.277344 527.308594 260 527.308594 260 L 512.742188 276.113281 C 512.742188 276.113281 523.441406 277.460938 533.507812 279.140625 Z M 558.773438 225.792969 C 558.71875 225.792969 558.664062 225.785156 558.617188 225.765625 C 558.121094 226.308594 557.570312 226.878906 557.039062 227.375 L 557.039062 237.074219 C 558.382812 237.414062 559.332031 237.652344 559.753906 237.746094 C 559.753906 237.746094 560.613281 237.871094 561.898438 238.070312 L 561.898438 224.042969 C 561.042969 223.894531 560.355469 223.746094 560.355469 223.746094 C 560.355469 223.746094 559.867188 224.351562 559.171875 225.144531 C 559.253906 225.300781 559.234375 225.496094 559.113281 225.636719 C 559.023438 225.742188 558.898438 225.792969 558.773438 225.792969 Z M 562.800781 224.183594 L 562.800781 238.210938 C 566.507812 238.804688 572.382812 239.820312 573.230469 240.464844 C 574.480469 241.414062 580.238281 247.773438 580.992188 248.273438 C 581.230469 248.433594 581.816406 248.648438 582.507812 248.882812 C 582.589844 248.648438 582.84375 248.523438 583.078125 248.601562 L 583.101562 248.609375 C 583.597656 247.359375 584.078125 246.152344 584.429688 245.292969 C 584.8125 244.355469 586.070312 242.996094 587.589844 241.625 L 587.589844 203.976562 L 571.789062 200.714844 C 571.957031 201.105469 572.050781 201.464844 572.058594 201.773438 C 572.128906 205.148438 570.191406 211.035156 570.191406 211.035156 C 570.191406 211.035156 577.371094 219.363281 576.152344 219.507812 C 575.503906 219.585938 571.460938 216.667969 567.226562 213.453125 L 565.238281 216.78125 C 565.238281 216.78125 565.882812 223.671875 565.238281 224.175781 C 564.9375 224.410156 563.863281 224.332031 562.800781 224.183594 Z M 534.410156 181.253906 L 556.140625 185.738281 L 556.140625 107.277344 L 534.410156 104.210938 Z M 534.410156 279.292969 C 541.199219 280.445312 547.542969 281.734375 549.90625 282.851562 C 555.855469 285.65625 555.855469 291.945312 553.722656 295.648438 C 553.070312 296.785156 550.59375 299.910156 547.476562 303.695312 L 556.140625 306.105469 L 556.140625 273.386719 C 554.484375 273.9375 553.207031 274.308594 552.488281 274.429688 C 547.769531 275.214844 542.664062 274.371094 540.640625 269.882812 C 540.152344 268.792969 539.773438 267.953125 539.476562 267.304688 C 537.203125 267.863281 535.609375 268.007812 535.375 267.425781 C 534.871094 266.183594 534.683594 264.847656 534.410156 263.039062 Z M 562.800781 307.957031 L 587.589844 314.847656 L 587.589844 260.546875 C 584.398438 262.355469 572.09375 267.492188 562.800781 270.996094 Z M 618.101562 87.695312 L 618.101562 352 L 531.199219 326.402344 C 530.796875 325.632812 530.460938 325.027344 530.253906 324.664062 C 530.269531 324.65625 530.285156 324.652344 530.300781 324.640625 C 530.5 324.492188 530.539062 324.210938 530.390625 324.011719 L 530.332031 323.929688 C 532.023438 321.972656 540.535156 312.09375 546.847656 304.457031 L 556.46875 307.128906 C 556.507812 307.140625 556.546875 307.148438 556.589844 307.148438 C 556.6875 307.148438 556.78125 307.113281 556.863281 307.054688 C 556.972656 306.96875 557.039062 306.835938 557.039062 306.695312 L 557.039062 273.082031 C 558.46875 272.59375 560.117188 271.996094 561.902344 271.332031 L 561.902344 308.296875 C 561.902344 308.5 562.035156 308.675781 562.230469 308.730469 L 587.921875 315.871094 C 587.960938 315.882812 588 315.886719 588.042969 315.886719 C 588.140625 315.886719 588.234375 315.855469 588.316406 315.796875 C 588.425781 315.710938 588.492188 315.578125 588.492188 315.4375 L 588.492188 259.921875 C 589.828125 258.753906 591.582031 256.324219 593.160156 254.03125 L 594.746094 253.996094 L 594.746094 256.585938 L 608.738281 261.179688 L 608.738281 223.03125 L 594.746094 220.957031 L 594.746094 229.636719 C 594.3125 229.4375 593.855469 229.324219 593.378906 229.324219 C 593.132812 229.324219 592.929688 229.527344 592.929688 229.777344 C 592.929688 229.789062 592.9375 229.800781 592.9375 229.8125 C 590.707031 230.191406 588.964844 233.386719 588.964844 237.277344 C 588.964844 238.304688 589.085938 239.277344 589.304688 240.167969 C 589.03125 240.390625 588.757812 240.613281 588.492188 240.839844 L 588.492188 203.609375 C 588.492188 203.398438 588.34375 203.214844 588.132812 203.167969 L 571.214844 199.679688 C 568.65625 195.726562 560.894531 189.761719 557.199219 189.640625 C 555.691406 189.59375 553.890625 190.183594 552.167969 190.988281 C 552.167969 190.992188 552.164062 190.992188 552.164062 190.992188 C 551.125 191.476562 550.117188 192.035156 549.214844 192.582031 C 549.210938 192.585938 549.203125 192.589844 549.199219 192.59375 C 547.933594 193.359375 546.886719 194.089844 546.28125 194.53125 L 534.050781 192.007812 C 533.917969 191.980469 533.78125 192.011719 533.675781 192.097656 C 533.570312 192.183594 533.511719 192.3125 533.511719 192.445312 L 533.511719 203.574219 C 533.460938 203.644531 533.40625 203.714844 533.359375 203.785156 C 530.773438 207.703125 530.335938 212.539062 533.511719 216.148438 L 533.511719 216.367188 C 533.488281 216.351562 533.464844 216.335938 533.441406 216.320312 C 533.402344 216.289062 533.363281 216.261719 533.324219 216.234375 C 533.105469 216.074219 532.886719 215.921875 532.664062 215.769531 C 532.636719 215.75 532.609375 215.730469 532.582031 215.710938 C 532.347656 215.550781 532.113281 215.394531 531.875 215.246094 C 531.859375 215.234375 531.84375 215.222656 531.824219 215.210938 C 531.578125 215.054688 531.328125 214.898438 531.078125 214.75 C 531.070312 214.746094 531.0625 214.742188 531.054688 214.738281 C 530.796875 214.582031 530.539062 214.433594 530.277344 214.289062 C 527.257812 212.628906 524.175781 211.753906 521.441406 212.339844 C 518.664062 212.9375 514.296875 216.742188 510.023438 221.144531 L 510.023438 73.335938 L 385.28125 73.335938 L 385.28125 319.824219 L 453.167969 319.824219 C 453.171875 319.8125 453.171875 319.804688 453.175781 319.792969 C 453.167969 319.816406 453.164062 319.839844 453.15625 319.859375 C 453.066406 320.148438 452.972656 320.4375 452.886719 320.722656 C 452.792969 321.015625 452.703125 321.308594 452.617188 321.597656 C 452.703125 321.308594 452.792969 321.015625 452.886719 320.722656 L 356.429688 320.722656 C 356.179688 320.722656 355.980469 320.523438 355.980469 320.273438 C 355.980469 320.023438 356.179688 319.824219 356.429688 319.824219 L 376.335938 319.824219 L 376.335938 64.386719 L 518.96875 64.386719 L 518.96875 74.523438 Z M 557.039062 106.886719 C 557.039062 106.664062 556.875 106.472656 556.652344 106.441406 L 534.023438 103.246094 C 533.894531 103.230469 533.761719 103.265625 533.664062 103.351562 C 533.566406 103.4375 533.507812 103.5625 533.507812 103.691406 L 533.507812 181.621094 C 533.507812 181.835938 533.660156 182.019531 533.867188 182.0625 L 556.5 186.734375 C 556.527344 186.738281 556.558594 186.742188 556.589844 186.742188 C 556.691406 186.742188 556.792969 186.707031 556.875 186.640625 C 556.976562 186.554688 557.039062 186.425781 557.039062 186.292969 Z M 588.492188 111.328125 C 588.492188 111.105469 588.328125 110.914062 588.105469 110.882812 L 562.414062 107.253906 C 562.285156 107.238281 562.152344 107.277344 562.054688 107.359375 C 561.957031 107.445312 561.902344 107.570312 561.902344 107.699219 L 561.902344 187.480469 C 561.902344 187.695312 562.050781 187.878906 562.257812 187.921875 L 587.949219 193.226562 C 587.980469 193.230469 588.011719 193.234375 588.042969 193.234375 C 588.144531 193.234375 588.246094 193.199219 588.328125 193.132812 C 588.429688 193.046875 588.492188 192.917969 588.492188 192.785156 Z M 593.601562 245.886719 C 593.929688 245.570312 594.242188 245.277344 594.535156 245.003906 C 594.355469 245.074219 594.167969 245.132812 593.980469 245.167969 C 593.84375 245.425781 593.71875 245.667969 593.601562 245.886719 Z M 534.410156 202.488281 C 537.4375 199.269531 543.367188 196.132812 545.171875 195.222656 L 534.410156 193 Z M 562.800781 187.113281 L 587.589844 192.230469 L 587.589844 111.71875 L 562.800781 108.21875 Z M 556.140625 228.140625 C 555.699219 228.46875 555.308594 228.683594 555.019531 228.699219 C 553.605469 228.769531 549.300781 224.605469 549.300781 224.605469 L 544.105469 228.101562 C 544.460938 228.734375 544.832031 229.425781 545.21875 230.167969 C 545.226562 230.183594 545.234375 230.199219 545.242188 230.210938 C 545.617188 230.9375 546.007812 231.707031 546.40625 232.515625 C 546.433594 232.570312 546.460938 232.621094 546.484375 232.671875 C 546.597656 232.898438 546.707031 233.125 546.820312 233.355469 C 546.839844 233.394531 546.859375 233.4375 546.882812 233.480469 C 547.015625 233.757812 547.152344 234.035156 547.289062 234.316406 C 547.289062 234.320312 547.289062 234.320312 547.289062 234.320312 C 547.351562 234.453125 547.417969 234.585938 547.480469 234.71875 C 550.917969 235.539062 553.929688 236.292969 556.140625 236.847656 Z M 520.363281 302.246094 L 514.773438 303.035156 C 514.792969 303.1875 514.742188 303.34375 514.613281 303.449219 C 514.605469 303.453125 514.597656 303.453125 514.59375 303.460938 L 516.25 305.789062 C 516.433594 305.65625 516.683594 305.6875 516.835938 305.851562 L 520.476562 302.484375 C 520.46875 302.476562 520.457031 302.472656 520.449219 302.464844 C 520.394531 302.398438 520.371094 302.324219 520.363281 302.246094 Z M 458.921875 339.054688 C 458.589844 338.953125 458.277344 338.851562 457.988281 338.753906 C 458.277344 338.851562 458.589844 338.953125 458.921875 339.054688 Z M 458.921875 339.054688 C 459.25 339.160156 459.597656 339.265625 459.953125 339.371094 C 459.597656 339.265625 459.25 339.160156 458.921875 339.054688 Z M 462 339.949219 C 461.773438 339.886719 461.546875 339.824219 461.320312 339.761719 C 461.546875 339.824219 461.773438 339.886719 462 339.949219 Z M 471.992188 311.589844 C 470.449219 310.433594 468.191406 308.835938 466.585938 308.097656 C 463.921875 306.871094 459.3125 306.152344 459.3125 306.152344 C 459.3125 306.152344 461.578125 306.507812 463.847656 307.140625 C 462.71875 308.515625 461.042969 310.753906 460.101562 312.996094 C 458.589844 316.597656 454.5 329.136719 454.5 329.136719 C 454.5 329.136719 456.644531 332.953125 458.15625 334.324219 C 459.425781 335.46875 468.027344 338.03125 470.78125 338.832031 C 470.164062 340.152344 468.460938 341.597656 468.460938 341.597656 C 468.460938 341.597656 465.195312 340.824219 462 339.949219 C 465.195312 340.824219 468.460938 341.597656 468.460938 341.597656 C 468.460938 341.597656 471.269531 339.222656 470.980469 337.78125 C 470.695312 336.339844 465.023438 330.902344 465.023438 330.902344 C 465.023438 330.902344 464.910156 326.863281 466.257812 322.144531 C 467.222656 318.773438 470.3125 314.023438 471.992188 311.589844 Z M 454.246094 316.496094 C 454.207031 316.613281 454.167969 316.734375 454.128906 316.851562 C 454.167969 316.734375 454.207031 316.613281 454.246094 316.496094 Z M 454.3125 316.296875 C 454.292969 316.363281 454.269531 316.429688 454.246094 316.496094 C 454.269531 316.429688 454.292969 316.363281 454.3125 316.296875 Z M 454.128906 316.855469 C 454.109375 316.90625 454.09375 316.960938 454.074219 317.015625 C 454.09375 316.960938 454.109375 316.90625 454.128906 316.855469 Z M 454.417969 315.992188 C 454.382812 316.09375 454.347656 316.195312 454.3125 316.296875 C 454.347656 316.195312 454.382812 316.09375 454.417969 315.992188 Z M 451.425781 325.710938 C 451.414062 325.746094 451.40625 325.785156 451.394531 325.820312 C 451.40625 325.785156 451.417969 325.746094 451.425781 325.710938 Z M 454.660156 315.277344 C 454.6875 315.195312 454.714844 315.109375 454.742188 315.03125 C 454.714844 315.109375 454.6875 315.191406 454.660156 315.277344 Z M 454.074219 317.015625 C 454.023438 317.171875 453.972656 317.328125 453.917969 317.488281 C 453.972656 317.328125 454.023438 317.171875 454.074219 317.015625 Z M 454.824219 314.800781 C 454.796875 314.875 454.769531 314.953125 454.742188 315.03125 C 454.769531 314.953125 454.796875 314.875 454.824219 314.800781 Z M 454.417969 315.992188 C 454.441406 315.917969 454.464844 315.847656 454.488281 315.777344 C 454.464844 315.847656 454.441406 315.917969 454.417969 315.992188 Z M 454.582031 315.503906 C 454.550781 315.59375 454.519531 315.6875 454.488281 315.777344 C 454.519531 315.6875 454.550781 315.59375 454.582031 315.503906 Z M 451.226562 326.46875 C 451.214844 326.511719 451.203125 326.550781 451.195312 326.59375 C 451.203125 326.550781 451.214844 326.511719 451.226562 326.46875 Z M 451.394531 325.820312 C 451.335938 326.042969 451.28125 326.257812 451.226562 326.46875 C 451.28125 326.257812 451.335938 326.042969 451.394531 325.820312 Z M 451.039062 327.21875 C 451.085938 327.019531 451.140625 326.808594 451.195312 326.59375 C 451.140625 326.808594 451.085938 327.019531 451.039062 327.21875 Z M 453.917969 317.488281 C 453.914062 317.507812 453.90625 317.527344 453.902344 317.542969 C 453.90625 317.527344 453.914062 317.507812 453.917969 317.488281 Z M 453.175781 319.792969 C 453.226562 319.636719 453.277344 319.480469 453.324219 319.324219 C 453.277344 319.480469 453.226562 319.636719 453.175781 319.792969 Z M 453.902344 317.542969 C 453.78125 317.914062 453.660156 318.285156 453.535156 318.664062 C 453.660156 318.285156 453.78125 317.914062 453.902344 317.542969 Z M 453.527344 318.695312 C 453.53125 318.6875 453.53125 318.675781 453.535156 318.664062 C 453.53125 318.675781 453.53125 318.6875 453.527344 318.695312 Z M 453.359375 319.222656 C 453.347656 319.257812 453.335938 319.292969 453.324219 319.324219 C 453.335938 319.292969 453.347656 319.257812 453.359375 319.222656 Z M 453.359375 319.222656 C 453.414062 319.046875 453.46875 318.871094 453.527344 318.695312 C 453.46875 318.871094 453.414062 319.046875 453.359375 319.222656 Z M 454.660156 315.277344 C 454.632812 315.351562 454.605469 315.429688 454.582031 315.503906 C 454.605469 315.429688 454.632812 315.351562 454.660156 315.277344 Z M 452.617188 321.597656 C 452.613281 321.605469 452.613281 321.609375 452.609375 321.613281 C 452.613281 321.609375 452.613281 321.605469 452.617188 321.597656 Z M 452.609375 321.613281 C 452.433594 322.199219 452.257812 322.777344 452.09375 323.339844 C 452.257812 322.777344 452.433594 322.199219 452.609375 321.613281 Z M 455.667969 312.429688 C 455.683594 312.382812 455.703125 312.34375 455.71875 312.296875 C 455.699219 312.34375 455.683594 312.382812 455.667969 312.429688 Z M 457.84375 308.054688 C 457.199219 309.039062 456.441406 310.398438 455.78125 312.132812 C 455.761719 312.183594 455.738281 312.242188 455.71875 312.296875 C 455.738281 312.242188 455.761719 312.183594 455.78125 312.132812 C 456.441406 310.398438 457.199219 309.039062 457.84375 308.054688 Z M 452.09375 323.339844 C 452.09375 323.34375 452.09375 323.34375 452.09375 323.347656 C 452.09375 323.34375 452.09375 323.34375 452.09375 323.339844 Z M 455.597656 312.617188 C 455.621094 312.554688 455.644531 312.488281 455.667969 312.429688 C 455.644531 312.488281 455.621094 312.554688 455.597656 312.617188 Z M 451.863281 324.140625 C 451.9375 323.878906 452.011719 323.613281 452.09375 323.347656 C 452.011719 323.613281 451.9375 323.878906 451.863281 324.140625 Z M 451.613281 325.023438 C 451.617188 325.015625 451.617188 325.003906 451.621094 324.992188 C 451.617188 325.003906 451.617188 325.015625 451.613281 325.023438 Z M 451.425781 325.710938 C 451.484375 325.484375 451.546875 325.257812 451.613281 325.023438 C 451.546875 325.257812 451.488281 325.484375 451.425781 325.710938 Z M 451.621094 324.992188 C 451.691406 324.746094 451.761719 324.492188 451.835938 324.238281 C 451.761719 324.492188 451.691406 324.746094 451.621094 324.992188 Z M 454.824219 314.800781 C 454.847656 314.726562 454.875 314.648438 454.898438 314.578125 C 454.875 314.648438 454.847656 314.726562 454.824219 314.800781 Z M 451.835938 324.238281 C 451.84375 324.203125 451.851562 324.171875 451.863281 324.140625 C 451.851562 324.171875 451.84375 324.203125 451.835938 324.238281 Z M 455.132812 313.910156 C 455.105469 313.988281 455.078125 314.066406 455.050781 314.144531 C 455.078125 314.066406 455.105469 313.988281 455.132812 313.910156 Z M 455.132812 313.910156 C 455.15625 313.847656 455.175781 313.789062 455.199219 313.726562 C 455.175781 313.789062 455.15625 313.847656 455.132812 313.910156 Z M 455.050781 314.144531 C 455.027344 314.210938 455.003906 314.277344 454.980469 314.34375 C 455.003906 314.277344 455.027344 314.210938 455.050781 314.144531 Z M 454.980469 314.34375 C 454.953125 314.417969 454.925781 314.496094 454.898438 314.574219 C 454.925781 314.496094 454.953125 314.417969 454.980469 314.34375 Z M 455.597656 312.617188 C 455.582031 312.664062 455.5625 312.710938 455.546875 312.761719 C 455.5625 312.710938 455.582031 312.664062 455.597656 312.617188 Z M 455.277344 313.503906 C 455.25 313.574219 455.222656 313.652344 455.199219 313.726562 C 455.222656 313.652344 455.25 313.574219 455.277344 313.503906 Z M 455.277344 313.503906 C 455.296875 313.445312 455.316406 313.390625 455.339844 313.332031 C 455.316406 313.390625 455.296875 313.445312 455.277344 313.503906 Z M 455.546875 312.761719 C 455.523438 312.824219 455.496094 312.890625 455.472656 312.957031 C 455.496094 312.890625 455.523438 312.824219 455.546875 312.761719 Z M 455.414062 313.121094 C 455.433594 313.066406 455.453125 313.011719 455.472656 312.957031 C 455.453125 313.011719 455.433594 313.066406 455.414062 313.121094 Z M 455.414062 313.121094 C 455.390625 313.191406 455.363281 313.261719 455.339844 313.332031 C 455.363281 313.261719 455.390625 313.191406 455.414062 313.121094 Z M 455.414062 313.121094 " fill-opacity="1" fill-rule="nonzero"/></g><g clip-path="url(#a8c4c9308d)"><path fill="#00cc93" d="M 562.257812 187.921875 L 587.949219 193.226562 C 587.980469 193.230469 588.011719 193.234375 588.042969 193.234375 C 588.144531 193.234375 588.246094 193.199219 588.324219 193.132812 C 588.429688 193.046875 588.492188 192.917969 588.492188 192.785156 L 588.492188 111.328125 C 588.492188 111.105469 588.328125 110.914062 588.105469 110.882812 L 562.414062 107.253906 C 562.285156 107.238281 562.152344 107.277344 562.054688 107.359375 C 561.957031 107.445312 561.902344 107.570312 561.902344 107.699219 L 561.902344 187.480469 C 561.898438 187.695312 562.050781 187.878906 562.257812 187.921875 Z M 562.800781 108.21875 L 587.589844 111.71875 L 587.589844 192.230469 L 562.800781 187.113281 Z M 588.191406 260.171875 C 588.289062 260.097656 588.386719 260.011719 588.492188 259.921875 L 588.492188 315.4375 C 588.492188 315.578125 588.425781 315.710938 588.3125 315.796875 C 588.234375 315.855469 588.140625 315.886719 588.042969 315.886719 C 588 315.886719 587.960938 315.882812 587.921875 315.871094 L 562.230469 308.730469 C 562.035156 308.675781 561.898438 308.5 561.898438 308.296875 L 561.898438 271.332031 C 562.195312 271.222656 562.496094 271.109375 562.800781 270.996094 L 562.800781 307.957031 L 587.589844 314.847656 L 587.589844 260.546875 C 587.855469 260.398438 588.058594 260.269531 588.191406 260.171875 Z M 561.898438 256.277344 C 561.3125 256.050781 560.886719 255.488281 560.871094 254.816406 L 560.847656 253.773438 C 560.828125 253.070312 561.273438 252.464844 561.898438 252.238281 L 561.898438 251.625 C 562.042969 251.789062 562.195312 251.964844 562.351562 252.140625 C 563.515625 253.46875 565.03125 255.070312 566.523438 256.289062 L 562.800781 256.378906 L 562.800781 257.964844 L 561.898438 258.144531 Z M 587.589844 241.625 L 587.589844 203.976562 L 571.789062 200.714844 C 571.648438 200.390625 571.449219 200.042969 571.214844 199.679688 L 588.132812 203.167969 C 588.339844 203.214844 588.492188 203.398438 588.492188 203.609375 L 588.492188 240.839844 C 588.183594 241.101562 587.882812 241.363281 587.589844 241.625 Z M 562.800781 238.210938 C 562.480469 238.160156 562.183594 238.113281 561.898438 238.070312 L 561.898438 224.042969 C 562.1875 224.09375 562.492188 224.140625 562.800781 224.183594 Z M 556.140625 273.386719 C 556.425781 273.292969 556.726562 273.191406 557.039062 273.082031 L 557.039062 306.695312 C 557.039062 306.835938 556.972656 306.96875 556.859375 307.054688 C 556.78125 307.113281 556.6875 307.148438 556.589844 307.148438 C 556.546875 307.148438 556.507812 307.140625 556.46875 307.128906 L 546.847656 304.457031 C 547.058594 304.199219 547.269531 303.949219 547.476562 303.695312 L 556.140625 306.105469 Z M 534.054688 216.777344 C 533.871094 216.640625 533.691406 216.503906 533.507812 216.367188 L 533.507812 216.148438 C 533.769531 216.445312 534.046875 216.730469 534.355469 217.007812 C 534.304688 216.96875 534.25 216.929688 534.199219 216.890625 C 534.152344 216.851562 534.101562 216.816406 534.054688 216.777344 Z M 556.140625 228.140625 C 556.421875 227.925781 556.726562 227.664062 557.039062 227.375 L 557.039062 237.074219 C 556.757812 237.003906 556.457031 236.929688 556.140625 236.847656 Z M 534.050781 192.007812 L 546.277344 194.53125 C 545.917969 194.792969 545.710938 194.953125 545.710938 194.953125 C 545.710938 194.953125 545.511719 195.050781 545.171875 195.222656 L 534.410156 193 L 534.410156 202.488281 C 534.066406 202.851562 533.765625 203.214844 533.507812 203.574219 L 533.507812 192.449219 C 533.507812 192.3125 533.570312 192.183594 533.675781 192.097656 C 533.78125 192.011719 533.917969 191.980469 534.050781 192.007812 Z M 556.140625 249.527344 C 556.453125 249.535156 556.753906 249.542969 557.039062 249.550781 L 557.039062 256.277344 C 556.765625 255.628906 556.464844 254.914062 556.140625 254.144531 Z M 533.507812 258.148438 C 533.960938 260.132812 534.210938 261.714844 534.410156 263.039062 L 534.410156 279.292969 C 534.109375 279.242188 533.808594 279.191406 533.507812 279.140625 Z M 556.652344 106.441406 L 534.023438 103.246094 C 533.894531 103.230469 533.761719 103.265625 533.664062 103.351562 C 533.566406 103.4375 533.507812 103.5625 533.507812 103.691406 L 533.507812 181.621094 C 533.507812 181.835938 533.660156 182.019531 533.867188 182.0625 L 556.496094 186.734375 C 556.527344 186.738281 556.558594 186.742188 556.589844 186.742188 C 556.691406 186.742188 556.792969 186.707031 556.875 186.640625 C 556.976562 186.554688 557.039062 186.425781 557.039062 186.292969 L 557.039062 106.886719 C 557.039062 106.664062 556.875 106.472656 556.652344 106.441406 Z M 556.140625 185.738281 L 534.410156 181.253906 L 534.410156 104.210938 L 556.140625 107.277344 Z M 618.101562 87.695312 L 618.101562 352 L 626.300781 352 L 626.300781 87.695312 Z M 624.683594 242.816406 L 619.953125 242.816406 L 619.953125 235.054688 L 624.683594 235.054688 Z M 604.683594 252.726562 L 604.707031 253.703125 L 604.429688 253.773438 L 602.007812 254.363281 L 602.003906 253.828125 L 594.746094 253.996094 L 593.160156 254.03125 L 587.816406 254.15625 L 587.855469 255.792969 L 586.625 255.820312 C 586.621094 255.804688 586.625 255.789062 586.617188 255.773438 C 586.5625 255.644531 586.453125 255.546875 586.320312 255.511719 C 585.707031 255.339844 584.621094 254.902344 584.304688 254.453125 C 583.941406 253.9375 583.300781 253.097656 582.847656 252.507812 C 583.292969 252.472656 583.859375 252.425781 584.386719 252.378906 C 585.015625 252.320312 585.609375 252.027344 586.019531 251.582031 L 587.753906 251.542969 L 587.792969 253.175781 L 593.839844 253.039062 L 594.746094 253.015625 L 601.992188 252.847656 L 601.988281 252.191406 Z M 595.582031 230.167969 L 598.0625 230.609375 C 599.21875 230.609375 600.253906 231.464844 600.972656 232.8125 C 600.972656 232.878906 600.988281 232.945312 601.019531 233.007812 C 601.644531 234.171875 601.988281 235.691406 601.988281 237.277344 C 601.988281 238.773438 601.679688 240.222656 601.117188 241.359375 C 601.109375 241.375 601.109375 241.390625 601.105469 241.40625 C 601.085938 241.453125 601.074219 241.503906 601.074219 241.550781 C 600.550781 242.617188 599.832031 243.398438 599.011719 243.742188 C 598.707031 243.871094 598.390625 243.949219 598.0625 243.949219 L 596.902344 244.15625 L 595.582031 244.390625 C 597.171875 243.09375 598.246094 240.433594 598.246094 237.277344 C 598.246094 234.125 597.171875 231.460938 595.582031 230.167969 Z M 589.304688 240.167969 C 589.085938 239.28125 588.964844 238.304688 588.964844 237.277344 C 588.964844 233.386719 590.707031 230.191406 592.9375 229.8125 C 592.957031 230.042969 593.144531 230.226562 593.378906 230.226562 C 595.527344 230.226562 597.34375 233.457031 597.34375 237.277344 C 597.34375 241.101562 595.527344 244.332031 593.378906 244.332031 C 593.144531 244.332031 592.957031 244.511719 592.9375 244.742188 C 592.347656 244.644531 591.792969 244.347656 591.296875 243.894531 C 591.082031 243.699219 590.882812 243.472656 590.695312 243.222656 C 590.449219 242.90625 590.226562 242.546875 590.023438 242.148438 C 589.890625 241.878906 589.765625 241.59375 589.652344 241.292969 C 589.519531 240.933594 589.402344 240.5625 589.304688 240.167969 Z M 602.886719 237.277344 C 602.886719 235.726562 602.578125 234.230469 602.019531 233.007812 L 602.480469 233.007812 C 603.484375 233.007812 604.296875 233.820312 604.296875 234.820312 L 604.296875 239.589844 C 604.296875 240.59375 603.484375 241.40625 602.480469 241.40625 L 602.082031 241.40625 C 602.601562 240.210938 602.886719 238.761719 602.886719 237.277344 Z M 602.886719 237.277344 " fill-opacity="1" fill-rule="nonzero"/></g><path fill="#00cc93" d="M 483.246094 258.269531 L 480.292969 262.355469 C 479.585938 261.6875 478.949219 261.074219 478.40625 260.546875 C 478.410156 260.542969 478.410156 260.542969 478.414062 260.539062 C 478.878906 259.910156 479.363281 259.265625 479.851562 258.609375 C 479.859375 258.601562 479.867188 258.59375 479.871094 258.582031 C 480.363281 257.925781 480.867188 257.257812 481.375 256.582031 C 481.378906 256.582031 481.378906 256.582031 481.378906 256.578125 C 481.929688 257.085938 482.5625 257.660156 483.246094 258.269531 Z M 498.566406 274.417969 L 501.105469 270.019531 C 499.019531 269.421875 497.109375 268.675781 495.507812 267.796875 C 492.730469 266.28125 488.839844 263.144531 485.53125 260.285156 L 482.535156 264.429688 C 486.214844 267.757812 490.792969 271.539062 493.992188 272.914062 C 495.410156 273.527344 496.96875 274.019531 498.566406 274.417969 Z M 503.972656 270.726562 L 501.476562 275.046875 C 507.292969 276.113281 512.742188 276.113281 512.742188 276.113281 L 516.96875 271.4375 C 512.734375 271.878906 508.132812 271.585938 503.972656 270.726562 Z M 547.289062 234.320312 C 547.257812 234.429688 547.222656 234.542969 547.191406 234.652344 C 547.289062 234.675781 547.382812 234.699219 547.480469 234.71875 C 547.417969 234.585938 547.351562 234.453125 547.289062 234.320312 Z M 544.40625 228.644531 C 544.667969 229.125 544.9375 229.632812 545.21875 230.167969 C 544.9375 229.632812 544.667969 229.121094 544.40625 228.644531 Z M 544.40625 228.644531 C 544.304688 228.460938 544.203125 228.277344 544.105469 228.101562 C 544.203125 228.277344 544.304688 228.460938 544.40625 228.644531 Z M 545.960938 231.625 C 545.714844 231.136719 545.476562 230.664062 545.242188 230.210938 C 545.476562 230.664062 545.714844 231.136719 545.960938 231.625 Z M 545.960938 231.625 C 546.109375 231.914062 546.257812 232.210938 546.40625 232.515625 C 546.257812 232.210938 546.109375 231.917969 545.960938 231.625 Z M 542.441406 233.550781 C 543.566406 230.613281 544.105469 228.105469 544.105469 228.101562 L 541.617188 229.777344 L 536.226562 222.4375 C 536.03125 224.121094 535.648438 226.011719 534.953125 228.101562 C 534.515625 229.421875 534.082031 230.617188 533.671875 231.683594 C 536.628906 232.269531 539.605469 232.910156 542.441406 233.550781 Z M 534.355469 217.007812 C 534.304688 216.96875 534.25 216.929688 534.199219 216.890625 C 534.25 216.929688 534.300781 216.972656 534.351562 217.011719 Z M 556.140625 254.144531 C 555.542969 252.742188 554.867188 251.160156 554.140625 249.476562 C 550.238281 249.378906 544.929688 249.242188 539.597656 249.089844 C 539.597656 249.089844 539.074219 253.15625 533.375 257.566406 C 533.421875 257.765625 533.464844 257.957031 533.507812 258.148438 C 533.960938 260.132812 534.210938 261.714844 534.410156 263.039062 C 534.683594 264.847656 534.871094 266.183594 535.375 267.425781 C 535.609375 268.007812 537.207031 267.863281 539.476562 267.304688 C 538.550781 265.277344 538.453125 265.109375 538.453125 265.109375 C 538.453125 265.109375 549.941406 260.53125 555.96875 259.328125 L 558.132812 258.894531 C 557.859375 258.238281 557.488281 257.34375 557.039062 256.277344 C 556.765625 255.625 556.464844 254.914062 556.140625 254.144531 Z M 533.507812 216.367188 C 533.488281 216.351562 533.464844 216.335938 533.441406 216.320312 C 533.644531 216.46875 533.851562 216.621094 534.054688 216.777344 C 533.871094 216.640625 533.691406 216.503906 533.507812 216.367188 Z M 499.980469 251.429688 C 501.140625 251.261719 506.609375 249.320312 511.957031 246.707031 C 507.15625 245.023438 503.449219 242.234375 503.339844 238.949219 C 503.167969 233.898438 507.1875 232.382812 510.320312 230.179688 C 512.503906 228.644531 519.503906 229.214844 527.589844 230.566406 C 529.464844 226.246094 532.054688 218.925781 530.277344 214.289062 C 527.257812 212.632812 524.175781 211.753906 521.441406 212.339844 C 518.664062 212.9375 514.296875 216.742188 510.019531 221.144531 C 503.414062 227.945312 497.023438 236.164062 497.023438 236.164062 C 497.023438 236.164062 494.453125 245.257812 494.453125 247.617188 C 494.453125 248.316406 498.21875 251.683594 499.980469 251.429688 Z M 551.246094 191.445312 C 550.535156 191.8125 549.847656 192.199219 549.214844 192.582031 C 549.847656 192.199219 550.535156 191.8125 551.246094 191.445312 Z M 551.390625 191.367188 C 551.34375 191.390625 551.292969 191.417969 551.246094 191.445312 C 551.292969 191.417969 551.34375 191.390625 551.390625 191.367188 Z M 552.164062 190.992188 C 551.90625 191.113281 551.648438 191.238281 551.390625 191.367188 C 551.648438 191.238281 551.90625 191.113281 552.164062 190.992188 Z M 549.195312 192.59375 C 549.042969 192.6875 548.890625 192.78125 548.742188 192.871094 C 548.890625 192.78125 549.042969 192.6875 549.195312 192.59375 Z M 548.742188 192.871094 C 548.703125 192.894531 548.671875 192.917969 548.632812 192.941406 C 548.671875 192.917969 548.703125 192.894531 548.742188 192.871094 Z M 570.191406 211.035156 C 570.191406 211.035156 572.128906 205.148438 572.058594 201.773438 C 572.050781 201.464844 571.957031 201.105469 571.789062 200.714844 C 571.648438 200.390625 571.453125 200.042969 571.214844 199.679688 C 568.65625 195.726562 560.894531 189.761719 557.195312 189.640625 C 555.691406 189.59375 553.890625 190.183594 552.167969 190.992188 C 553.191406 191.929688 554.628906 193.351562 554.628906 193.929688 C 554.628906 194.820312 552.550781 196.996094 552.550781 196.996094 L 548.34375 193.125 C 547.464844 193.6875 546.742188 194.195312 546.277344 194.53125 C 545.917969 194.792969 545.710938 194.953125 545.710938 194.953125 C 545.710938 194.953125 553.894531 202.996094 557.773438 206.082031 C 558.472656 206.640625 559.480469 207.441406 560.667969 208.375 C 562.566406 209.867188 564.921875 211.703125 567.226562 213.453125 C 571.460938 216.667969 575.503906 219.585938 576.152344 219.507812 C 577.371094 219.363281 570.191406 211.035156 570.191406 211.035156 Z M 548.34375 193.125 C 548.4375 193.0625 548.535156 193.003906 548.632812 192.941406 C 548.535156 193.003906 548.4375 193.0625 548.34375 193.125 Z M 535.929688 251.691406 C 535.402344 252.855469 531.355469 256.882812 526.285156 257.34375 C 524.972656 257.453125 522.570312 255.851562 520.855469 254.207031 C 519.445312 252.851562 518.953125 251.9375 518.96875 251.652344 C 518.988281 251.21875 519.894531 249.972656 521.195312 248.433594 C 520.859375 248.417969 520.546875 248.398438 520.265625 248.382812 C 520.203125 248.378906 520.140625 248.371094 520.082031 248.367188 C 518.972656 249.722656 518.097656 250.984375 518.066406 251.609375 C 518.019531 252.578125 519.402344 254.058594 520.234375 254.855469 C 522.023438 256.574219 524.507812 258.246094 526.164062 258.246094 C 526.234375 258.246094 526.300781 258.246094 526.367188 258.238281 C 532.148438 257.714844 536.988281 252.792969 536.886719 251.457031 L 536.871094 251.238281 L 536.6875 251.117188 C 536.167969 250.765625 534.910156 249.914062 533.40625 248.902344 C 532.835938 248.886719 532.273438 248.867188 531.714844 248.847656 C 533.496094 250.050781 535.132812 251.152344 535.929688 251.691406 Z M 514.6875 302.816406 L 502.648438 287.660156 C 502.492188 287.46875 502.210938 287.433594 502.015625 287.589844 C 501.820312 287.742188 501.789062 288.027344 501.941406 288.222656 L 513.980469 303.375 C 514.070312 303.488281 514.203125 303.546875 514.335938 303.546875 C 514.425781 303.546875 514.515625 303.515625 514.59375 303.460938 C 514.597656 303.453125 514.605469 303.453125 514.613281 303.449219 C 514.742188 303.34375 514.792969 303.1875 514.773438 303.035156 C 514.761719 302.957031 514.738281 302.882812 514.6875 302.816406 Z M 530.332031 323.929688 L 516.871094 305.882812 C 516.859375 305.871094 516.847656 305.863281 516.835938 305.851562 C 516.683594 305.6875 516.433594 305.65625 516.25 305.789062 C 516.246094 305.789062 516.242188 305.789062 516.242188 305.792969 C 516.042969 305.941406 516 306.222656 516.148438 306.421875 L 529.671875 324.546875 C 529.757812 324.667969 529.894531 324.730469 530.03125 324.730469 C 530.109375 324.730469 530.183594 324.703125 530.253906 324.664062 C 530.269531 324.65625 530.285156 324.652344 530.300781 324.640625 C 530.5 324.492188 530.539062 324.210938 530.390625 324.011719 Z M 508.578125 335.773438 C 502.1875 331.214844 490.195312 316.398438 490.074219 316.25 C 489.917969 316.054688 489.636719 316.027344 489.441406 316.183594 C 489.433594 316.1875 489.429688 316.199219 489.421875 316.207031 C 489.371094 316.253906 489.335938 316.308594 489.3125 316.371094 C 489.253906 316.515625 489.269531 316.683594 489.375 316.816406 C 489.871094 317.429688 501.566406 331.878906 508.054688 336.503906 C 508.132812 336.5625 508.222656 336.589844 508.3125 336.589844 C 508.453125 336.589844 508.59375 336.523438 508.679688 336.402344 C 508.824219 336.199219 508.777344 335.917969 508.578125 335.773438 Z M 532.390625 292.558594 C 532.3125 292.617188 524.535156 298.640625 520.519531 301.832031 C 520.390625 301.933594 520.339844 302.09375 520.363281 302.246094 C 520.371094 302.324219 520.398438 302.398438 520.449219 302.464844 C 520.457031 302.472656 520.46875 302.476562 520.476562 302.484375 C 520.5625 302.578125 520.679688 302.632812 520.800781 302.632812 C 520.898438 302.632812 521 302.601562 521.082031 302.535156 C 525.09375 299.347656 532.867188 293.328125 532.945312 293.269531 C 533.140625 293.117188 533.175781 292.832031 533.023438 292.636719 C 532.871094 292.441406 532.589844 292.40625 532.390625 292.558594 Z M 532.390625 292.558594 " fill-opacity="1" fill-rule="nonzero"/><path fill="#323231" d="M 594.746094 229.636719 C 594.3125 229.4375 593.855469 229.324219 593.378906 229.324219 C 593.128906 229.324219 592.929688 229.527344 592.929688 229.777344 C 592.929688 229.789062 592.9375 229.800781 592.9375 229.8125 C 592.957031 230.042969 593.144531 230.226562 593.378906 230.226562 C 595.527344 230.226562 597.34375 233.457031 597.34375 237.277344 C 597.34375 241.101562 595.527344 244.332031 593.378906 244.332031 C 593.144531 244.332031 592.957031 244.511719 592.9375 244.742188 C 592.9375 244.757812 592.929688 244.769531 592.929688 244.78125 C 592.929688 245.03125 593.128906 245.230469 593.378906 245.230469 C 593.582031 245.230469 593.78125 245.207031 593.980469 245.167969 C 594.167969 245.132812 594.355469 245.074219 594.535156 245.003906 C 594.242188 245.277344 593.929688 245.570312 593.601562 245.886719 C 593.277344 246.199219 592.941406 246.53125 592.585938 246.886719 C 591.542969 247.945312 590.167969 249.476562 590.152344 249.492188 C 589.988281 249.675781 590 249.960938 590.1875 250.128906 C 590.273438 250.203125 590.378906 250.242188 590.488281 250.242188 C 590.609375 250.242188 590.734375 250.191406 590.820312 250.09375 C 590.835938 250.078125 592.195312 248.5625 593.222656 247.519531 C 594.460938 246.285156 595.898438 244.964844 596.902344 244.15625 L 595.582031 244.390625 C 597.175781 243.097656 598.246094 240.433594 598.246094 237.277344 C 598.246094 234.125 597.171875 231.460938 595.582031 230.167969 L 598.0625 230.609375 C 599.21875 230.609375 600.253906 231.460938 600.972656 232.8125 C 600.972656 232.878906 600.988281 232.945312 601.019531 233.007812 C 601.644531 234.171875 601.988281 235.6875 601.988281 237.277344 C 601.988281 238.773438 601.679688 240.222656 601.117188 241.359375 C 601.109375 241.375 601.109375 241.390625 601.105469 241.40625 C 601.089844 241.453125 601.074219 241.5 601.074219 241.550781 C 600.550781 242.617188 599.832031 243.394531 599.011719 243.742188 C 599.371094 245.066406 597.964844 247.648438 596.667969 249.054688 C 596.257812 249.496094 595.574219 250.484375 594.746094 251.703125 L 594.746094 253.015625 L 601.992188 252.847656 L 601.988281 252.191406 L 604.683594 252.722656 L 604.707031 253.703125 L 604.429688 253.769531 L 602.007812 254.363281 L 602.003906 253.828125 L 594.746094 253.996094 L 594.746094 256.585938 L 608.738281 261.179688 L 608.738281 223.03125 L 594.746094 220.957031 Z M 602.480469 233.007812 C 603.484375 233.007812 604.296875 233.820312 604.296875 234.820312 L 604.296875 239.589844 C 604.296875 240.59375 603.484375 241.40625 602.480469 241.40625 L 602.082031 241.40625 C 602.601562 240.210938 602.886719 238.761719 602.886719 237.277344 C 602.886719 235.726562 602.578125 234.230469 602.019531 233.007812 Z M 479.871094 258.582031 C 480.363281 257.925781 480.867188 257.257812 481.375 256.582031 C 480.867188 257.257812 480.363281 257.925781 479.871094 258.582031 Z M 479.851562 258.609375 C 479.359375 259.265625 478.878906 259.910156 478.410156 260.539062 C 478.878906 259.910156 479.359375 259.265625 479.851562 258.609375 Z M 549.90625 282.851562 C 547.542969 281.734375 541.199219 280.445312 534.410156 279.292969 C 534.109375 279.242188 533.808594 279.191406 533.507812 279.140625 C 523.445312 277.460938 512.742188 276.113281 512.742188 276.113281 C 512.742188 276.113281 507.292969 276.113281 501.476562 275.046875 L 503.972656 270.726562 C 508.132812 271.585938 512.734375 271.875 516.96875 271.4375 L 512.742188 276.113281 L 527.308594 260 C 527.308594 260 530.964844 259.277344 533.375 257.566406 C 539.074219 253.15625 539.597656 249.089844 539.597656 249.089844 C 537.507812 249.027344 535.417969 248.964844 533.40625 248.902344 C 534.90625 249.914062 536.167969 250.765625 536.6875 251.117188 L 536.867188 251.238281 L 536.886719 251.457031 C 536.988281 252.792969 532.148438 257.714844 526.367188 258.238281 C 526.300781 258.242188 526.234375 258.246094 526.164062 258.246094 C 524.507812 258.246094 522.023438 256.574219 520.234375 254.855469 C 519.402344 254.058594 518.019531 252.578125 518.066406 251.609375 C 518.097656 250.984375 518.972656 249.722656 520.082031 248.367188 C 517.3125 248.175781 514.484375 247.59375 511.957031 246.707031 C 506.609375 249.320312 501.140625 251.261719 499.980469 251.429688 C 498.21875 251.683594 494.453125 248.316406 494.453125 247.617188 C 494.453125 245.257812 497.023438 236.164062 497.023438 236.164062 C 497.023438 236.164062 488.558594 247.050781 481.378906 256.578125 C 481.929688 257.085938 482.5625 257.660156 483.246094 258.269531 L 480.292969 262.355469 C 479.585938 261.6875 478.949219 261.074219 478.40625 260.546875 C 475.523438 264.417969 473.152344 267.703125 472.097656 269.375 C 468.28125 275.4375 467.679688 285.675781 471.425781 293.738281 C 474.105469 299.511719 487.285156 313.890625 489.421875 316.207031 C 489.429688 316.199219 489.433594 316.1875 489.441406 316.183594 C 489.632812 316.027344 489.917969 316.054688 490.074219 316.25 C 490.195312 316.398438 502.1875 331.214844 508.578125 335.773438 C 508.777344 335.917969 508.824219 336.199219 508.679688 336.398438 C 508.59375 336.523438 508.453125 336.589844 508.316406 336.589844 C 508.222656 336.589844 508.132812 336.5625 508.054688 336.503906 C 501.566406 331.878906 489.871094 317.425781 489.375 316.816406 C 489.269531 316.683594 489.257812 316.515625 489.3125 316.371094 L 473.109375 310.019531 C 473.109375 310.019531 472.660156 310.621094 471.992188 311.589844 C 470.3125 314.023438 467.222656 318.773438 466.257812 322.144531 C 464.914062 326.863281 465.023438 330.902344 465.023438 330.902344 C 465.023438 330.902344 506.789062 346.507812 513.640625 347.96875 C 520.488281 349.429688 525.988281 349.652344 529.582031 346.398438 C 532.339844 343.898438 534.558594 341.136719 534.839844 337.753906 C 534.925781 336.726562 534.835938 335.648438 534.523438 334.496094 C 534.5 334.414062 534.476562 334.335938 534.453125 334.253906 C 533.632812 331.351562 532.21875 328.371094 531.214844 326.429688 C 531.207031 326.421875 531.203125 326.414062 531.199219 326.402344 C 530.796875 325.632812 530.460938 325.027344 530.253906 324.664062 C 530.183594 324.703125 530.109375 324.730469 530.03125 324.730469 C 529.894531 324.730469 529.761719 324.667969 529.671875 324.546875 L 516.148438 306.421875 C 516 306.222656 516.042969 305.941406 516.242188 305.792969 C 516.246094 305.789062 516.246094 305.789062 516.25 305.789062 L 514.59375 303.460938 C 514.515625 303.515625 514.425781 303.546875 514.335938 303.546875 C 514.203125 303.546875 514.070312 303.488281 513.980469 303.375 L 501.945312 288.222656 C 501.789062 288.027344 501.820312 287.742188 502.015625 287.589844 C 502.210938 287.433594 502.496094 287.46875 502.648438 287.660156 L 514.6875 302.816406 C 514.738281 302.882812 514.761719 302.957031 514.773438 303.035156 L 520.363281 302.246094 C 520.34375 302.09375 520.390625 301.933594 520.523438 301.832031 C 524.539062 298.640625 532.316406 292.617188 532.394531 292.558594 C 532.589844 292.40625 532.871094 292.441406 533.023438 292.636719 C 533.175781 292.832031 533.140625 293.117188 532.945312 293.269531 C 532.867188 293.328125 525.09375 299.347656 521.082031 302.535156 C 521 302.601562 520.898438 302.632812 520.800781 302.632812 C 520.679688 302.632812 520.5625 302.578125 520.476562 302.484375 L 516.835938 305.851562 C 516.847656 305.863281 516.859375 305.871094 516.871094 305.882812 L 530.332031 323.929688 C 532.023438 321.976562 540.535156 312.09375 546.847656 304.457031 C 547.058594 304.199219 547.269531 303.949219 547.476562 303.695312 C 550.59375 299.910156 553.070312 296.785156 553.722656 295.648438 C 555.855469 291.945312 555.855469 285.65625 549.90625 282.851562 Z M 482.535156 264.429688 L 485.53125 260.285156 C 488.839844 263.144531 492.730469 266.28125 495.507812 267.796875 C 497.109375 268.675781 499.019531 269.421875 501.105469 270.019531 L 498.566406 274.417969 C 496.96875 274.019531 495.410156 273.527344 493.992188 272.914062 C 490.792969 271.539062 486.214844 267.757812 482.535156 264.429688 Z M 518.964844 251.652344 C 518.988281 251.21875 519.894531 249.972656 521.195312 248.433594 C 523.621094 248.566406 527.417969 248.707031 531.714844 248.847656 C 533.496094 250.050781 535.132812 251.152344 535.929688 251.691406 C 535.398438 252.855469 531.355469 256.882812 526.285156 257.34375 C 524.972656 257.453125 522.570312 255.851562 520.855469 254.207031 C 519.445312 252.851562 518.953125 251.9375 518.964844 251.652344 Z M 557.769531 206.082031 C 558.472656 206.640625 559.480469 207.441406 560.667969 208.375 L 556.480469 209.671875 C 556.480469 209.671875 557.011719 204.535156 553.105469 204.503906 C 549.199219 204.472656 547.074219 207.949219 549.945312 215.632812 C 549.945312 215.632812 547.71875 216.925781 547.003906 219.941406 C 546.285156 222.957031 547.003906 224.175781 547.003906 224.175781 C 547.003906 224.175781 539.976562 221.308594 535.617188 218.039062 C 535.871094 218.253906 536.121094 218.472656 536.367188 218.691406 C 536.417969 219.777344 536.386719 221.039062 536.226562 222.4375 C 536.03125 224.121094 535.648438 226.011719 534.953125 228.101562 C 534.515625 229.421875 534.082031 230.617188 533.675781 231.683594 C 531.617188 231.277344 529.570312 230.898438 527.589844 230.566406 C 529.464844 226.246094 532.054688 218.925781 530.277344 214.289062 C 530.535156 214.433594 530.796875 214.582031 531.054688 214.738281 C 531.0625 214.742188 531.070312 214.746094 531.078125 214.75 C 531.328125 214.898438 531.578125 215.054688 531.824219 215.210938 C 531.839844 215.222656 531.859375 215.234375 531.875 215.246094 C 532.113281 215.398438 532.347656 215.554688 532.582031 215.710938 C 532.609375 215.730469 532.636719 215.75 532.664062 215.769531 C 532.886719 215.921875 533.105469 216.078125 533.324219 216.234375 C 533.363281 216.261719 533.402344 216.289062 533.441406 216.320312 C 533.648438 216.46875 533.851562 216.625 534.054688 216.777344 C 534.101562 216.816406 534.152344 216.851562 534.199219 216.890625 C 534.253906 216.929688 534.300781 216.972656 534.355469 217.011719 C 534.371094 217.023438 534.386719 217.039062 534.40625 217.050781 C 534.390625 217.039062 534.371094 217.023438 534.355469 217.007812 C 534.046875 216.730469 533.769531 216.445312 533.511719 216.152344 C 530.335938 212.539062 530.773438 207.703125 533.359375 203.785156 C 533.40625 203.714844 533.460938 203.644531 533.511719 203.574219 C 533.765625 203.214844 534.070312 202.851562 534.410156 202.488281 C 537.4375 199.269531 543.367188 196.132812 545.171875 195.222656 C 545.511719 195.050781 545.710938 194.953125 545.710938 194.953125 C 545.710938 194.953125 553.894531 202.996094 557.769531 206.082031 Z M 547.289062 234.320312 C 547.257812 234.429688 547.222656 234.542969 547.191406 234.652344 C 545.675781 234.292969 544.082031 233.921875 542.441406 233.550781 C 543.566406 230.613281 544.105469 228.105469 544.105469 228.101562 C 544.105469 228.101562 544.105469 228.101562 544.105469 228.105469 C 544.460938 228.734375 544.832031 229.425781 545.21875 230.167969 C 545.226562 230.183594 545.234375 230.199219 545.242188 230.214844 C 545.617188 230.9375 546.007812 231.707031 546.40625 232.515625 C 546.433594 232.570312 546.460938 232.621094 546.484375 232.675781 C 546.597656 232.898438 546.707031 233.125 546.820312 233.355469 C 546.839844 233.398438 546.859375 233.4375 546.882812 233.480469 C 547.015625 233.757812 547.152344 234.035156 547.289062 234.316406 C 547.289062 234.320312 547.289062 234.320312 547.289062 234.320312 Z M 586.625 255.820312 C 586.65625 255.9375 586.652344 256.0625 586.589844 256.167969 C 586.550781 256.238281 585.609375 257.851562 584.046875 258.066406 C 582.195312 258.324219 580.488281 257.875 580.074219 257.753906 C 579.128906 257.84375 571.75 258.535156 570.363281 258.621094 C 570.3125 258.625 570.261719 258.625 570.210938 258.625 C 569.339844 258.625 568.292969 258.171875 567.011719 257.238281 C 566.972656 257.210938 566.949219 257.175781 566.921875 257.140625 C 566.804688 256.988281 566.792969 256.773438 566.910156 256.609375 C 566.914062 256.605469 566.914062 256.605469 566.917969 256.605469 C 567.0625 256.40625 567.339844 256.367188 567.539062 256.507812 C 568.6875 257.34375 569.636719 257.765625 570.304688 257.722656 C 570.585938 257.707031 571.128906 257.664062 571.820312 257.601562 C 569.992188 256.378906 567.863281 254.066406 567.558594 253.730469 C 567.390625 253.546875 567.40625 253.261719 567.589844 253.09375 C 567.773438 252.925781 568.058594 252.941406 568.222656 253.125 C 569.671875 254.71875 572.375 257.28125 573.539062 257.453125 C 574.152344 257.398438 574.796875 257.339844 575.433594 257.28125 C 573.386719 255.703125 571.121094 252.914062 571.011719 252.773438 C 570.855469 252.578125 570.882812 252.296875 571.078125 252.140625 C 571.273438 251.984375 571.554688 252.015625 571.710938 252.207031 C 571.742188 252.246094 574.777344 255.992188 576.84375 257.152344 C 577.621094 257.078125 578.332031 257.011719 578.886719 256.960938 C 577.046875 255.390625 574.628906 252.300781 574.507812 252.140625 C 574.355469 251.945312 574.390625 251.664062 574.585938 251.511719 C 574.785156 251.359375 575.066406 251.394531 575.21875 251.589844 C 576.179688 252.824219 578.953125 256.164062 580.300781 256.882812 C 580.566406 256.960938 582.203125 257.410156 583.921875 257.175781 C 584.601562 257.082031 585.148438 256.570312 585.476562 256.179688 C 584.867188 255.953125 583.96875 255.542969 583.566406 254.96875 C 582.996094 254.148438 581.640625 252.421875 581.625 252.402344 L 576.109375 245.75 C 575.953125 245.558594 575.976562 245.273438 576.171875 245.117188 C 576.359375 244.957031 576.644531 244.984375 576.804688 245.175781 L 582.175781 251.660156 C 582.589844 251.628906 583.492188 251.554688 584.304688 251.480469 C 584.757812 251.441406 585.179688 251.214844 585.4375 250.882812 C 585.539062 250.746094 585.589844 250.621094 585.605469 250.535156 C 585.25 250.277344 583.847656 249.808594 582.988281 249.519531 L 582.792969 249.457031 C 582.554688 249.375 582.429688 249.121094 582.507812 248.886719 C 582.589844 248.648438 582.84375 248.523438 583.078125 248.601562 L 583.101562 248.609375 L 583.273438 248.667969 C 585.722656 249.488281 586.398438 249.785156 586.492188 250.296875 C 586.554688 250.648438 586.429688 251.058594 586.152344 251.425781 C 586.109375 251.480469 586.066406 251.53125 586.019531 251.582031 C 585.609375 252.027344 585.015625 252.320312 584.386719 252.378906 C 583.859375 252.425781 583.292969 252.472656 582.847656 252.507812 C 583.300781 253.097656 583.941406 253.9375 584.304688 254.453125 C 584.621094 254.902344 585.707031 255.339844 586.320312 255.511719 C 586.453125 255.546875 586.5625 255.644531 586.617188 255.773438 C 586.625 255.789062 586.621094 255.804688 586.625 255.820312 Z M 590.066406 245.199219 C 589.984375 245.351562 589.828125 245.441406 589.667969 245.441406 C 589.597656 245.441406 589.527344 245.421875 589.457031 245.386719 C 589.238281 245.273438 589.152344 245 589.269531 244.78125 C 589.480469 244.382812 590.035156 243.8125 590.695312 243.222656 C 590.882812 243.472656 591.082031 243.699219 591.296875 243.894531 C 590.6875 244.433594 590.21875 244.910156 590.066406 245.199219 Z M 590.027344 242.148438 C 588.949219 243.023438 587.976562 243.902344 587.742188 244.347656 C 587.664062 244.5 587.507812 244.589844 587.34375 244.589844 C 587.273438 244.589844 587.203125 244.570312 587.136719 244.535156 C 586.914062 244.421875 586.832031 244.148438 586.945312 243.929688 C 587.285156 243.28125 588.519531 242.203125 589.652344 241.292969 C 589.765625 241.59375 589.890625 241.878906 590.027344 242.148438 Z M 624.683594 235.054688 L 624.683594 242.816406 L 619.953125 242.816406 L 619.953125 235.054688 Z M 564.238281 215.195312 C 564.476562 215.410156 564.285156 216 563.816406 216.519531 C 563.347656 217.039062 562.773438 217.285156 562.539062 217.070312 C 562.304688 216.855469 562.496094 216.265625 562.964844 215.746094 C 563.433594 215.230469 564.003906 214.980469 564.238281 215.195312 Z M 565.4375 214.792969 C 565.554688 215.011719 565.472656 215.285156 565.253906 215.402344 C 565.1875 215.4375 565.113281 215.453125 565.042969 215.453125 C 564.886719 215.453125 564.734375 215.371094 564.652344 215.226562 C 564.625 215.191406 564.136719 214.527344 562.3125 214.925781 C 562.070312 214.980469 561.828125 214.824219 561.777344 214.582031 C 561.722656 214.339844 561.875 214.097656 562.121094 214.046875 C 564.664062 213.492188 565.367188 214.65625 565.4375 214.792969 Z M 559.171875 225.140625 C 559.253906 225.300781 559.234375 225.496094 559.113281 225.636719 C 559.023438 225.742188 558.898438 225.792969 558.773438 225.792969 C 558.71875 225.792969 558.664062 225.785156 558.617188 225.765625 C 558.566406 225.746094 558.519531 225.722656 558.480469 225.6875 C 558.417969 225.632812 556.9375 224.34375 556.515625 222.03125 C 556.472656 221.785156 556.632812 221.550781 556.878906 221.507812 C 557.125 221.464844 557.359375 221.628906 557.402344 221.871094 C 557.761719 223.855469 559.054688 224.992188 559.066406 225.003906 C 559.113281 225.042969 559.148438 225.089844 559.171875 225.140625 Z M 552.550781 196.996094 L 548.34375 193.125 C 548.613281 192.953125 548.898438 192.773438 549.195312 192.59375 C 549.203125 192.589844 549.207031 192.585938 549.214844 192.582031 C 550.117188 192.035156 551.125 191.476562 552.164062 190.992188 C 553.1875 191.929688 554.628906 193.351562 554.628906 193.929688 C 554.628906 194.820312 552.550781 196.996094 552.550781 196.996094 Z M 552.550781 196.996094 " fill-opacity="1" fill-rule="nonzero"/><g fill="#ffffff" fill-opacity="1"><g transform="translate(96.541861, 231.392273)"><g><path d="M 20.203125 -6.828125 L 5.953125 -6.828125 L 2.890625 0 L 0.078125 0 L 11.765625 -25.578125 L 14.4375 -25.578125 L 26.125 0 L 23.28125 0 Z M 19.21875 -9.03125 L 13.078125 -22.765625 L 6.9375 -9.03125 Z M 19.21875 -9.03125 "/></g></g></g><g fill="#ffffff" fill-opacity="1"><g transform="translate(122.746353, 231.392273)"><g><path d="M 11.21875 0.21875 C 9.320312 0.21875 7.5 -0.0820312 5.75 -0.6875 C 4.007812 -1.300781 2.664062 -2.109375 1.71875 -3.109375 L 2.78125 -5.1875 C 3.707031 -4.257812 4.9375 -3.507812 6.46875 -2.9375 C 8 -2.363281 9.582031 -2.078125 11.21875 -2.078125 C 13.507812 -2.078125 15.226562 -2.5 16.375 -3.34375 C 17.519531 -4.1875 18.09375 -5.273438 18.09375 -6.609375 C 18.09375 -7.640625 17.78125 -8.457031 17.15625 -9.0625 C 16.539062 -9.675781 15.78125 -10.144531 14.875 -10.46875 C 13.96875 -10.800781 12.710938 -11.160156 11.109375 -11.546875 C 9.179688 -12.035156 7.644531 -12.503906 6.5 -12.953125 C 5.351562 -13.398438 4.375 -14.085938 3.5625 -15.015625 C 2.75 -15.941406 2.34375 -17.195312 2.34375 -18.78125 C 2.34375 -20.070312 2.679688 -21.25 3.359375 -22.3125 C 4.046875 -23.375 5.09375 -24.21875 6.5 -24.84375 C 7.914062 -25.476562 9.671875 -25.796875 11.765625 -25.796875 C 13.222656 -25.796875 14.648438 -25.59375 16.046875 -25.1875 C 17.453125 -24.789062 18.671875 -24.238281 19.703125 -23.53125 L 18.78125 -21.375 C 17.707031 -22.082031 16.5625 -22.613281 15.34375 -22.96875 C 14.125 -23.320312 12.929688 -23.5 11.765625 -23.5 C 9.523438 -23.5 7.835938 -23.066406 6.703125 -22.203125 C 5.566406 -21.335938 5 -20.222656 5 -18.859375 C 5 -17.835938 5.3125 -17.015625 5.9375 -16.390625 C 6.5625 -15.765625 7.34375 -15.285156 8.28125 -14.953125 C 9.21875 -14.628906 10.476562 -14.273438 12.0625 -13.890625 C 13.9375 -13.421875 15.453125 -12.960938 16.609375 -12.515625 C 17.765625 -12.066406 18.742188 -11.382812 19.546875 -10.46875 C 20.359375 -9.550781 20.765625 -8.316406 20.765625 -6.765625 C 20.765625 -5.472656 20.414062 -4.296875 19.71875 -3.234375 C 19.019531 -2.171875 17.953125 -1.328125 16.515625 -0.703125 C 15.078125 -0.0859375 13.3125 0.21875 11.21875 0.21875 Z M 11.21875 0.21875 "/></g></g></g><g fill="#ffffff" fill-opacity="1"><g transform="translate(145.223019, 231.392273)"><g><path d="M 4.171875 -25.578125 L 6.875 -25.578125 L 6.875 0 L 4.171875 0 Z M 4.171875 -25.578125 "/></g></g></g><g fill="#ffffff" fill-opacity="1"><g transform="translate(156.260326, 231.392273)"><g><path d="M 11.21875 0.21875 C 9.320312 0.21875 7.5 -0.0820312 5.75 -0.6875 C 4.007812 -1.300781 2.664062 -2.109375 1.71875 -3.109375 L 2.78125 -5.1875 C 3.707031 -4.257812 4.9375 -3.507812 6.46875 -2.9375 C 8 -2.363281 9.582031 -2.078125 11.21875 -2.078125 C 13.507812 -2.078125 15.226562 -2.5 16.375 -3.34375 C 17.519531 -4.1875 18.09375 -5.273438 18.09375 -6.609375 C 18.09375 -7.640625 17.78125 -8.457031 17.15625 -9.0625 C 16.539062 -9.675781 15.78125 -10.144531 14.875 -10.46875 C 13.96875 -10.800781 12.710938 -11.160156 11.109375 -11.546875 C 9.179688 -12.035156 7.644531 -12.503906 6.5 -12.953125 C 5.351562 -13.398438 4.375 -14.085938 3.5625 -15.015625 C 2.75 -15.941406 2.34375 -17.195312 2.34375 -18.78125 C 2.34375 -20.070312 2.679688 -21.25 3.359375 -22.3125 C 4.046875 -23.375 5.09375 -24.21875 6.5 -24.84375 C 7.914062 -25.476562 9.671875 -25.796875 11.765625 -25.796875 C 13.222656 -25.796875 14.648438 -25.59375 16.046875 -25.1875 C 17.453125 -24.789062 18.671875 -24.238281 19.703125 -23.53125 L 18.78125 -21.375 C 17.707031 -22.082031 16.5625 -22.613281 15.34375 -22.96875 C 14.125 -23.320312 12.929688 -23.5 11.765625 -23.5 C 9.523438 -23.5 7.835938 -23.066406 6.703125 -22.203125 C 5.566406 -21.335938 5 -20.222656 5 -18.859375 C 5 -17.835938 5.3125 -17.015625 5.9375 -16.390625 C 6.5625 -15.765625 7.34375 -15.285156 8.28125 -14.953125 C 9.21875 -14.628906 10.476562 -14.273438 12.0625 -13.890625 C 13.9375 -13.421875 15.453125 -12.960938 16.609375 -12.515625 C 17.765625 -12.066406 18.742188 -11.382812 19.546875 -10.46875 C 20.359375 -9.550781 20.765625 -8.316406 20.765625 -6.765625 C 20.765625 -5.472656 20.414062 -4.296875 19.71875 -3.234375 C 19.019531 -2.171875 17.953125 -1.328125 16.515625 -0.703125 C 15.078125 -0.0859375 13.3125 0.21875 11.21875 0.21875 Z M 11.21875 0.21875 "/></g></g></g><g fill="#ffffff" fill-opacity="1"><g transform="translate(178.736992, 231.392273)"><g><path d="M 9.140625 -23.25 L 0.140625 -23.25 L 0.140625 -25.578125 L 20.828125 -25.578125 L 20.828125 -23.25 L 11.84375 -23.25 L 11.84375 0 L 9.140625 0 Z M 9.140625 -23.25 "/></g></g></g><g fill="#ffffff" fill-opacity="1"><g transform="translate(199.715221, 231.392273)"><g><path d="M 22.25 -2.34375 L 22.25 0 L 4.171875 0 L 4.171875 -25.578125 L 21.703125 -25.578125 L 21.703125 -23.25 L 6.875 -23.25 L 6.875 -14.140625 L 20.09375 -14.140625 L 20.09375 -11.84375 L 6.875 -11.84375 L 6.875 -2.34375 Z M 22.25 -2.34375 "/></g></g></g><g fill="#ffffff" fill-opacity="1"><g transform="translate(224.165461, 231.392273)"><g><path d="M 25.546875 -25.578125 L 25.546875 0 L 23.3125 0 L 6.875 -20.765625 L 6.875 0 L 4.171875 0 L 4.171875 -25.578125 L 6.390625 -25.578125 L 22.875 -4.828125 L 22.875 -25.578125 Z M 25.546875 -25.578125 "/></g></g></g><g fill="#ffffff" fill-opacity="1"><g transform="translate(253.878521, 231.392273)"><g><path d="M 15.28125 0.21875 C 12.738281 0.21875 10.453125 -0.335938 8.421875 -1.453125 C 6.390625 -2.578125 4.796875 -4.128906 3.640625 -6.109375 C 2.484375 -8.097656 1.90625 -10.328125 1.90625 -12.796875 C 1.90625 -15.253906 2.484375 -17.472656 3.640625 -19.453125 C 4.796875 -21.441406 6.394531 -22.992188 8.4375 -24.109375 C 10.488281 -25.234375 12.78125 -25.796875 15.3125 -25.796875 C 17.207031 -25.796875 18.957031 -25.476562 20.5625 -24.84375 C 22.175781 -24.21875 23.546875 -23.296875 24.671875 -22.078125 L 22.953125 -20.359375 C 20.953125 -22.378906 18.429688 -23.390625 15.390625 -23.390625 C 13.367188 -23.390625 11.523438 -22.925781 9.859375 -22 C 8.203125 -21.070312 6.90625 -19.800781 5.96875 -18.1875 C 5.03125 -16.582031 4.5625 -14.785156 4.5625 -12.796875 C 4.5625 -10.796875 5.03125 -8.988281 5.96875 -7.375 C 6.90625 -5.769531 8.203125 -4.503906 9.859375 -3.578125 C 11.523438 -2.648438 13.367188 -2.1875 15.390625 -2.1875 C 18.453125 -2.1875 20.972656 -3.210938 22.953125 -5.265625 L 24.671875 -3.546875 C 23.546875 -2.328125 22.171875 -1.394531 20.546875 -0.75 C 18.929688 -0.101562 17.175781 0.21875 15.28125 0.21875 Z M 15.28125 0.21875 "/></g></g></g><g fill="#ffffff" fill-opacity="1"><g transform="translate(280.15613, 231.392273)"><g><path d="M 4.171875 -25.578125 L 6.875 -25.578125 L 6.875 0 L 4.171875 0 Z M 4.171875 -25.578125 "/></g></g></g><g fill="#ffffff" fill-opacity="1"><g transform="translate(291.193438, 231.392273)"><g><path d="M 20.203125 -6.828125 L 5.953125 -6.828125 L 2.890625 0 L 0.078125 0 L 11.765625 -25.578125 L 14.4375 -25.578125 L 26.125 0 L 23.28125 0 Z M 19.21875 -9.03125 L 13.078125 -22.765625 L 6.9375 -9.03125 Z M 19.21875 -9.03125 "/></g></g></g><g fill="#ffffff" fill-opacity="1"><g transform="translate(90.01244, 284.285348)"><g><path d="M 33.5625 -32.8125 L 33.5625 0 L 27.46875 0 L 27.46875 -14.0625 L 10.5 -14.0625 L 10.5 0 L 4.40625 0 L 4.40625 -32.8125 L 10.5 -32.8125 L 10.5 -19.265625 L 27.46875 -19.265625 L 27.46875 -32.8125 Z M 33.5625 -32.8125 "/></g></g></g><g fill="#ffffff" fill-opacity="1"><g transform="translate(127.986373, 284.285348)"><g><path d="M 19.734375 0.46875 C 16.390625 0.46875 13.375 -0.253906 10.6875 -1.703125 C 8 -3.160156 5.890625 -5.175781 4.359375 -7.75 C 2.828125 -10.332031 2.0625 -13.21875 2.0625 -16.40625 C 2.0625 -19.59375 2.828125 -22.472656 4.359375 -25.046875 C 5.890625 -27.628906 8 -29.644531 10.6875 -31.09375 C 13.375 -32.550781 16.390625 -33.28125 19.734375 -33.28125 C 23.078125 -33.28125 26.09375 -32.550781 28.78125 -31.09375 C 31.46875 -29.644531 33.578125 -27.640625 35.109375 -25.078125 C 36.640625 -22.515625 37.40625 -19.625 37.40625 -16.40625 C 37.40625 -13.1875 36.640625 -10.296875 35.109375 -7.734375 C 33.578125 -5.171875 31.46875 -3.160156 28.78125 -1.703125 C 26.09375 -0.253906 23.078125 0.46875 19.734375 0.46875 Z M 19.734375 -4.875 C 21.921875 -4.875 23.890625 -5.363281 25.640625 -6.34375 C 27.390625 -7.332031 28.765625 -8.707031 29.765625 -10.46875 C 30.765625 -12.238281 31.265625 -14.21875 31.265625 -16.40625 C 31.265625 -18.59375 30.765625 -20.566406 29.765625 -22.328125 C 28.765625 -24.097656 27.390625 -25.472656 25.640625 -26.453125 C 23.890625 -27.441406 21.921875 -27.9375 19.734375 -27.9375 C 17.546875 -27.9375 15.578125 -27.441406 13.828125 -26.453125 C 12.078125 -25.472656 10.703125 -24.097656 9.703125 -22.328125 C 8.703125 -20.566406 8.203125 -18.59375 8.203125 -16.40625 C 8.203125 -14.21875 8.703125 -12.238281 9.703125 -10.46875 C 10.703125 -8.707031 12.078125 -7.332031 13.828125 -6.34375 C 15.578125 -5.363281 17.546875 -4.875 19.734375 -4.875 Z M 19.734375 -4.875 "/></g></g></g><g fill="#ffffff" fill-opacity="1"><g transform="translate(167.46051, 284.285348)"><g><path d="M 26.8125 -16.78125 L 32.578125 -16.78125 L 32.578125 -3.703125 C 30.890625 -2.359375 28.921875 -1.328125 26.671875 -0.609375 C 24.421875 0.109375 22.109375 0.46875 19.734375 0.46875 C 16.390625 0.46875 13.375 -0.253906 10.6875 -1.703125 C 8 -3.160156 5.890625 -5.171875 4.359375 -7.734375 C 2.828125 -10.296875 2.0625 -13.1875 2.0625 -16.40625 C 2.0625 -19.625 2.828125 -22.515625 4.359375 -25.078125 C 5.890625 -27.640625 8.003906 -29.644531 10.703125 -31.09375 C 13.410156 -32.550781 16.453125 -33.28125 19.828125 -33.28125 C 22.578125 -33.28125 25.078125 -32.828125 27.328125 -31.921875 C 29.578125 -31.015625 31.46875 -29.6875 33 -27.9375 L 29.15625 -24.1875 C 26.65625 -26.6875 23.640625 -27.9375 20.109375 -27.9375 C 17.796875 -27.9375 15.738281 -27.453125 13.9375 -26.484375 C 12.144531 -25.515625 10.738281 -24.15625 9.71875 -22.40625 C 8.707031 -20.65625 8.203125 -18.65625 8.203125 -16.40625 C 8.203125 -14.21875 8.707031 -12.25 9.71875 -10.5 C 10.738281 -8.75 12.144531 -7.375 13.9375 -6.375 C 15.738281 -5.375 17.78125 -4.875 20.0625 -4.875 C 22.625 -4.875 24.875 -5.4375 26.8125 -6.5625 Z M 26.8125 -16.78125 "/></g></g></g><g fill="#ffffff" fill-opacity="1"><g transform="translate(203.652962, 284.285348)"><g><path d="M 25.6875 -7.59375 L 9.28125 -7.59375 L 6.046875 0 L -0.234375 0 L 14.53125 -32.8125 L 20.53125 -32.8125 L 35.34375 0 L 28.96875 0 Z M 23.671875 -12.375 L 17.484375 -26.71875 L 11.34375 -12.375 Z M 23.671875 -12.375 "/></g></g></g><g fill="#ffffff" fill-opacity="1"><g transform="translate(238.767132, 284.285348)"><g><path d="M 25.875 0 L 19.171875 -9.609375 C 18.890625 -9.578125 18.46875 -9.5625 17.90625 -9.5625 L 10.5 -9.5625 L 10.5 0 L 4.40625 0 L 4.40625 -32.8125 L 17.90625 -32.8125 C 20.75 -32.8125 23.222656 -32.34375 25.328125 -31.40625 C 27.441406 -30.46875 29.0625 -29.125 30.1875 -27.375 C 31.3125 -25.625 31.875 -23.546875 31.875 -21.140625 C 31.875 -18.671875 31.269531 -16.546875 30.0625 -14.765625 C 28.863281 -12.984375 27.140625 -11.65625 24.890625 -10.78125 L 32.4375 0 Z M 25.734375 -21.140625 C 25.734375 -23.234375 25.046875 -24.84375 23.671875 -25.96875 C 22.296875 -27.09375 20.28125 -27.65625 17.625 -27.65625 L 10.5 -27.65625 L 10.5 -14.578125 L 17.625 -14.578125 C 20.28125 -14.578125 22.296875 -15.144531 23.671875 -16.28125 C 25.046875 -17.425781 25.734375 -19.046875 25.734375 -21.140625 Z M 25.734375 -21.140625 "/></g></g></g><g fill="#ffffff" fill-opacity="1"><g transform="translate(273.037434, 284.285348)"><g><path d="M 5.765625 -7.453125 C 6.859375 -7.453125 7.765625 -7.09375 8.484375 -6.375 C 9.203125 -5.65625 9.5625 -4.71875 9.5625 -3.5625 C 9.5625 -3.0625 9.488281 -2.535156 9.34375 -1.984375 C 9.207031 -1.441406 8.921875 -0.625 8.484375 0.46875 L 6.09375 7.078125 L 2.296875 7.078125 L 4.171875 -0.09375 C 3.484375 -0.375 2.941406 -0.816406 2.546875 -1.421875 C 2.160156 -2.035156 1.96875 -2.75 1.96875 -3.5625 C 1.96875 -4.71875 2.328125 -5.65625 3.046875 -6.375 C 3.765625 -7.09375 4.671875 -7.453125 5.765625 -7.453125 Z M 5.765625 -7.453125 "/></g></g></g><g fill="#ffffff" fill-opacity="1"><g transform="translate(90.01244, 337.259691)"><g><path d="M 18.515625 0.46875 C 13.984375 0.46875 10.453125 -0.800781 7.921875 -3.34375 C 5.390625 -5.894531 4.125 -9.546875 4.125 -14.296875 L 4.125 -32.8125 L 10.21875 -32.8125 L 10.21875 -14.53125 C 10.21875 -8.09375 13 -4.875 18.5625 -4.875 C 24.09375 -4.875 26.859375 -8.09375 26.859375 -14.53125 L 26.859375 -32.8125 L 32.859375 -32.8125 L 32.859375 -14.296875 C 32.859375 -9.546875 31.597656 -5.894531 29.078125 -3.34375 C 26.566406 -0.800781 23.046875 0.46875 18.515625 0.46875 Z M 18.515625 0.46875 "/></g></g></g><g fill="#ffffff" fill-opacity="1"><g transform="translate(127.001879, 337.259691)"><g><path d="M 25.875 0 L 19.171875 -9.609375 C 18.890625 -9.578125 18.46875 -9.5625 17.90625 -9.5625 L 10.5 -9.5625 L 10.5 0 L 4.40625 0 L 4.40625 -32.8125 L 17.90625 -32.8125 C 20.75 -32.8125 23.222656 -32.34375 25.328125 -31.40625 C 27.441406 -30.46875 29.0625 -29.125 30.1875 -27.375 C 31.3125 -25.625 31.875 -23.546875 31.875 -21.140625 C 31.875 -18.671875 31.269531 -16.546875 30.0625 -14.765625 C 28.863281 -12.984375 27.140625 -11.65625 24.890625 -10.78125 L 32.4375 0 Z M 25.734375 -21.140625 C 25.734375 -23.234375 25.046875 -24.84375 23.671875 -25.96875 C 22.296875 -27.09375 20.28125 -27.65625 17.625 -27.65625 L 10.5 -27.65625 L 10.5 -14.578125 L 17.625 -14.578125 C 20.28125 -14.578125 22.296875 -15.144531 23.671875 -16.28125 C 25.046875 -17.425781 25.734375 -19.046875 25.734375 -21.140625 Z M 25.734375 -21.140625 "/></g></g></g><g fill="#ffffff" fill-opacity="1"><g transform="translate(161.272181, 337.259691)"><g><path d="M 26.8125 -16.78125 L 32.578125 -16.78125 L 32.578125 -3.703125 C 30.890625 -2.359375 28.921875 -1.328125 26.671875 -0.609375 C 24.421875 0.109375 22.109375 0.46875 19.734375 0.46875 C 16.390625 0.46875 13.375 -0.253906 10.6875 -1.703125 C 8 -3.160156 5.890625 -5.171875 4.359375 -7.734375 C 2.828125 -10.296875 2.0625 -13.1875 2.0625 -16.40625 C 2.0625 -19.625 2.828125 -22.515625 4.359375 -25.078125 C 5.890625 -27.640625 8.003906 -29.644531 10.703125 -31.09375 C 13.410156 -32.550781 16.453125 -33.28125 19.828125 -33.28125 C 22.578125 -33.28125 25.078125 -32.828125 27.328125 -31.921875 C 29.578125 -31.015625 31.46875 -29.6875 33 -27.9375 L 29.15625 -24.1875 C 26.65625 -26.6875 23.640625 -27.9375 20.109375 -27.9375 C 17.796875 -27.9375 15.738281 -27.453125 13.9375 -26.484375 C 12.144531 -25.515625 10.738281 -24.15625 9.71875 -22.40625 C 8.707031 -20.65625 8.203125 -18.65625 8.203125 -16.40625 C 8.203125 -14.21875 8.707031 -12.25 9.71875 -10.5 C 10.738281 -8.75 12.144531 -7.375 13.9375 -6.375 C 15.738281 -5.375 17.78125 -4.875 20.0625 -4.875 C 22.625 -4.875 24.875 -5.4375 26.8125 -6.5625 Z M 26.8125 -16.78125 "/></g></g></g><g fill="#ffffff" fill-opacity="1"><g transform="translate(197.464633, 337.259691)"><g><path d="M 29.015625 -5.109375 L 29.015625 0 L 4.40625 0 L 4.40625 -32.8125 L 28.359375 -32.8125 L 28.359375 -27.703125 L 10.5 -27.703125 L 10.5 -19.171875 L 26.34375 -19.171875 L 26.34375 -14.15625 L 10.5 -14.15625 L 10.5 -5.109375 Z M 29.015625 -5.109375 "/></g></g></g><g fill="#ffffff" fill-opacity="1"><g transform="translate(228.875174, 337.259691)"><g><path d="M 33.5625 -32.8125 L 33.5625 0 L 28.546875 0 L 10.453125 -22.21875 L 10.453125 0 L 4.40625 0 L 4.40625 -32.8125 L 9.421875 -32.8125 L 27.515625 -10.59375 L 27.515625 -32.8125 Z M 33.5625 -32.8125 "/></g></g></g><g fill="#ffffff" fill-opacity="1"><g transform="translate(266.849107, 337.259691)"><g><path d="M 19.59375 0.46875 C 16.28125 0.46875 13.285156 -0.253906 10.609375 -1.703125 C 7.941406 -3.160156 5.847656 -5.171875 4.328125 -7.734375 C 2.816406 -10.296875 2.0625 -13.1875 2.0625 -16.40625 C 2.0625 -19.625 2.828125 -22.515625 4.359375 -25.078125 C 5.890625 -27.640625 7.988281 -29.644531 10.65625 -31.09375 C 13.332031 -32.550781 16.328125 -33.28125 19.640625 -33.28125 C 22.328125 -33.28125 24.78125 -32.8125 27 -31.875 C 29.21875 -30.9375 31.09375 -29.578125 32.625 -27.796875 L 28.6875 -24.09375 C 26.3125 -26.65625 23.390625 -27.9375 19.921875 -27.9375 C 17.671875 -27.9375 15.65625 -27.441406 13.875 -26.453125 C 12.09375 -25.472656 10.703125 -24.109375 9.703125 -22.359375 C 8.703125 -20.609375 8.203125 -18.625 8.203125 -16.40625 C 8.203125 -14.1875 8.703125 -12.203125 9.703125 -10.453125 C 10.703125 -8.703125 12.09375 -7.332031 13.875 -6.34375 C 15.65625 -5.363281 17.671875 -4.875 19.921875 -4.875 C 23.390625 -4.875 26.3125 -6.171875 28.6875 -8.765625 L 32.625 -5.015625 C 31.09375 -3.234375 29.207031 -1.875 26.96875 -0.9375 C 24.738281 0 22.28125 0.46875 19.59375 0.46875 Z M 19.59375 0.46875 "/></g></g></g><g fill="#ffffff" fill-opacity="1"><g transform="translate(300.9319, 337.259691)"><g><path d="M 4.40625 -32.8125 L 10.5 -32.8125 L 10.5 0 L 4.40625 0 Z M 4.40625 -32.8125 "/></g></g></g><g fill="#ffffff" fill-opacity="1"><g transform="translate(315.887068, 337.259691)"><g><path d="M 25.6875 -7.59375 L 9.28125 -7.59375 L 6.046875 0 L -0.234375 0 L 14.53125 -32.8125 L 20.53125 -32.8125 L 35.34375 0 L 28.96875 0 Z M 23.671875 -12.375 L 17.484375 -26.71875 L 11.34375 -12.375 Z M 23.671875 -12.375 "/></g></g></g><g fill="#ffffff" fill-opacity="1"><g transform="translate(90.01244, 390.234035)"><g><path d="M 18.5625 -11.578125 L 18.5625 0 L 12.46875 0 L 12.46875 -11.484375 L -0.421875 -32.8125 L 6.09375 -32.8125 L 15.703125 -16.828125 L 25.40625 -32.8125 L 31.40625 -32.8125 Z M 18.5625 -11.578125 "/></g></g></g><g fill="#ffffff" fill-opacity="1"><g transform="translate(133.940333, 390.234035)"><g><path d="M 34.546875 0 L 34.5 -21.75 L 23.71875 -3.75 L 21 -3.75 L 10.21875 -21.46875 L 10.21875 0 L 4.40625 0 L 4.40625 -32.8125 L 9.421875 -32.8125 L 22.453125 -11.0625 L 35.25 -32.8125 L 40.265625 -32.8125 L 40.3125 0 Z M 34.546875 0 "/></g></g></g><g fill="#ffffff" fill-opacity="1"><g transform="translate(178.71207, 390.234035)"><g><path d="M 25.6875 -7.59375 L 9.28125 -7.59375 L 6.046875 0 L -0.234375 0 L 14.53125 -32.8125 L 20.53125 -32.8125 L 35.34375 0 L 28.96875 0 Z M 23.671875 -12.375 L 17.484375 -26.71875 L 11.34375 -12.375 Z M 23.671875 -12.375 "/></g></g></g><g fill="#ffffff" fill-opacity="1"><g transform="translate(213.82624, 390.234035)"><g><path d="M 33.5625 -32.8125 L 33.5625 0 L 28.546875 0 L 10.453125 -22.21875 L 10.453125 0 L 4.40625 0 L 4.40625 -32.8125 L 9.421875 -32.8125 L 27.515625 -10.59375 L 27.515625 -32.8125 Z M 33.5625 -32.8125 "/></g></g></g><g fill="#ffffff" fill-opacity="1"><g transform="translate(251.800172, 390.234035)"><g><path d="M 11.0625 -27.65625 L 0.1875 -27.65625 L 0.1875 -32.8125 L 28.03125 -32.8125 L 28.03125 -27.65625 L 17.15625 -27.65625 L 17.15625 0 L 11.0625 0 Z M 11.0625 -27.65625 "/></g></g></g><g fill="#ffffff" fill-opacity="1"><g transform="translate(280.022772, 390.234035)"><g><path d="M 29.015625 -5.109375 L 29.015625 0 L 4.40625 0 L 4.40625 -32.8125 L 28.359375 -32.8125 L 28.359375 -27.703125 L 10.5 -27.703125 L 10.5 -19.171875 L 26.34375 -19.171875 L 26.34375 -14.15625 L 10.5 -14.15625 L 10.5 -5.109375 Z M 29.015625 -5.109375 "/></g></g></g><g fill="#ffffff" fill-opacity="1"><g transform="translate(311.433313, 390.234035)"><g><path d="M 33.5625 -32.8125 L 33.5625 0 L 28.546875 0 L 10.453125 -22.21875 L 10.453125 0 L 4.40625 0 L 4.40625 -32.8125 L 9.421875 -32.8125 L 27.515625 -10.59375 L 27.515625 -32.8125 Z M 33.5625 -32.8125 "/></g></g></g><g fill="#ffffff" fill-opacity="1"><g transform="translate(349.407245, 390.234035)"><g><path d="M 4.40625 -32.8125 L 10.5 -32.8125 L 10.5 0 L 4.40625 0 Z M 4.40625 -32.8125 "/></g></g></g><g fill="#ffffff" fill-opacity="1"><g transform="translate(364.362413, 390.234035)"><g><path d="M 34.546875 0 L 34.5 -21.75 L 23.71875 -3.75 L 21 -3.75 L 10.21875 -21.46875 L 10.21875 0 L 4.40625 0 L 4.40625 -32.8125 L 9.421875 -32.8125 L 22.453125 -11.0625 L 35.25 -32.8125 L 40.265625 -32.8125 L 40.3125 0 Z M 34.546875 0 "/></g></g></g><g fill="#ffffff" fill-opacity="1"><g transform="translate(409.13415, 390.234035)"><g><path d="M 4.40625 -32.8125 L 10.5 -32.8125 L 10.5 0 L 4.40625 0 Z M 4.40625 -32.8125 "/></g></g></g><g fill="#ffffff" fill-opacity="1"><g transform="translate(424.089318, 390.234035)"><g><path d="M 29.015625 -5.109375 L 29.015625 0 L 4.40625 0 L 4.40625 -32.8125 L 28.359375 -32.8125 L 28.359375 -27.703125 L 10.5 -27.703125 L 10.5 -19.171875 L 26.34375 -19.171875 L 26.34375 -14.15625 L 10.5 -14.15625 L 10.5 -5.109375 Z M 29.015625 -5.109375 "/></g></g></g><g fill="#ffffff" fill-opacity="1"><g transform="translate(455.499859, 390.234035)"><g><path d="M 33.5625 -32.8125 L 33.5625 0 L 28.546875 0 L 10.453125 -22.21875 L 10.453125 0 L 4.40625 0 L 4.40625 -32.8125 L 9.421875 -32.8125 L 27.515625 -10.59375 L 27.515625 -32.8125 Z M 33.5625 -32.8125 "/></g></g></g><g fill="#ffffff" fill-opacity="1"><g transform="translate(493.473791, 390.234035)"><g><path d="M 11.0625 -27.65625 L 0.1875 -27.65625 L 0.1875 -32.8125 L 28.03125 -32.8125 L 28.03125 -27.65625 L 17.15625 -27.65625 L 17.15625 0 L 11.0625 0 Z M 11.0625 -27.65625 "/></g></g></g><g fill="#ffffff" fill-opacity="1"><g transform="translate(521.696391, 390.234035)"><g><path d="M 19.734375 0.46875 C 16.390625 0.46875 13.375 -0.253906 10.6875 -1.703125 C 8 -3.160156 5.890625 -5.175781 4.359375 -7.75 C 2.828125 -10.332031 2.0625 -13.21875 2.0625 -16.40625 C 2.0625 -19.59375 2.828125 -22.472656 4.359375 -25.046875 C 5.890625 -27.628906 8 -29.644531 10.6875 -31.09375 C 13.375 -32.550781 16.390625 -33.28125 19.734375 -33.28125 C 23.078125 -33.28125 26.09375 -32.550781 28.78125 -31.09375 C 31.46875 -29.644531 33.578125 -27.640625 35.109375 -25.078125 C 36.640625 -22.515625 37.40625 -19.625 37.40625 -16.40625 C 37.40625 -13.1875 36.640625 -10.296875 35.109375 -7.734375 C 33.578125 -5.171875 31.46875 -3.160156 28.78125 -1.703125 C 26.09375 -0.253906 23.078125 0.46875 19.734375 0.46875 Z M 19.734375 -4.875 C 21.921875 -4.875 23.890625 -5.363281 25.640625 -6.34375 C 27.390625 -7.332031 28.765625 -8.707031 29.765625 -10.46875 C 30.765625 -12.238281 31.265625 -14.21875 31.265625 -16.40625 C 31.265625 -18.59375 30.765625 -20.566406 29.765625 -22.328125 C 28.765625 -24.097656 27.390625 -25.472656 25.640625 -26.453125 C 23.890625 -27.441406 21.921875 -27.9375 19.734375 -27.9375 C 17.546875 -27.9375 15.578125 -27.441406 13.828125 -26.453125 C 12.078125 -25.472656 10.703125 -24.097656 9.703125 -22.328125 C 8.703125 -20.566406 8.203125 -18.59375 8.203125 -16.40625 C 8.203125 -14.21875 8.703125 -12.238281 9.703125 -10.46875 C 10.703125 -8.707031 12.078125 -7.332031 13.828125 -6.34375 C 15.578125 -5.363281 17.546875 -4.875 19.734375 -4.875 Z M 19.734375 -4.875 "/></g></g></g></svg>