<svg xmlns="http://www.w3.org/2000/svg" xmlns:xlink="http://www.w3.org/1999/xlink" width="900" zoomAndPan="magnify" viewBox="0 0 675 599.999999" height="800" preserveAspectRatio="xMidYMid meet" version="1.0"><defs><g/><clipPath id="6d2cd20f22"><path d="M 59.75 60 L 670 60 L 670 561.75 L 59.75 561.75 Z M 59.75 60 " clip-rule="nonzero"/></clipPath><clipPath id="02053c69e1"><path d="M 364.863281 60 C 196.355469 60 59.75 172.320312 59.75 310.875 C 59.75 449.429688 196.355469 561.75 364.863281 561.75 C 533.371094 561.75 669.972656 449.429688 669.972656 310.875 C 669.972656 172.320312 533.371094 60 364.863281 60 Z M 364.863281 60 " clip-rule="nonzero"/></clipPath><clipPath id="01ceb7c137"><path d="M 3 165 L 315.476562 165 L 315.476562 484.632812 L 3 484.632812 Z M 3 165 " clip-rule="nonzero"/></clipPath><clipPath id="4038c7593f"><path d="M 3 260 L 315.476562 260 L 315.476562 484.632812 L 3 484.632812 Z M 3 260 " clip-rule="nonzero"/></clipPath><clipPath id="4cf6f18218"><path d="M 68 453 L 315.476562 453 L 315.476562 484.632812 L 68 484.632812 Z M 68 453 " clip-rule="nonzero"/></clipPath></defs><g clip-path="url(#6d2cd20f22)"><g clip-path="url(#02053c69e1)"><path fill="#b9c1ff" d="M 59.75 60 L 669.296875 60 L 669.296875 561.75 L 59.75 561.75 Z M 59.75 60 " fill-opacity="1" fill-rule="nonzero"/></g></g><g fill="#ffffff" fill-opacity="1"><g transform="translate(372.019057, 264.828485)"><g><path d="M 21.71875 -7.34375 L 6.40625 -7.34375 L 3.109375 0 L 0.078125 0 L 12.640625 -27.484375 L 15.515625 -27.484375 L 28.078125 0 L 25.015625 0 Z M 20.65625 -9.703125 L 14.0625 -24.46875 L 7.453125 -9.703125 Z M 20.65625 -9.703125 "/></g></g></g><g fill="#ffffff" fill-opacity="1"><g transform="translate(400.172633, 264.828485)"><g><path d="M 12.046875 0.234375 C 10.003906 0.234375 8.046875 -0.09375 6.171875 -0.75 C 4.304688 -1.40625 2.863281 -2.269531 1.84375 -3.34375 L 2.984375 -5.578125 C 3.972656 -4.578125 5.289062 -3.769531 6.9375 -3.15625 C 8.59375 -2.539062 10.296875 -2.234375 12.046875 -2.234375 C 14.515625 -2.234375 16.363281 -2.6875 17.59375 -3.59375 C 18.820312 -4.5 19.4375 -5.671875 19.4375 -7.109375 C 19.4375 -8.203125 19.101562 -9.078125 18.4375 -9.734375 C 17.769531 -10.390625 16.953125 -10.894531 15.984375 -11.25 C 15.015625 -11.601562 13.664062 -11.988281 11.9375 -12.40625 C 9.863281 -12.925781 8.210938 -13.425781 6.984375 -13.90625 C 5.753906 -14.394531 4.703125 -15.132812 3.828125 -16.125 C 2.953125 -17.125 2.515625 -18.476562 2.515625 -20.1875 C 2.515625 -21.570312 2.878906 -22.832031 3.609375 -23.96875 C 4.347656 -25.113281 5.472656 -26.023438 6.984375 -26.703125 C 8.503906 -27.378906 10.390625 -27.71875 12.640625 -27.71875 C 14.210938 -27.71875 15.75 -27.5 17.25 -27.0625 C 18.757812 -26.632812 20.066406 -26.039062 21.171875 -25.28125 L 20.1875 -22.96875 C 19.03125 -23.726562 17.796875 -24.296875 16.484375 -24.671875 C 15.179688 -25.054688 13.898438 -25.25 12.640625 -25.25 C 10.234375 -25.25 8.421875 -24.78125 7.203125 -23.84375 C 5.984375 -22.914062 5.375 -21.722656 5.375 -20.265625 C 5.375 -19.160156 5.707031 -18.273438 6.375 -17.609375 C 7.039062 -16.941406 7.878906 -16.429688 8.890625 -16.078125 C 9.898438 -15.722656 11.253906 -15.335938 12.953125 -14.921875 C 14.972656 -14.421875 16.601562 -13.925781 17.84375 -13.4375 C 19.09375 -12.957031 20.144531 -12.226562 21 -11.25 C 21.863281 -10.269531 22.296875 -8.941406 22.296875 -7.265625 C 22.296875 -5.878906 21.921875 -4.613281 21.171875 -3.46875 C 20.429688 -2.332031 19.289062 -1.429688 17.75 -0.765625 C 16.207031 -0.0976562 14.304688 0.234375 12.046875 0.234375 Z M 12.046875 0.234375 "/></g></g></g><g fill="#ffffff" fill-opacity="1"><g transform="translate(424.321082, 264.828485)"><g><path d="M 4.46875 -27.484375 L 7.375 -27.484375 L 7.375 0 L 4.46875 0 Z M 4.46875 -27.484375 "/></g></g></g><g fill="#ffffff" fill-opacity="1"><g transform="translate(436.17934, 264.828485)"><g><path d="M 12.046875 0.234375 C 10.003906 0.234375 8.046875 -0.09375 6.171875 -0.75 C 4.304688 -1.40625 2.863281 -2.269531 1.84375 -3.34375 L 2.984375 -5.578125 C 3.972656 -4.578125 5.289062 -3.769531 6.9375 -3.15625 C 8.59375 -2.539062 10.296875 -2.234375 12.046875 -2.234375 C 14.515625 -2.234375 16.363281 -2.6875 17.59375 -3.59375 C 18.820312 -4.5 19.4375 -5.671875 19.4375 -7.109375 C 19.4375 -8.203125 19.101562 -9.078125 18.4375 -9.734375 C 17.769531 -10.390625 16.953125 -10.894531 15.984375 -11.25 C 15.015625 -11.601562 13.664062 -11.988281 11.9375 -12.40625 C 9.863281 -12.925781 8.210938 -13.425781 6.984375 -13.90625 C 5.753906 -14.394531 4.703125 -15.132812 3.828125 -16.125 C 2.953125 -17.125 2.515625 -18.476562 2.515625 -20.1875 C 2.515625 -21.570312 2.878906 -22.832031 3.609375 -23.96875 C 4.347656 -25.113281 5.472656 -26.023438 6.984375 -26.703125 C 8.503906 -27.378906 10.390625 -27.71875 12.640625 -27.71875 C 14.210938 -27.71875 15.75 -27.5 17.25 -27.0625 C 18.757812 -26.632812 20.066406 -26.039062 21.171875 -25.28125 L 20.1875 -22.96875 C 19.03125 -23.726562 17.796875 -24.296875 16.484375 -24.671875 C 15.179688 -25.054688 13.898438 -25.25 12.640625 -25.25 C 10.234375 -25.25 8.421875 -24.78125 7.203125 -23.84375 C 5.984375 -22.914062 5.375 -21.722656 5.375 -20.265625 C 5.375 -19.160156 5.707031 -18.273438 6.375 -17.609375 C 7.039062 -16.941406 7.878906 -16.429688 8.890625 -16.078125 C 9.898438 -15.722656 11.253906 -15.335938 12.953125 -14.921875 C 14.972656 -14.421875 16.601562 -13.925781 17.84375 -13.4375 C 19.09375 -12.957031 20.144531 -12.226562 21 -11.25 C 21.863281 -10.269531 22.296875 -8.941406 22.296875 -7.265625 C 22.296875 -5.878906 21.921875 -4.613281 21.171875 -3.46875 C 20.429688 -2.332031 19.289062 -1.429688 17.75 -0.765625 C 16.207031 -0.0976562 14.304688 0.234375 12.046875 0.234375 Z M 12.046875 0.234375 "/></g></g></g><g fill="#ffffff" fill-opacity="1"><g transform="translate(460.327789, 264.828485)"><g><path d="M 9.8125 -24.96875 L 0.15625 -24.96875 L 0.15625 -27.484375 L 22.375 -27.484375 L 22.375 -24.96875 L 12.71875 -24.96875 L 12.71875 0 L 9.8125 0 Z M 9.8125 -24.96875 "/></g></g></g><g fill="#ffffff" fill-opacity="1"><g transform="translate(482.866359, 264.828485)"><g><path d="M 23.90625 -2.515625 L 23.90625 0 L 4.46875 0 L 4.46875 -27.484375 L 23.328125 -27.484375 L 23.328125 -24.96875 L 7.375 -24.96875 L 7.375 -15.203125 L 21.59375 -15.203125 L 21.59375 -12.71875 L 7.375 -12.71875 L 7.375 -2.515625 Z M 23.90625 -2.515625 "/></g></g></g><g fill="#ffffff" fill-opacity="1"><g transform="translate(509.13517, 264.828485)"><g><path d="M 27.453125 -27.484375 L 27.453125 0 L 25.046875 0 L 7.375 -22.296875 L 7.375 0 L 4.46875 0 L 4.46875 -27.484375 L 6.875 -27.484375 L 24.578125 -5.1875 L 24.578125 -27.484375 Z M 27.453125 -27.484375 "/></g></g></g><g fill="#ffffff" fill-opacity="1"><g transform="translate(541.05825, 264.828485)"><g><path d="M 16.40625 0.234375 C 13.6875 0.234375 11.234375 -0.363281 9.046875 -1.5625 C 6.859375 -2.769531 5.144531 -4.441406 3.90625 -6.578125 C 2.664062 -8.710938 2.046875 -11.101562 2.046875 -13.75 C 2.046875 -16.382812 2.664062 -18.769531 3.90625 -20.90625 C 5.144531 -23.039062 6.863281 -24.707031 9.0625 -25.90625 C 11.269531 -27.113281 13.734375 -27.71875 16.453125 -27.71875 C 18.492188 -27.71875 20.378906 -27.378906 22.109375 -26.703125 C 23.835938 -26.023438 25.300781 -25.03125 26.5 -23.71875 L 24.65625 -21.875 C 22.507812 -24.039062 19.800781 -25.125 16.53125 -25.125 C 14.351562 -25.125 12.375 -24.625 10.59375 -23.625 C 8.820312 -22.632812 7.429688 -21.273438 6.421875 -19.546875 C 5.410156 -17.828125 4.90625 -15.894531 4.90625 -13.75 C 4.90625 -11.59375 5.410156 -9.648438 6.421875 -7.921875 C 7.429688 -6.203125 8.820312 -4.84375 10.59375 -3.84375 C 12.375 -2.851562 14.351562 -2.359375 16.53125 -2.359375 C 19.832031 -2.359375 22.539062 -3.457031 24.65625 -5.65625 L 26.5 -3.8125 C 25.300781 -2.5 23.828125 -1.492188 22.078125 -0.796875 C 20.335938 -0.109375 18.445312 0.234375 16.40625 0.234375 Z M 16.40625 0.234375 "/></g></g></g><g fill="#ffffff" fill-opacity="1"><g transform="translate(569.29035, 264.828485)"><g><path d="M 4.46875 -27.484375 L 7.375 -27.484375 L 7.375 0 L 4.46875 0 Z M 4.46875 -27.484375 "/></g></g></g><g fill="#ffffff" fill-opacity="1"><g transform="translate(581.148608, 264.828485)"><g><path d="M 21.71875 -7.34375 L 6.40625 -7.34375 L 3.109375 0 L 0.078125 0 L 12.640625 -27.484375 L 15.515625 -27.484375 L 28.078125 0 L 25.015625 0 Z M 20.65625 -9.703125 L 14.0625 -24.46875 L 7.453125 -9.703125 Z M 20.65625 -9.703125 "/></g></g></g><g fill="#ffffff" fill-opacity="1"><g transform="translate(448.148778, 322.761104)"><g><path d="M 4.734375 -35.28125 L 11.28125 -35.28125 L 11.28125 -5.546875 L 29.734375 -5.546875 L 29.734375 0 L 4.734375 0 Z M 4.734375 -35.28125 "/></g></g></g><g fill="#ffffff" fill-opacity="1"><g transform="translate(478.329784, 322.761104)"><g><path d="M 31.1875 -5.5 L 31.1875 0 L 4.734375 0 L 4.734375 -35.28125 L 30.484375 -35.28125 L 30.484375 -29.78125 L 11.28125 -29.78125 L 11.28125 -20.609375 L 28.3125 -20.609375 L 28.3125 -15.21875 L 11.28125 -15.21875 L 11.28125 -5.5 Z M 31.1875 -5.5 "/></g></g></g><g fill="#ffffff" fill-opacity="1"><g transform="translate(512.088158, 322.761104)"><g><path d="M 28.828125 -18.046875 L 35.015625 -18.046875 L 35.015625 -3.984375 C 33.203125 -2.535156 31.085938 -1.425781 28.671875 -0.65625 C 26.253906 0.113281 23.769531 0.5 21.21875 0.5 C 17.625 0.5 14.378906 -0.28125 11.484375 -1.84375 C 8.597656 -3.40625 6.332031 -5.5625 4.6875 -8.3125 C 3.039062 -11.070312 2.21875 -14.179688 2.21875 -17.640625 C 2.21875 -21.097656 3.039062 -24.203125 4.6875 -26.953125 C 6.332031 -29.710938 8.609375 -31.875 11.515625 -33.4375 C 14.421875 -35 17.6875 -35.78125 21.3125 -35.78125 C 24.269531 -35.78125 26.957031 -35.289062 29.375 -34.3125 C 31.789062 -33.34375 33.820312 -31.914062 35.46875 -30.03125 L 31.34375 -26 C 28.65625 -28.6875 25.414062 -30.03125 21.625 -30.03125 C 19.132812 -30.03125 16.921875 -29.507812 14.984375 -28.46875 C 13.054688 -27.425781 11.546875 -25.960938 10.453125 -24.078125 C 9.359375 -22.203125 8.8125 -20.054688 8.8125 -17.640625 C 8.8125 -15.285156 9.359375 -13.164062 10.453125 -11.28125 C 11.546875 -9.40625 13.054688 -7.925781 14.984375 -6.84375 C 16.921875 -5.769531 19.113281 -5.234375 21.5625 -5.234375 C 24.320312 -5.234375 26.742188 -5.84375 28.828125 -7.0625 Z M 28.828125 -18.046875 "/></g></g></g><g fill="#ffffff" fill-opacity="1"><g transform="translate(550.985875, 322.761104)"><g><path d="M 27.609375 -8.15625 L 9.984375 -8.15625 L 6.5 0 L -0.25 0 L 15.625 -35.28125 L 22.078125 -35.28125 L 38 0 L 31.140625 0 Z M 25.453125 -13.296875 L 18.796875 -28.71875 L 12.1875 -13.296875 Z M 25.453125 -13.296875 "/></g></g></g><g fill="#ffffff" fill-opacity="1"><g transform="translate(588.724712, 322.761104)"><g><path d="M 4.734375 -35.28125 L 11.28125 -35.28125 L 11.28125 -5.546875 L 29.734375 -5.546875 L 29.734375 0 L 4.734375 0 Z M 4.734375 -35.28125 "/></g></g></g><g fill="#ffffff" fill-opacity="1"><g transform="translate(285.106017, 379.695102)"><g><path d="M 11.890625 -29.734375 L 0.203125 -29.734375 L 0.203125 -35.28125 L 30.140625 -35.28125 L 30.140625 -29.734375 L 18.4375 -29.734375 L 18.4375 0 L 11.890625 0 Z M 11.890625 -29.734375 "/></g></g></g><g fill="#ffffff" fill-opacity="1"><g transform="translate(315.438162, 379.695102)"><g><path d="M 31.1875 -5.5 L 31.1875 0 L 4.734375 0 L 4.734375 -35.28125 L 30.484375 -35.28125 L 30.484375 -29.78125 L 11.28125 -29.78125 L 11.28125 -20.609375 L 28.3125 -20.609375 L 28.3125 -15.21875 L 11.28125 -15.21875 L 11.28125 -5.5 Z M 31.1875 -5.5 "/></g></g></g><g fill="#ffffff" fill-opacity="1"><g transform="translate(349.196535, 379.695102)"><g><path d="M 4.734375 -35.28125 L 11.28125 -35.28125 L 11.28125 -5.546875 L 29.734375 -5.546875 L 29.734375 0 L 4.734375 0 Z M 4.734375 -35.28125 "/></g></g></g><g fill="#ffffff" fill-opacity="1"><g transform="translate(379.377542, 379.695102)"><g><path d="M 31.1875 -5.5 L 31.1875 0 L 4.734375 0 L 4.734375 -35.28125 L 30.484375 -35.28125 L 30.484375 -29.78125 L 11.28125 -29.78125 L 11.28125 -20.609375 L 28.3125 -20.609375 L 28.3125 -15.21875 L 11.28125 -15.21875 L 11.28125 -5.5 Z M 31.1875 -5.5 "/></g></g></g><g fill="#ffffff" fill-opacity="1"><g transform="translate(413.135916, 379.695102)"><g><path d="M 11.28125 -29.78125 L 11.28125 -19.046875 L 28.3125 -19.046875 L 28.3125 -13.5 L 11.28125 -13.5 L 11.28125 0 L 4.734375 0 L 4.734375 -35.28125 L 30.484375 -35.28125 L 30.484375 -29.78125 Z M 11.28125 -29.78125 "/></g></g></g><g fill="#ffffff" fill-opacity="1"><g transform="translate(445.231562, 379.695102)"><g><path d="M 21.21875 0.5 C 17.625 0.5 14.378906 -0.28125 11.484375 -1.84375 C 8.597656 -3.40625 6.332031 -5.570312 4.6875 -8.34375 C 3.039062 -11.113281 2.21875 -14.210938 2.21875 -17.640625 C 2.21875 -21.066406 3.039062 -24.164062 4.6875 -26.9375 C 6.332031 -29.707031 8.597656 -31.875 11.484375 -33.4375 C 14.378906 -35 17.625 -35.78125 21.21875 -35.78125 C 24.8125 -35.78125 28.050781 -35 30.9375 -33.4375 C 33.832031 -31.875 36.101562 -29.710938 37.75 -26.953125 C 39.394531 -24.203125 40.21875 -21.097656 40.21875 -17.640625 C 40.21875 -14.179688 39.394531 -11.070312 37.75 -8.3125 C 36.101562 -5.5625 33.832031 -3.40625 30.9375 -1.84375 C 28.050781 -0.28125 24.8125 0.5 21.21875 0.5 Z M 21.21875 -5.234375 C 23.5625 -5.234375 25.675781 -5.765625 27.5625 -6.828125 C 29.445312 -7.890625 30.925781 -9.367188 32 -11.265625 C 33.070312 -13.160156 33.609375 -15.285156 33.609375 -17.640625 C 33.609375 -19.992188 33.070312 -22.117188 32 -24.015625 C 30.925781 -25.910156 29.445312 -27.382812 27.5625 -28.4375 C 25.675781 -29.5 23.5625 -30.03125 21.21875 -30.03125 C 18.863281 -30.03125 16.742188 -29.5 14.859375 -28.4375 C 12.984375 -27.382812 11.503906 -25.910156 10.421875 -24.015625 C 9.347656 -22.117188 8.8125 -19.992188 8.8125 -17.640625 C 8.8125 -15.285156 9.347656 -13.160156 10.421875 -11.265625 C 11.503906 -9.367188 12.984375 -7.890625 14.859375 -6.828125 C 16.742188 -5.765625 18.863281 -5.234375 21.21875 -5.234375 Z M 23.78125 -45.046875 L 31.1875 -45.046875 L 22.421875 -38.140625 L 16.984375 -38.140625 Z M 23.78125 -45.046875 "/></g></g></g><g fill="#ffffff" fill-opacity="1"><g transform="translate(487.656258, 379.695102)"><g><path d="M 36.078125 -35.28125 L 36.078125 0 L 30.6875 0 L 11.234375 -23.890625 L 11.234375 0 L 4.734375 0 L 4.734375 -35.28125 L 10.125 -35.28125 L 29.578125 -11.390625 L 29.578125 -35.28125 Z M 36.078125 -35.28125 "/></g></g></g><g fill="#ffffff" fill-opacity="1"><g transform="translate(528.468615, 379.695102)"><g><path d="M 4.734375 -35.28125 L 11.28125 -35.28125 L 11.28125 0 L 4.734375 0 Z M 4.734375 -35.28125 "/></g></g></g><g fill="#ffffff" fill-opacity="1"><g transform="translate(544.541631, 379.695102)"><g><path d="M 21.0625 0.5 C 17.5 0.5 14.28125 -0.28125 11.40625 -1.84375 C 8.539062 -3.40625 6.289062 -5.5625 4.65625 -8.3125 C 3.03125 -11.070312 2.21875 -14.179688 2.21875 -17.640625 C 2.21875 -21.097656 3.039062 -24.203125 4.6875 -26.953125 C 6.332031 -29.710938 8.585938 -31.875 11.453125 -33.4375 C 14.328125 -35 17.546875 -35.78125 21.109375 -35.78125 C 24.003906 -35.78125 26.644531 -35.273438 29.03125 -34.265625 C 31.414062 -33.253906 33.429688 -31.789062 35.078125 -29.875 L 30.84375 -25.90625 C 28.289062 -28.65625 25.148438 -30.03125 21.421875 -30.03125 C 18.992188 -30.03125 16.820312 -29.5 14.90625 -28.4375 C 13 -27.382812 11.503906 -25.914062 10.421875 -24.03125 C 9.347656 -22.15625 8.8125 -20.023438 8.8125 -17.640625 C 8.8125 -15.253906 9.347656 -13.117188 10.421875 -11.234375 C 11.503906 -9.359375 13 -7.890625 14.90625 -6.828125 C 16.820312 -5.765625 18.992188 -5.234375 21.421875 -5.234375 C 25.148438 -5.234375 28.289062 -6.628906 30.84375 -9.421875 L 35.078125 -5.390625 C 33.429688 -3.472656 31.40625 -2.007812 29 -1 C 26.59375 0 23.945312 0.5 21.0625 0.5 Z M 21.0625 0.5 "/></g></g></g><g fill="#ffffff" fill-opacity="1"><g transform="translate(581.171999, 379.695102)"><g><path d="M 27.609375 -8.15625 L 9.984375 -8.15625 L 6.5 0 L -0.25 0 L 15.625 -35.28125 L 22.078125 -35.28125 L 38 0 L 31.140625 0 Z M 25.453125 -13.296875 L 18.796875 -28.71875 L 12.1875 -13.296875 Z M 25.453125 -13.296875 "/></g></g></g><g clip-path="url(#01ceb7c137)"><path fill="#323231" d="M 108.628906 276.226562 C 106.902344 275.351562 105.207031 274.363281 103.546875 273.132812 C 91.714844 264.363281 84.851562 249.757812 87.296875 235.109375 C 88.320312 228.992188 92.070312 223.339844 92.457031 217.210938 C 92.746094 212.625 91.609375 208.121094 91.636719 203.550781 C 91.679688 195.511719 94.792969 186.839844 99.679688 180.53125 C 107.636719 170.257812 119.449219 164.289062 132.675781 165.765625 C 136.941406 166.242188 141.230469 167.472656 145.019531 169.515625 C 145.414062 169.730469 149.226562 171.5 148.785156 172.539062 L 150.699219 173.066406 C 156.679688 171.859375 163.425781 172.398438 169.363281 173.535156 C 171.988281 174.039062 174.949219 174.578125 177.152344 176.171875 C 188.113281 184.117188 187.675781 200.394531 184.847656 211.984375 C 184.339844 214.0625 183.589844 216.101562 182.84375 218.125 C 183.277344 219.058594 183.566406 219.949219 183.621094 220.335938 C 183.792969 221.535156 183.980469 222.777344 183.980469 223.992188 C 183.984375 225.578125 183.90625 227.210938 183.738281 228.855469 C 185.980469 228.671875 188.183594 229.140625 189.542969 230.425781 C 193.84375 234.484375 195.445312 241.210938 193.585938 246.796875 C 191.460938 253.175781 185.273438 257.316406 178.871094 257.933594 C 176.894531 258.121094 174.058594 257.644531 172.160156 256.273438 C 171.59375 258.128906 171.015625 259.984375 170.46875 261.855469 C 170.425781 262 170.371094 262.320312 170.3125 262.703125 L 171.027344 263.152344 L 171.496094 263.496094 L 172.152344 264.035156 L 172.570312 264.421875 L 172.921875 264.777344 L 173.199219 265.078125 L 173.527344 265.460938 L 173.78125 265.777344 L 174.085938 266.175781 L 174.324219 266.507812 L 174.554688 266.84375 L 175.039062 267.621094 L 175.550781 268.523438 L 175.929688 269.261719 L 176.34375 270.132812 C 176.636719 270.773438 176.914062 271.429688 177.179688 272.089844 C 178.066406 273.394531 179.113281 274.667969 180.144531 275.542969 C 182.757812 277.761719 186.265625 278.941406 189.710938 280.078125 C 191.78125 280.765625 193.828125 281.433594 195.648438 282.300781 C 201.617188 285.15625 207.65625 287.828125 213.65625 290.59375 C 215.839844 291.601562 218.007812 292.679688 220.214844 293.621094 C 220.921875 293.921875 221.640625 294.214844 222.378906 294.421875 C 222.628906 294.492188 223.410156 294.765625 223.402344 294.753906 C 229.582031 296.824219 234.289062 303.921875 236.835938 309.441406 C 243.175781 323.195312 246.511719 338.640625 251.652344 352.910156 C 255.332031 363.117188 257.914062 373.824219 262.242188 383.785156 C 267.941406 396.910156 274.515625 409.4375 281.183594 422.101562 C 284.03125 427.503906 286.136719 433.222656 288.988281 438.621094 C 289.886719 440.324219 291.410156 443.46875 289.988281 445.359375 C 289.921875 445.449219 289.839844 445.53125 289.746094 445.609375 C 290.625 447.0625 292.472656 447.722656 293.007812 449.429688 C 293.429688 450.78125 293.238281 452.496094 293.070312 453.867188 C 292.65625 457.246094 292.101562 461.453125 289.9375 464.296875 L 315.1875 475.730469 L 217.371094 478.027344 C 217.371094 478.027344 215.777344 480.734375 209.253906 480.757812 L 209.097656 480.757812 C 202.855469 480.738281 199.785156 479.671875 199.425781 479.539062 L 199.386719 479.523438 L 73.6875 485.097656 L 68.707031 476.066406 L 62.195312 476.289062 L 57.347656 468.621094 C 55.421875 468.699219 53.507812 468.859375 51.574219 468.851562 C 43.902344 468.832031 36.507812 466.261719 31.535156 460.230469 C 31.265625 459.90625 31.039062 459.5625 30.84375 459.210938 C 30.359375 459.175781 29.867188 459.132812 29.378906 459.085938 C 28.605469 459.015625 26.816406 459.683594 27.054688 458.945312 C 22.78125 458.839844 18.476562 456.644531 15.113281 454.21875 C 7.480469 448.714844 2.125 441.800781 3.214844 431.988281 C 3.765625 427.054688 6.242188 422.148438 8.195312 417.628906 C 11.171875 410.746094 14.210938 403.824219 17 396.855469 C 20.097656 389.117188 21.683594 380.894531 24.457031 373.039062 C 29.203125 359.589844 34.550781 346.585938 38.222656 332.761719 C 40.011719 326.015625 43.015625 319.898438 45.308594 313.351562 C 47.472656 307.164062 49.238281 299.78125 54.894531 295.691406 C 57.296875 293.953125 61.808594 292.671875 64.820312 292.5625 C 66.417969 292.5 68.007812 293.054688 69.605469 292.605469 C 75.296875 291.003906 80.464844 287.625 86.179688 285.902344 C 89.648438 284.855469 93.097656 284.546875 96.34375 283.558594 L 96.996094 283.351562 C 97.734375 283.101562 98.464844 282.8125 99.183594 282.460938 C 102.566406 280.808594 105.554688 278.441406 108.628906 276.226562 Z M 277.070312 456.996094 L 277.035156 457.136719 Z M 277.441406 455.445312 L 277.410156 455.574219 Z M 214.144531 385.238281 L 214.132812 385.234375 L 213.992188 386.359375 L 213.839844 387.457031 L 213.714844 388.316406 L 213.582031 389.144531 L 213.398438 390.203125 L 213.203125 391.246094 L 212.988281 392.285156 L 212.6875 393.609375 L 212.4375 394.601562 L 212.171875 395.578125 L 212.0625 395.949219 C 211.480469 397.941406 210.769531 399.941406 209.867188 402.050781 C 208.695312 404.789062 205.339844 408.960938 205.175781 411.855469 C 204.917969 416.378906 208.316406 426.503906 209.570312 431.261719 C 211.027344 436.796875 212.304688 442.371094 213.714844 447.921875 C 213.9375 448.789062 214.734375 452.789062 215.117188 454.445312 L 172.59375 454.828125 L 241.132812 454.210938 C 241.917969 453.753906 242.675781 453.320312 243.308594 452.878906 C 243.816406 452.523438 244.285156 452.140625 244.730469 451.746094 C 230.796875 439.789062 226.820312 426.953125 221.726562 408.175781 C 220.121094 402.25 218.492188 396.570312 216.214844 390.863281 C 215.664062 389.484375 215.054688 388.132812 214.460938 386.773438 C 214.316406 386.449219 214.457031 385.890625 214.398438 385.542969 C 214.390625 385.492188 214.378906 385.445312 214.359375 385.402344 L 214.335938 385.359375 L 214.300781 385.316406 L 214.261719 385.285156 L 214.230469 385.265625 L 214.175781 385.246094 Z M 277.820312 453.804688 L 277.691406 454.371094 C 277.734375 454.183594 277.777344 453.992188 277.820312 453.804688 Z M 275.304688 452.445312 L 275.035156 453.070312 L 275.324219 452.394531 Z M 275.6875 451.539062 L 275.585938 451.785156 L 275.734375 451.429688 Z M 275.796875 451.289062 L 276.074219 450.640625 C 275.980469 450.859375 275.886719 451.074219 275.796875 451.289062 Z M 63.949219 411.9375 C 62.148438 415.945312 60.433594 419.996094 59.070312 424.082031 C 58.75 425.042969 58.75 426.097656 58.808594 427.167969 C 58.894531 427.175781 58.972656 427.183594 59.039062 427.1875 C 59.335938 427.199219 60.199219 426.40625 60.5 426.265625 C 61.726562 425.691406 64.011719 424.503906 65.484375 424.558594 C 68.507812 424.671875 71.800781 425.71875 74.921875 426.667969 L 75.550781 426.859375 Z M 73.878906 391.132812 C 73.6875 390.746094 73.476562 390.542969 73.390625 390.464844 L 73.398438 390.453125 C 73.332031 390.417969 73.339844 390.417969 73.390625 390.464844 C 71.214844 393.734375 70.230469 397.964844 68.65625 401.539062 C 67.742188 403.621094 66.785156 405.710938 65.824219 407.808594 L 80.589844 426.542969 C 79.351562 420.273438 77.933594 414.003906 76.648438 407.839844 C 75.800781 403.785156 75.183594 399.722656 74.710938 395.613281 C 74.628906 394.921875 74.550781 394.226562 74.445312 393.535156 L 74.273438 392.527344 L 74.109375 391.75 L 73.933594 391.246094 Z M 114.101562 256.828125 C 114.023438 257.765625 113.984375 258.703125 113.976562 259.636719 C 113.953125 263.714844 114.96875 267.8125 116.429688 271.644531 C 116.6875 271.539062 116.949219 271.441406 117.210938 271.347656 C 118.609375 270.84375 120.105469 270.417969 121.597656 270.238281 C 119.542969 266.84375 117.269531 263.550781 115.554688 260.042969 C 115.035156 258.988281 114.558594 257.914062 114.101562 256.828125 Z M 179.714844 242.328125 L 179.648438 242.441406 Z M 181.269531 239.15625 L 181.230469 239.246094 Z M 182.742188 234.617188 L 182.738281 234.636719 Z M 181.941406 216.515625 L 181.945312 216.523438 Z M 179.273438 215.640625 L 179.269531 215.644531 Z M 180.730469 215.304688 L 180.738281 215.3125 Z M 179.871094 215.210938 L 179.863281 215.214844 Z M 180.441406 215.195312 L 180.453125 215.195312 Z M 180.097656 215.164062 L 180.089844 215.164062 Z M 180.253906 215.164062 L 180.257812 215.164062 Z M 119.8125 212.003906 L 119.8125 212.015625 L 119.816406 211.988281 Z M 119.847656 211.859375 L 119.84375 211.871094 Z M 120.203125 210.578125 L 120.203125 210.585938 Z M 120.390625 210.007812 L 120.386719 210.023438 Z M 121.867188 206.613281 L 121.859375 206.625 L 121.875 206.601562 Z M 122.078125 206.226562 L 122.070312 206.242188 Z M 122.296875 205.84375 L 122.289062 205.859375 Z M 122.363281 205.730469 L 122.355469 205.746094 L 122.371094 205.71875 Z M 122.507812 205.488281 L 122.5 205.5 L 122.519531 205.472656 Z M 122.65625 205.246094 L 122.652344 205.257812 L 122.667969 205.230469 Z M 122.738281 205.121094 L 122.722656 205.144531 Z M 122.882812 204.894531 L 122.871094 204.910156 L 122.890625 204.882812 Z M 123.035156 204.664062 L 123.027344 204.679688 L 123.042969 204.648438 Z M 123.191406 204.4375 L 123.183594 204.449219 L 123.199219 204.421875 Z M 123.273438 204.320312 L 123.257812 204.339844 Z M 123.425781 204.109375 L 123.414062 204.125 L 123.429688 204.097656 Z M 123.582031 203.894531 L 123.574219 203.910156 L 123.59375 203.882812 Z M 123.582031 203.894531 " fill-opacity="1" fill-rule="evenodd"/></g><g clip-path="url(#4038c7593f)"><path fill="#323231" d="M 46.789062 451.925781 L 62.199219 476.289062 L 68.707031 476.066406 L 73.6875 485.09375 L 199.390625 479.523438 C 199.390625 479.523438 202.441406 480.734375 209.097656 480.753906 C 215.753906 480.773438 217.371094 478.023438 217.371094 478.023438 L 315.1875 475.730469 L 267.140625 453.972656 L 172.59375 454.828125 L 156.460938 454.816406 L 172.59375 454.828125 L 215.117188 454.445312 C 214.734375 452.789062 213.9375 448.789062 213.714844 447.917969 C 212.304688 442.371094 211.027344 436.792969 209.570312 431.257812 C 208.316406 426.503906 204.917969 416.378906 205.175781 411.855469 C 205.339844 408.960938 208.695312 404.785156 209.867188 402.046875 C 212.316406 396.320312 213.390625 391.378906 214.132812 385.234375 C 214.652344 385.300781 214.25 386.292969 214.457031 386.773438 C 215.054688 388.132812 215.664062 389.484375 216.214844 390.859375 C 218.492188 396.570312 220.121094 402.25 221.726562 408.175781 C 227.164062 428.214844 231.328125 441.492188 247.683594 454.148438 L 256.9375 454.066406 C 258.367188 453.917969 259.503906 453.789062 259.835938 453.722656 C 267.101562 452.304688 273.546875 448.738281 280.5625 447.023438 C 282.402344 446.570312 288.75 447.007812 289.988281 445.359375 C 291.410156 443.464844 289.886719 440.324219 288.988281 438.621094 C 286.136719 433.222656 284.03125 427.503906 281.183594 422.101562 C 274.515625 409.4375 267.941406 396.910156 262.242188 383.785156 C 257.914062 373.820312 255.332031 363.113281 251.652344 352.910156 C 246.511719 338.640625 243.175781 323.191406 236.835938 309.4375 C 234.289062 303.921875 229.582031 296.820312 223.402344 294.75 C 223.410156 294.765625 222.628906 294.492188 222.378906 294.421875 C 221.636719 294.214844 220.921875 293.921875 220.214844 293.621094 C 218.007812 292.675781 215.839844 291.597656 213.65625 290.59375 C 207.65625 287.828125 201.617188 285.15625 195.648438 282.300781 C 190.804688 279.984375 184.328125 279.09375 180.144531 275.539062 C 179.113281 274.667969 178.066406 273.394531 177.179688 272.085938 C 175.476562 267.855469 173.347656 263.890625 169.039062 262.066406 C 167.128906 261.257812 164.972656 261.101562 162.929688 260.898438 C 161.039062 260.714844 159.199219 261.082031 157.402344 261.636719 L 123.988281 264.851562 C 123.949219 264.894531 123.917969 267.226562 123.855469 267.621094 C 123.71875 268.453125 123.574219 269.285156 123.417969 270.113281 C 123.027344 270.105469 122.617188 270.15625 122.496094 270.160156 C 120.707031 270.25 118.890625 270.746094 117.210938 271.347656 C 110.472656 273.761719 105.523438 279.367188 99.183594 282.460938 C 95.148438 284.429688 90.683594 284.539062 86.179688 285.898438 C 80.464844 287.625 75.296875 291.003906 69.605469 292.601562 C 68.007812 293.050781 66.417969 292.5 64.820312 292.558594 C 61.808594 292.671875 57.300781 293.949219 54.894531 295.6875 C 49.238281 299.78125 47.472656 307.164062 45.308594 313.347656 C 43.015625 319.898438 40.011719 326.015625 38.222656 332.757812 C 34.550781 346.585938 29.203125 359.589844 24.457031 373.035156 C 21.683594 380.894531 20.097656 389.113281 17.003906 396.851562 C 14.210938 403.820312 11.171875 410.742188 8.195312 417.628906 C 6.242188 422.148438 3.765625 427.050781 3.21875 431.988281 C 2.125 441.800781 7.480469 448.710938 15.113281 454.214844 C 18.476562 456.644531 22.78125 458.839844 27.054688 458.945312 C 26.816406 459.683594 28.605469 459.015625 29.378906 459.085938 C 31.9375 459.320312 34.46875 459.535156 36.929688 458.652344 C 40.273438 457.445312 43.730469 454.855469 46.789062 451.925781 Z M 84.542969 444.707031 C 84.21875 442.449219 82.792969 439.425781 82.511719 437.519531 C 81.054688 427.65625 78.6875 417.613281 76.648438 407.835938 C 75.800781 403.785156 75.183594 399.722656 74.710938 395.613281 C 74.566406 394.359375 74.414062 393.09375 74.136719 391.863281 C 73.9375 390.988281 73.519531 390.582031 73.390625 390.464844 L 73.398438 390.453125 C 73.332031 390.417969 73.339844 390.417969 73.390625 390.464844 C 71.214844 393.734375 70.230469 397.964844 68.65625 401.539062 C 65.40625 408.921875 61.621094 416.429688 59.070312 424.085938 C 58.359375 426.214844 59.21875 428.8125 58.804688 431.03125 C 57.9375 435.644531 56.300781 440.269531 53.5625 444.152344 Z M 84.542969 444.707031 " fill-opacity="1" fill-rule="evenodd"/></g><g clip-path="url(#4cf6f18218)"><path fill="#323231" d="M 156.460938 454.816406 L 184.824219 476.734375 L 82.011719 480.46875 L 77.472656 475.765625 L 170.152344 472.589844 L 150.699219 454.8125 L 170.152344 472.589844 L 68.707031 476.066406 L 73.6875 485.097656 L 199.390625 479.523438 C 199.390625 479.523438 202.441406 480.734375 209.097656 480.753906 C 215.753906 480.777344 217.371094 478.023438 217.371094 478.023438 L 315.1875 475.730469 L 267.140625 453.972656 L 172.59375 454.828125 Z M 156.460938 454.816406 " fill-opacity="0.54" fill-rule="evenodd"/></g><path fill="#00cc93" d="M 41.738281 443.945312 L 62.199219 476.289062 L 170.152344 472.589844 L 140.734375 445.707031 Z M 41.738281 443.945312 " fill-opacity="0.7" fill-rule="evenodd"/><path fill="#00cc93" d="M 150.695312 454.816406 L 170.152344 472.589844 L 77.472656 475.765625 L 82.011719 480.46875 L 184.824219 476.734375 L 156.46875 454.816406 Z M 150.695312 454.816406 " fill-opacity="0.5" fill-rule="evenodd"/><path fill="#00cc93" d="M 134.019531 445.585938 L 140.734375 445.707031 L 150.699219 454.8125 L 149.679688 453.882812 L 150.699219 454.8125 L 172.59375 454.828125 L 183.652344 454.730469 C 182.816406 450.085938 181.902344 445.445312 181.289062 440.742188 C 178.5 419.351562 181.964844 396.945312 181.964844 375.429688 C 181.859375 375.71875 181.953125 374.816406 181.953125 374.507812 C 181.953125 373.804688 181.992188 373.089844 181.921875 372.390625 C 181.738281 370.542969 181.410156 368.710938 181.214844 366.863281 C 180.628906 361.273438 180.699219 355.628906 180.109375 350.035156 C 178.894531 338.496094 179.59375 326.894531 177.410156 315.429688 C 176.8125 312.304688 176.921875 308.597656 175.933594 305.632812 C 175.695312 304.914062 174.199219 302.070312 174.582031 301.304688 C 174.898438 300.675781 177.070312 299.851562 177.683594 299.523438 C 180.035156 298.269531 182.308594 296.6875 184.59375 295.316406 C 184.972656 295.089844 186.238281 293.882812 186.664062 293.785156 C 186.539062 293.507812 186.25 292.714844 186.082031 292.402344 C 185.542969 291.425781 185.113281 290.417969 184.667969 289.394531 C 183.308594 286.269531 181.957031 283.171875 180.429688 280.121094 C 177.316406 273.890625 176.140625 265.070312 169.039062 262.066406 C 167.128906 261.257812 164.972656 261.101562 162.929688 260.898438 C 161.039062 260.714844 159.199219 261.082031 157.402344 261.636719 L 123.988281 264.851562 C 123.949219 264.894531 123.917969 267.226562 123.855469 267.621094 C 123.410156 270.382812 122.816406 273.117188 122.367188 275.882812 C 120.753906 285.851562 120.121094 296.140625 120.121094 306.226562 C 121.320312 305.695312 123.765625 306.621094 124.902344 307.171875 C 124.824219 307.460938 124.859375 308.65625 124.910156 309.136719 C 125.058594 310.484375 124.96875 311.835938 125.035156 313.1875 C 125.230469 317.257812 125.703125 321.25 126.230469 325.289062 C 127.769531 337.09375 128.671875 348.972656 129.855469 360.816406 C 131.328125 375.546875 131.550781 390.367188 131.910156 405.15625 C 132.128906 414.019531 133.355469 422.847656 133.664062 431.714844 C 133.824219 436.34375 133.890625 440.964844 134.019531 445.585938 Z M 124.902344 307.171875 C 124.921875 307.179688 124.941406 307.191406 124.957031 307.199219 C 124.976562 307.207031 124.992188 307.214844 125.011719 307.226562 C 124.960938 307.078125 124.925781 307.078125 124.902344 307.171875 Z M 186.664062 293.785156 C 186.671875 293.785156 186.683594 293.785156 186.691406 293.78125 C 186.699219 293.78125 186.707031 293.78125 186.714844 293.78125 C 186.742188 293.929688 186.71875 293.90625 186.664062 293.785156 Z M 186.664062 293.785156 " fill-opacity="0.8" fill-rule="evenodd"/><path fill="#e7e7e0" d="M 271.542969 431.941406 C 271.746094 432.011719 271.128906 431.820312 270.917969 431.777344 C 270.558594 431.699219 270.1875 431.730469 269.824219 431.773438 C 268.582031 431.925781 267.4375 432.179688 266.246094 432.554688 C 264.308594 433.164062 263.335938 434.3125 261.734375 435.3125 C 260.355469 436.175781 258.882812 436.613281 257.457031 437.359375 C 255.136719 438.570312 255.691406 441.265625 254.203125 442.9375 C 253.378906 443.863281 251.695312 444.363281 250.726562 445.285156 C 248.109375 447.761719 246.359375 450.734375 243.308594 452.878906 C 241.199219 454.355469 237.667969 455.734375 236.441406 458.199219 C 233.421875 464.273438 242.175781 463.144531 245.398438 462.597656 C 246.078125 462.480469 246.847656 462.175781 247.464844 461.871094 C 247.574219 461.820312 248.558594 461.230469 248.605469 461.316406 C 248.714844 461.503906 248.289062 462.445312 248.246094 462.648438 C 248.050781 463.535156 247.992188 464.671875 248.195312 465.5625 C 248.996094 469.101562 254.390625 470.007812 257.195312 468.394531 C 257.390625 468.28125 257.429688 468.785156 257.601562 468.929688 C 257.929688 469.210938 258.277344 469.480469 258.65625 469.699219 C 259.742188 470.320312 261.167969 471.070312 262.445312 471.015625 C 266.363281 470.851562 267.523438 468.089844 269.332031 465.003906 C 271.957031 460.527344 274.027344 455.410156 276.074219 450.640625 C 276.5625 449.507812 277.167969 448.402344 277.894531 447.410156 C 278.007812 447.257812 278.390625 446.34375 278.597656 446.523438 C 279.484375 447.316406 278.601562 450.320312 278.398438 451.226562 C 277.460938 455.414062 276.558594 459.566406 275.152344 463.632812 C 274.621094 465.171875 272.722656 468.410156 275.0625 469.417969 C 277.664062 470.535156 278.972656 467.472656 281.332031 467.722656 C 283.773438 467.980469 286.457031 467.351562 288.429688 465.828125 C 291.871094 463.175781 292.574219 457.925781 293.070312 453.867188 C 293.238281 452.496094 293.429688 450.78125 293.007812 449.429688 C 292.453125 447.65625 290.472656 447.011719 289.648438 445.429688 C 288.367188 442.976562 288.515625 440.113281 287.28125 437.675781 C 286.332031 435.800781 284.535156 435.476562 282.769531 434.667969 C 279.761719 433.289062 278.578125 432.382812 274.878906 432.554688 Z M 55.023438 426.707031 C 55.421875 426.511719 58.226562 427.15625 59.039062 427.1875 C 59.335938 427.199219 60.199219 426.40625 60.5 426.265625 C 61.726562 425.691406 64.011719 424.503906 65.484375 424.558594 C 69.535156 424.710938 74.070312 426.539062 78.03125 427.566406 C 79.039062 427.828125 80.519531 428.597656 81.503906 428.632812 C 84.613281 428.75 87.925781 428.738281 90.664062 430.523438 C 93.496094 432.367188 93.585938 436.21875 95.117188 438.929688 C 96.015625 440.519531 97.683594 442.007812 98.113281 443.859375 C 98.59375 445.910156 95.921875 446.941406 94.453125 445.980469 C 93.910156 447.191406 94.273438 448.539062 94.046875 449.847656 C 93.90625 450.679688 93.195312 451.882812 93.332031 452.726562 C 93.492188 453.710938 93.851562 454.566406 93.609375 455.589844 C 92.886719 458.609375 90.03125 458.507812 88.382812 460.035156 C 88.335938 460.078125 88.605469 461.152344 88.578125 461.328125 C 88.40625 462.46875 88.109375 463.542969 87.433594 464.503906 C 86.207031 466.25 84.765625 465.8125 83.070312 466.308594 C 82.699219 466.417969 82.601562 467.367188 82.34375 467.652344 C 81.171875 468.957031 78.839844 470.460938 77.039062 470.027344 C 76.695312 470.316406 73.621094 469.988281 73.09375 469.96875 C 69.164062 469.820312 65.296875 468.976562 61.386719 468.660156 C 58.085938 468.394531 54.863281 468.859375 51.574219 468.851562 C 43.902344 468.832031 36.507812 466.261719 31.535156 460.230469 C 29.695312 457.996094 29.789062 454.960938 28.566406 452.625 C 27.710938 450.988281 26.066406 449.902344 25.054688 448.371094 C 26.089844 444.75 28.90625 441.5625 31.628906 439.035156 C 36.75 434.28125 42.582031 429.46875 49.285156 427.210938 Z M 144.183594 205.882812 C 144.429688 205.804688 143.796875 205.53125 143.667969 205.308594 C 143.339844 204.746094 142.984375 204.167969 142.546875 203.683594 C 141.445312 202.476562 139.859375 200.820312 138.378906 200.109375 C 133.394531 197.71875 126.980469 199.449219 123.664062 203.789062 C 121.296875 206.886719 119.339844 211.664062 119.371094 215.617188 C 119.421875 221.234375 121.523438 226.167969 120.183594 231.878906 C 118.625 238.53125 112.511719 243.292969 111.238281 249.96875 C 111.183594 249.902344 111.578125 250.730469 111.628906 250.835938 C 111.988281 251.558594 112.238281 252.339844 112.546875 253.082031 C 113.515625 255.410156 114.445312 257.777344 115.550781 260.042969 C 118.765625 266.613281 123.949219 272.441406 125.960938 279.566406 C 125.984375 279.578125 126.015625 280.332031 126.039062 280.417969 C 126.347656 281.511719 126.6875 282.589844 127.035156 283.675781 C 128.351562 287.804688 129.640625 291.980469 130.8125 296.132812 C 131.425781 296.078125 131.371094 297.234375 131.71875 297.746094 C 132.984375 299.609375 133.84375 301.691406 135.109375 303.554688 C 139.207031 309.589844 142.882812 315.894531 146.980469 321.929688 C 147.945312 323.347656 149.082031 324.617188 149.984375 326.070312 C 150.164062 326.355469 150.671875 327.589844 151.070312 327.664062 C 151.054688 327.660156 151.453125 326.582031 151.488281 326.496094 C 152.089844 325.046875 152.652344 323.585938 153.292969 322.15625 C 154.847656 318.6875 155.957031 314.992188 157.59375 311.574219 C 162.171875 302.023438 164.992188 291.664062 169.421875 282.09375 C 169.625 282.589844 169.496094 281.03125 169.496094 280.496094 C 169.492188 279.191406 169.480469 277.890625 169.515625 276.582031 C 169.621094 272.898438 170.335938 268.664062 169.84375 264.996094 C 170.039062 264.828125 170.324219 262.347656 170.46875 261.855469 C 171.386719 258.714844 172.402344 255.609375 173.28125 252.460938 C 173.730469 250.839844 174.160156 249.207031 174.722656 247.617188 C 174.804688 247.386719 175.03125 246.242188 175.21875 246.113281 C 176.847656 245.007812 178.59375 244.246094 179.648438 242.441406 C 182.800781 237.058594 183.984375 230.171875 183.980469 223.992188 C 183.980469 222.777344 183.792969 221.535156 183.621094 220.335938 C 183.453125 219.136719 181.007812 213.109375 179.082031 215.882812 C 177.328125 218.40625 176.535156 223.792969 176.921875 226.664062 C 176.644531 226.867188 175.777344 225.566406 175.699219 225.449219 C 174.886719 224.175781 174.054688 222.832031 173.617188 221.378906 C 173.566406 221.214844 173.332031 219.980469 173.164062 219.945312 C 172.925781 219.902344 172.695312 220.113281 172.453125 220.09375 C 171.703125 220.035156 170.902344 219.933594 170.191406 219.679688 C 168.007812 218.90625 166.066406 217.703125 164.46875 215.996094 C 161.910156 213.269531 160.332031 209.601562 158.648438 206.304688 C 158.070312 205.171875 157.644531 203.742188 156.792969 202.777344 C 155.183594 200.949219 151.945312 199.765625 149.785156 201.378906 C 148.671875 202.207031 147.824219 203.953125 147.195312 205.152344 Z M 144.183594 205.882812 " fill-opacity="1" fill-rule="evenodd"/><path fill="#323231" d="M 258.082031 469.316406 C 258.265625 469.453125 258.457031 469.582031 258.65625 469.699219 L 258.847656 469.808594 C 258.25 466.644531 259.414062 463.445312 260.398438 460.480469 C 262.082031 455.398438 263.878906 450.308594 265.445312 445.199219 C 265.859375 443.847656 266.558594 442.503906 267.234375 441.265625 C 267.285156 441.175781 267.367188 441.101562 267.453125 441.027344 C 267.582031 440.921875 267.71875 440.824219 267.832031 440.714844 C 268.054688 440.507812 268.199219 440.269531 268.183594 439.976562 C 268.175781 439.789062 268.015625 439.640625 267.828125 439.648438 C 267.640625 439.660156 267.496094 439.816406 267.503906 440.003906 C 267.507812 440.058594 267.476562 440.101562 267.441406 440.144531 C 267.390625 440.199219 267.332031 440.253906 267.269531 440.304688 C 267.03125 440.5 266.769531 440.695312 266.636719 440.941406 C 265.941406 442.214844 265.222656 443.605469 264.792969 445 C 263.230469 450.105469 261.433594 455.191406 259.75 460.265625 C 258.796875 463.144531 257.710938 466.242188 258.082031 469.316406 Z M 150.601562 466.785156 C 134.871094 467.058594 119.140625 467.023438 103.402344 467.65625 C 98.179688 467.867188 92.359375 466.871094 87.214844 468.007812 C 87.03125 468.050781 86.917969 468.230469 86.957031 468.414062 C 87 468.597656 87.179688 468.710938 87.363281 468.671875 C 92.46875 467.542969 98.246094 468.546875 103.429688 468.335938 C 119.160156 467.703125 134.886719 467.738281 150.617188 467.464844 C 150.804688 467.464844 150.953125 467.308594 150.949219 467.121094 C 150.945312 466.933594 150.792969 466.78125 150.601562 466.785156 Z M 280.527344 467.761719 C 280.769531 467.710938 281.023438 467.691406 281.289062 467.71875 C 283.148438 463.546875 284.359375 458.84375 285.789062 454.742188 C 286.304688 453.269531 286.808594 451.761719 287.230469 450.261719 C 287.296875 450.03125 287.316406 449.527344 287.414062 449.109375 C 287.4375 449 287.46875 448.898438 287.511719 448.8125 C 287.53125 448.773438 287.546875 448.738281 287.574219 448.71875 C 287.738281 448.625 287.792969 448.414062 287.695312 448.253906 C 287.601562 448.089844 287.390625 448.039062 287.230469 448.132812 C 287.046875 448.238281 286.902344 448.453125 286.8125 448.730469 C 286.667969 449.171875 286.648438 449.8125 286.574219 450.074219 C 286.15625 451.5625 285.65625 453.058594 285.148438 454.519531 C 283.6875 458.710938 282.464844 463.53125 280.527344 467.761719 Z M 82.808594 466.570312 C 80.648438 465.890625 78.484375 465.125 76.28125 464.789062 C 74.605469 464.53125 72.738281 464.921875 71.121094 464.527344 C 68.367188 463.855469 65.007812 462.605469 62.574219 462.097656 C 62.390625 462.058594 62.273438 461.878906 62.3125 461.695312 C 62.351562 461.507812 62.53125 461.390625 62.714844 461.429688 C 65.15625 461.9375 68.523438 463.191406 71.28125 463.867188 C 72.878906 464.253906 74.730469 463.859375 76.382812 464.113281 C 78.867188 464.496094 81.300781 465.410156 83.738281 466.148438 C 83.519531 466.191406 83.296875 466.238281 83.070312 466.304688 C 82.964844 466.335938 82.878906 466.4375 82.808594 466.570312 Z M 254.363281 442.742188 C 254.3125 442.808594 254.257812 442.875 254.203125 442.9375 C 253.378906 443.863281 251.695312 444.363281 250.726562 445.285156 C 248.585938 447.3125 247.023438 449.671875 244.851562 451.636719 C 244.964844 451.027344 245.109375 450.484375 245.160156 450.234375 C 245.976562 446.265625 246.714844 442.46875 249.109375 439.082031 C 251.058594 436.328125 253.535156 434.625 256.421875 433.011719 C 266.355469 427.453125 283.101562 426.648438 288.648438 438.894531 C 289.4375 440.644531 289.679688 442.964844 289.707031 444.867188 C 289.710938 445.089844 289.710938 445.3125 289.707031 445.539062 C 289.6875 445.5 289.667969 445.464844 289.648438 445.429688 C 288.367188 442.976562 288.515625 440.113281 287.28125 437.675781 C 286.332031 435.800781 284.535156 435.472656 282.769531 434.667969 C 279.761719 433.289062 278.578125 432.382812 274.878906 432.554688 L 271.542969 431.941406 C 271.746094 432.011719 271.128906 431.820312 270.917969 431.777344 C 270.558594 431.699219 270.1875 431.730469 269.824219 431.773438 C 268.582031 431.925781 267.441406 432.179688 266.246094 432.554688 C 264.796875 433.011719 263.890625 433.765625 262.855469 434.539062 C 263.738281 434.519531 264.617188 434.570312 265.453125 434.703125 C 266.460938 434.863281 267.5 434.886719 268.496094 435.078125 C 268.722656 435.121094 268.960938 435.300781 269.175781 435.5 C 269.253906 435.574219 269.375 435.671875 269.441406 435.71875 C 269.566406 435.648438 269.730469 435.664062 269.839844 435.769531 C 269.976562 435.898438 269.984375 436.113281 269.851562 436.25 C 269.761719 436.347656 269.660156 436.394531 269.558594 436.417969 C 269.429688 436.445312 269.285156 436.417969 269.136719 436.339844 C 268.988281 436.257812 268.824219 436.097656 268.65625 435.945312 C 268.558594 435.859375 268.46875 435.765625 268.371094 435.746094 C 267.382812 435.554688 266.34375 435.535156 265.347656 435.375 C 264.210938 435.195312 262.996094 435.171875 261.789062 435.28125 C 261.773438 435.292969 261.753906 435.304688 261.734375 435.316406 C 260.355469 436.175781 258.882812 436.613281 257.457031 437.359375 C 256.148438 438.042969 255.753906 439.203125 255.390625 440.386719 C 255.460938 440.464844 255.519531 440.59375 255.507812 440.773438 C 255.492188 441.09375 255.246094 441.792969 255.222656 441.925781 C 254.9375 443.601562 254.378906 445.242188 253.957031 446.890625 C 252.441406 452.828125 249.917969 458.503906 248.070312 464.339844 C 248.066406 463.757812 248.132812 463.160156 248.246094 462.652344 C 248.292969 462.445312 248.714844 461.503906 248.605469 461.316406 C 248.589844 461.289062 248.480469 461.332031 248.335938 461.402344 C 250.035156 456.527344 252.023438 451.71875 253.296875 446.722656 C 253.636719 445.398438 254.0625 444.078125 254.363281 442.742188 Z M 93.515625 453.613281 C 93.527344 453.675781 93.542969 453.734375 93.554688 453.796875 C 91.898438 452.335938 90.234375 450.902344 88.785156 449.191406 C 86.957031 447.027344 85.878906 444.460938 83.484375 442.828125 C 81.09375 441.195312 77.539062 440.515625 74.855469 439.460938 C 73.054688 438.75 71.289062 438.019531 69.4375 437.453125 C 69.222656 437.386719 67.402344 436.78125 67.035156 436.667969 L 67.003906 436.65625 C 66.835938 436.621094 66.71875 436.464844 66.734375 436.292969 C 66.742188 436.207031 66.777344 436.132812 66.847656 436.070312 C 66.878906 436.042969 66.953125 435.976562 67.097656 435.984375 C 67.105469 435.984375 67.15625 435.992188 67.238281 436.015625 C 67.601562 436.128906 69.425781 436.734375 69.636719 436.800781 C 71.507812 437.375 73.285156 438.109375 75.105469 438.824219 C 77.832031 439.898438 81.441406 440.605469 83.871094 442.265625 C 86.316406 443.9375 87.4375 446.539062 89.304688 448.75 C 90.5 450.164062 91.839844 451.382812 93.207031 452.585938 C 93.304688 452.21875 93.335938 451.792969 93.390625 451.46875 C 93.5 450.824219 93.644531 450.179688 93.773438 449.539062 C 93.878906 449.011719 94.117188 448.523438 94.152344 447.980469 C 94.191406 447.359375 94.085938 446.425781 94.277344 445.886719 L 102.546875 462.488281 C 102.703125 462.402344 102.925781 462.339844 103.183594 462.3125 C 103.859375 462.242188 104.847656 462.335938 105.199219 462.308594 C 107.796875 462.113281 110.378906 461.589844 112.980469 461.359375 C 119.769531 460.753906 126.644531 461.03125 133.453125 460.898438 C 137.632812 460.816406 142.113281 460.089844 146.261719 460.441406 C 146.445312 460.453125 146.585938 460.621094 146.570312 460.808594 C 146.554688 460.996094 146.390625 461.132812 146.203125 461.117188 C 142.078125 460.769531 137.621094 461.496094 133.46875 461.578125 C 126.671875 461.710938 119.816406 461.433594 113.042969 462.035156 C 110.433594 462.269531 107.851562 462.792969 105.25 462.988281 C 104.949219 463.011719 104.175781 462.945312 103.539062 462.96875 C 103.351562 462.976562 103.171875 462.992188 103.03125 463.027344 C 102.957031 463.042969 102.894531 463.046875 102.863281 463.082031 C 102.859375 463.085938 102.851562 463.089844 102.847656 463.097656 L 103.21875 463.835938 L 102.613281 463.199219 C 102.53125 463.203125 102.449219 463.175781 102.382812 463.117188 C 102.296875 463.042969 102.257812 462.9375 102.265625 462.832031 Z M 270.867188 462.203125 C 272.796875 458.457031 274.441406 454.4375 276.074219 450.640625 C 276.5625 449.507812 277.167969 448.402344 277.894531 447.410156 C 278.003906 447.257812 278.390625 446.34375 278.597656 446.523438 C 279.484375 447.316406 278.601562 450.320312 278.398438 451.226562 C 277.644531 454.59375 276.914062 457.933594 275.925781 461.226562 C 274.292969 461.695312 272.59375 462.015625 270.867188 462.203125 Z M 88.589844 459.855469 C 82.445312 457.449219 76.324219 454.914062 70.0625 452.777344 C 68.234375 452.15625 66.265625 452.007812 64.484375 451.378906 C 63.929688 451.183594 63.449219 450.878906 62.964844 450.585938 C 62.527344 450.328125 62.082031 450.082031 61.539062 449.96875 C 61.261719 449.910156 60.101562 449.734375 59.257812 449.734375 C 59.074219 449.738281 58.910156 449.746094 58.773438 449.765625 C 58.734375 449.773438 58.691406 449.785156 58.65625 449.792969 C 58.632812 449.917969 58.546875 450.023438 58.417969 450.058594 C 58.238281 450.113281 58.050781 450.011719 57.996094 449.832031 C 57.949219 449.675781 57.972656 449.542969 58.042969 449.425781 C 58.109375 449.3125 58.238281 449.207031 58.445312 449.144531 C 58.675781 449.074219 59.039062 449.046875 59.445312 449.058594 C 60.3125 449.078125 61.402344 449.246094 61.675781 449.300781 C 62.296875 449.429688 62.808594 449.703125 63.3125 450.003906 C 63.761719 450.269531 64.199219 450.558594 64.710938 450.738281 C 66.488281 451.367188 68.457031 451.511719 70.28125 452.132812 C 76.699219 454.324219 82.972656 456.933594 89.277344 459.394531 C 89.035156 459.53125 88.804688 459.683594 88.589844 459.855469 Z M 30.769531 459.070312 C 28.527344 458.542969 26.472656 457.515625 24.746094 455.933594 C 23.257812 454.570312 21.65625 452.609375 20.992188 450.667969 C 19.683594 446.859375 22.011719 442.25 24.046875 439.199219 C 29.238281 431.414062 38.347656 425.519531 47.476562 423.691406 C 49.238281 423.339844 50.867188 423.308594 52.640625 423.203125 C 53.394531 423.160156 54.375 422.988281 55.074219 423.351562 C 56.511719 424.097656 57.476562 425.476562 58.132812 427.074219 C 56.984375 426.886719 55.324219 426.5625 55.023438 426.707031 L 49.285156 427.207031 C 42.582031 429.46875 36.75 434.28125 31.628906 439.035156 C 28.90625 441.558594 26.089844 444.75 25.054688 448.371094 C 26.066406 449.902344 27.710938 450.984375 28.566406 452.621094 C 29.589844 454.578125 29.691406 457.019531 30.769531 459.070312 Z M 160.742188 454.820312 L 161.421875 454.820312 C 161.726562 446.164062 162.972656 437.378906 163.457031 428.824219 C 164.359375 412.8125 164.53125 396.460938 164.574219 380.410156 C 164.601562 368.796875 166.453125 358.523438 163.089844 347.390625 C 161.753906 342.976562 159.855469 338.867188 157.527344 335.023438 C 157.570312 334.988281 157.621094 334.925781 157.648438 334.816406 C 157.667969 334.742188 157.660156 334.664062 157.632812 334.597656 L 157.632812 334.46875 C 157.757812 334.132812 157.898438 333.800781 158.03125 333.46875 C 158.351562 332.679688 158.683594 331.894531 159.003906 331.105469 C 160.03125 328.554688 161.273438 325.789062 163.277344 323.847656 C 164.386719 322.773438 165.449219 321.765625 166.640625 320.824219 C 166.691406 320.785156 166.746094 320.71875 166.777344 320.617188 C 166.796875 320.554688 166.804688 320.449219 166.800781 320.3125 C 166.777344 319.824219 166.53125 318.730469 166.519531 318.59375 C 166.390625 317.347656 166.417969 316.066406 166.148438 314.835938 C 166.085938 314.542969 165.921875 314.03125 165.851562 313.5625 C 165.816406 313.320312 165.792969 313.089844 165.863281 312.9375 C 166.328125 311.945312 167.453125 310.9375 168.167969 310.121094 C 169.640625 308.4375 171.035156 306.691406 172.605469 305.09375 C 172.957031 304.738281 174.117188 303.777344 174.832031 302.96875 C 174.734375 302.691406 174.652344 302.425781 174.597656 302.1875 C 174.523438 302.28125 174.4375 302.382812 174.339844 302.492188 C 173.640625 303.296875 172.472656 304.261719 172.121094 304.617188 C 170.542969 306.222656 169.140625 307.980469 167.65625 309.671875 C 166.902344 310.53125 165.734375 311.605469 165.246094 312.648438 C 165.128906 312.898438 165.121094 313.269531 165.179688 313.664062 C 165.25 314.148438 165.417969 314.679688 165.484375 314.980469 C 165.75 316.1875 165.714844 317.441406 165.84375 318.664062 C 165.855469 318.792969 166.0625 320.078125 166.109375 320.378906 C 164.945312 321.308594 163.898438 322.300781 162.804688 323.359375 C 160.730469 325.363281 159.433594 328.214844 158.371094 330.851562 C 158.054688 331.640625 157.722656 332.425781 157.402344 333.214844 C 157.269531 333.535156 157.132812 333.863281 157.011719 334.191406 C 152.335938 326.761719 146.058594 320.367188 139.171875 314.800781 C 135.609375 311.917969 131.753906 309.597656 127.6875 307.496094 C 126.476562 306.867188 125.238281 306.273438 124.039062 305.613281 C 123.769531 305.464844 122.601562 304.851562 122.40625 304.75 C 122.371094 304.722656 122.332031 304.699219 122.289062 304.6875 C 122.039062 304.605469 121.921875 304.78125 121.898438 304.8125 C 121.878906 304.84375 121.730469 305.128906 122.007812 305.304688 C 122.152344 305.398438 123.40625 306.039062 123.710938 306.210938 C 124.914062 306.875 126.15625 307.46875 127.375 308.101562 C 131.398438 310.179688 135.214844 312.476562 138.746094 315.332031 C 149.304688 323.867188 158.441406 334.367188 162.4375 347.585938 C 165.777344 358.652344 163.921875 368.863281 163.890625 380.410156 C 163.851562 396.445312 163.679688 412.785156 162.777344 428.785156 C 162.292969 437.355469 161.046875 446.148438 160.742188 454.820312 Z M 152.675781 454.8125 L 153.367188 454.8125 C 153.910156 451.972656 154.464844 449.132812 154.789062 446.28125 C 157.082031 426.085938 158.445312 405.539062 158.382812 385.214844 C 158.355469 376.359375 158.890625 367.421875 157.429688 358.675781 C 156.078125 350.589844 153.3125 343.152344 150.867188 335.339844 C 149.726562 331.707031 148.300781 326.347656 145.449219 323.605469 C 145.3125 323.472656 145.097656 323.480469 144.96875 323.613281 C 144.835938 323.75 144.839844 323.964844 144.976562 324.09375 C 147.757812 326.769531 149.109375 332.007812 150.214844 335.542969 C 152.65625 343.324219 155.410156 350.734375 156.757812 358.789062 C 158.210938 367.5 157.675781 376.398438 157.703125 385.214844 C 157.761719 405.515625 156.402344 426.035156 154.113281 446.203125 C 153.785156 449.082031 153.222656 451.945312 152.675781 454.8125 Z M 75.550781 426.859375 L 52.277344 396.933594 L 55.886719 395.207031 L 82.421875 428.867188 L 79.222656 428.046875 C 80.542969 428.628906 81.863281 429.214844 83.183594 429.777344 C 84.003906 430.128906 85.078125 430.429688 86.035156 430.847656 C 86.710938 431.144531 87.332031 431.496094 87.785156 431.953125 C 89.371094 433.53125 89.96875 436.058594 90.859375 438.042969 C 92.125 440.867188 93.816406 443.730469 95.683594 446.339844 C 95.335938 446.332031 94.996094 446.257812 94.691406 446.113281 C 92.972656 443.636719 91.421875 440.960938 90.238281 438.324219 C 89.378906 436.410156 88.832031 433.957031 87.304688 432.433594 C 86.804688 431.929688 86.0625 431.578125 85.289062 431.277344 C 84.464844 430.957031 83.601562 430.695312 82.914062 430.402344 C 79.578125 428.980469 76.238281 427.398438 72.859375 426.113281 C 72.578125 426.007812 72.292969 425.902344 72.011719 425.796875 C 73.203125 426.136719 74.390625 426.511719 75.550781 426.859375 Z M 255.386719 440.390625 L 255.367188 440.460938 Z M 96.996094 283.351562 C 96.777344 283.421875 96.5625 283.492188 96.34375 283.558594 C 96.964844 286.042969 97.417969 288.589844 97.9375 291.089844 C 99.746094 299.804688 100.976562 308.671875 102.46875 317.445312 C 103 320.589844 103.40625 323.730469 104.132812 326.84375 C 104.234375 327.273438 104.253906 328.347656 104.417969 329.109375 C 104.503906 329.515625 104.640625 329.84375 104.8125 330.015625 C 104.902344 330.105469 105.085938 330.179688 105.34375 330.160156 C 105.863281 330.121094 106.894531 329.738281 107.121094 329.695312 C 109.324219 329.28125 111.46875 329.25 113.703125 329.25 L 115.386719 329.25 C 115.367188 329.273438 115.34375 329.296875 115.324219 329.320312 C 114.804688 329.867188 113.898438 330.472656 113.628906 330.683594 C 111.628906 332.261719 110.152344 334.226562 108.375 336.003906 C 108.1875 336.191406 107.640625 337.019531 107.191406 337.5 L 107.1875 337.503906 C 107.171875 337.488281 107.160156 337.472656 107.152344 337.46875 C 107.078125 337.410156 107 337.390625 106.933594 337.390625 C 106.746094 337.390625 106.59375 337.546875 106.59375 337.734375 C 106.59375 337.804688 106.617188 337.867188 106.652344 337.921875 C 106.628906 337.96875 106.613281 338.023438 106.613281 338.078125 C 106.613281 338.199219 106.675781 338.304688 106.769531 338.363281 C 107.125 339.882812 107.921875 344.117188 108.082031 344.675781 C 110.328125 352.707031 111.746094 361.09375 113.820312 369.203125 C 116.425781 379.378906 119.15625 389.601562 123.039062 399.382812 C 125.992188 406.816406 129.164062 413.21875 132.53125 420.457031 C 133.121094 421.730469 133.371094 420.414062 132.519531 418.609375 C 129.375 411.933594 126.402344 406.003906 123.671875 399.128906 C 119.796875 389.378906 117.078125 379.183594 114.480469 369.03125 C 112.40625 360.921875 110.984375 352.53125 108.734375 344.492188 C 108.582031 343.9375 107.792969 339.753906 107.429688 338.210938 C 107.511719 338.144531 107.597656 338.0625 107.6875 337.964844 C 108.132812 337.492188 108.671875 336.671875 108.855469 336.488281 C 110.617188 334.726562 112.074219 332.78125 114.050781 331.21875 C 114.332031 330.996094 115.277344 330.359375 115.816406 329.789062 C 116.121094 329.472656 116.292969 329.148438 116.292969 328.910156 C 116.292969 328.722656 116.140625 328.570312 115.953125 328.570312 L 113.703125 328.570312 C 111.425781 328.570312 109.242188 328.605469 106.996094 329.027344 C 106.800781 329.0625 106.003906 329.359375 105.46875 329.457031 C 105.394531 329.472656 105.304688 329.476562 105.25 329.480469 C 105.226562 329.441406 105.203125 329.390625 105.183594 329.332031 C 105.113281 329.144531 105.0625 328.902344 105.023438 328.644531 C 104.914062 327.917969 104.882812 327.0625 104.792969 326.6875 C 104.074219 323.589844 103.667969 320.464844 103.136719 317.332031 C 101.648438 308.550781 100.414062 299.675781 98.601562 290.953125 C 98.078125 288.425781 97.621094 285.855469 96.996094 283.351562 Z M 237.1875 418.894531 L 237.078125 418.894531 L 237.089844 418.878906 C 237.179688 418.746094 237.3125 418.605469 237.460938 418.472656 C 237.953125 418.015625 238.625 417.582031 238.824219 417.445312 C 240.746094 416.113281 242.886719 415.316406 245.078125 414.546875 C 245.253906 414.484375 245.347656 414.289062 245.285156 414.109375 C 245.222656 413.933594 245.027344 413.839844 244.851562 413.902344 C 242.601562 414.695312 240.410156 415.519531 238.4375 416.886719 C 238.191406 417.058594 237.257812 417.660156 236.742188 418.226562 C 236.449219 418.546875 236.296875 418.878906 236.320312 419.136719 C 236.339844 419.3125 236.453125 419.464844 236.667969 419.539062 C 236.882812 419.609375 237.246094 419.589844 237.398438 419.550781 C 237.566406 419.503906 237.640625 419.398438 237.664062 419.351562 C 237.707031 419.269531 237.710938 419.183594 237.691406 419.101562 C 237.675781 419.046875 237.644531 418.984375 237.582031 418.929688 C 237.46875 418.832031 237.3125 418.824219 237.1875 418.894531 Z M 237.113281 419.425781 L 237.121094 419.429688 L 237.113281 419.421875 Z M 237.105469 419.414062 L 237.109375 419.417969 L 237.097656 419.410156 Z M 58.804688 417.894531 C 58.777344 417.976562 58.78125 418.070312 58.824219 418.152344 C 58.910156 418.320312 59.117188 418.386719 59.285156 418.300781 C 59.351562 418.269531 59.414062 418.210938 59.457031 418.113281 C 59.484375 418.050781 59.503906 417.910156 59.472656 417.722656 C 59.394531 417.199219 59 415.984375 58.984375 415.933594 C 58.339844 414.023438 57.289062 412.476562 55.75 411.167969 C 51.210938 407.316406 45.234375 405.640625 39.375 405.496094 C 39.1875 405.492188 39.03125 405.640625 39.027344 405.828125 C 39.019531 406.015625 39.167969 406.171875 39.355469 406.175781 C 45.0625 406.316406 50.890625 407.9375 55.308594 411.6875 C 56.753906 412.914062 57.734375 414.363281 58.335938 416.152344 C 58.351562 416.199219 58.75 417.6875 58.804688 417.894531 Z M 234.765625 417.117188 C 234.96875 416.550781 235.460938 415.945312 236.035156 415.351562 C 236.953125 414.402344 238.082031 413.492188 238.734375 412.839844 C 243.308594 408.265625 249.066406 404.316406 255.421875 402.859375 C 255.605469 402.820312 255.71875 402.636719 255.675781 402.453125 C 255.632812 402.269531 255.449219 402.15625 255.269531 402.199219 C 248.789062 403.683594 242.914062 407.695312 238.253906 412.359375 C 237.597656 413.011719 236.464844 413.925781 235.542969 414.878906 C 234.894531 415.550781 234.351562 416.25 234.125 416.890625 C 234.0625 417.066406 234.152344 417.261719 234.328125 417.324219 C 234.507812 417.386719 234.703125 417.296875 234.765625 417.117188 Z M 58.15625 409.582031 C 55.566406 405.671875 53.429688 403.308594 48.996094 401.09375 C 48.828125 401.007812 48.625 401.074219 48.539062 401.246094 C 48.457031 401.410156 48.523438 401.617188 48.691406 401.699219 C 53 403.855469 55.070312 406.15625 57.589844 409.957031 C 57.691406 410.113281 57.90625 410.15625 58.0625 410.050781 C 58.21875 409.949219 58.261719 409.738281 58.15625 409.582031 Z M 190.535156 280.351562 L 189.710938 280.078125 C 190.863281 283.179688 191.820312 286.4375 192.46875 289.667969 C 193.988281 297.265625 195.15625 305.066406 196.097656 312.757812 C 196.246094 314 196.988281 317.089844 197.144531 319.386719 C 197.203125 320.277344 197.183594 321.042969 196.976562 321.492188 C 196.941406 321.507812 196.835938 321.554688 196.75 321.574219 C 196.53125 321.621094 196.246094 321.648438 195.914062 321.664062 C 194.289062 321.742188 191.699219 321.488281 191.28125 321.445312 C 191.230469 321.4375 189.566406 321.179688 189.230469 321.136719 C 189.132812 321.125 189.074219 321.136719 189.066406 321.136719 C 188.96875 321.15625 188.914062 321.207031 188.886719 321.238281 C 188.820312 321.308594 188.792969 321.386719 188.792969 321.46875 C 188.792969 321.554688 188.816406 321.648438 188.871094 321.75 C 188.941406 321.871094 189.074219 322.011719 189.253906 322.15625 C 189.714844 322.523438 190.511719 322.945312 190.710938 323.113281 C 192.601562 324.710938 194.878906 325.820312 196.621094 327.539062 C 196.621094 327.644531 196.617188 328.019531 196.582031 328.347656 C 196.4375 329.625 196.042969 331.660156 196.023438 332.007812 C 195.761719 337.019531 194.980469 341.941406 194.09375 346.878906 C 191.316406 362.289062 181.476562 392.058594 181.476562 392.058594 L 181.28125 394.519531 C 181.28125 394.519531 191.976562 362.460938 194.761719 346.996094 C 195.65625 342.035156 196.4375 337.082031 196.703125 332.042969 C 196.726562 331.648438 197.238281 329.066406 197.304688 327.914062 C 197.320312 327.671875 197.3125 327.480469 197.289062 327.367188 C 197.261719 327.242188 197.207031 327.160156 197.160156 327.113281 C 195.398438 325.351562 193.074219 324.222656 191.152344 322.59375 C 191.007812 322.472656 190.574219 322.226562 190.160156 321.960938 C 190.671875 322.039062 191.179688 322.117188 191.207031 322.121094 C 191.695312 322.175781 195.101562 322.503906 196.617188 322.289062 C 196.9375 322.242188 197.183594 322.167969 197.332031 322.074219 C 197.449219 322.003906 197.523438 321.917969 197.570312 321.832031 C 197.828125 321.308594 197.894531 320.40625 197.824219 319.34375 C 197.667969 317.035156 196.921875 313.921875 196.773438 312.675781 C 195.832031 304.964844 194.65625 297.148438 193.136719 289.535156 C 192.515625 286.445312 191.617188 283.332031 190.535156 280.351562 Z M 211.972656 396.257812 C 213.027344 392.726562 213.648438 389.234375 214.132812 385.234375 C 214.300781 385.257812 214.371094 385.375 214.398438 385.542969 C 215.746094 378.578125 217.308594 371.628906 217.847656 364.644531 C 218.132812 360.929688 217.375 357.105469 217.085938 353.414062 C 216.457031 345.472656 216.273438 337.511719 215.527344 329.570312 C 214.769531 321.507812 214.820312 310.726562 211.375 303.332031 C 211.292969 303.164062 211.089844 303.089844 210.921875 303.167969 C 210.75 303.25 210.679688 303.453125 210.757812 303.621094 C 214.171875 310.953125 214.101562 321.640625 214.851562 329.632812 C 215.59375 337.570312 215.78125 345.53125 216.40625 353.46875 C 216.695312 357.125 217.449219 360.914062 217.167969 364.59375 C 216.351562 375.167969 213.1875 385.671875 211.972656 396.257812 Z M 73.878906 391.132812 C 73.976562 391.328125 74.070312 391.570312 74.136719 391.863281 C 74.261719 392.417969 74.359375 392.976562 74.445312 393.535156 C 75.5 374.015625 73.816406 353.121094 70.820312 334.011719 C 69.757812 327.226562 68.972656 320.394531 66.863281 313.824219 C 66.148438 311.59375 65.292969 309.398438 63.988281 307.441406 C 63.558594 306.800781 63.054688 306.203125 62.589844 305.589844 C 62.34375 305.265625 61.820312 304.359375 61.710938 304.25 C 61.542969 304.085938 61.375 304.144531 61.308594 304.175781 C 61.246094 304.203125 61.1875 304.253906 61.148438 304.328125 C 61.136719 304.359375 61.078125 304.484375 61.15625 304.699219 C 61.1875 304.78125 61.25 304.847656 61.324219 304.886719 C 61.5 305.167969 61.875 305.773438 62.046875 306.003906 C 62.507812 306.605469 63 307.1875 63.417969 307.820312 C 64.691406 309.726562 65.519531 311.859375 66.214844 314.03125 C 68.3125 320.570312 69.089844 327.367188 70.148438 334.117188 C 73.015625 352.40625 74.679688 372.34375 73.878906 391.132812 Z M 122.375 305.292969 C 122.332031 305.320312 122.285156 305.339844 122.234375 305.347656 C 122.1875 305.351562 122.132812 305.351562 122.082031 305.332031 C 122.21875 305.378906 122.3125 305.339844 122.375 305.292969 Z M 124.371094 275.339844 L 124.398438 275.363281 C 130.667969 281.335938 138.582031 287.691406 147.816406 286.304688 C 151.890625 285.695312 156.417969 281.179688 159.210938 278.566406 C 160.414062 277.4375 161.796875 276.488281 162.792969 275.160156 C 164.003906 273.546875 165.164062 271.917969 166.296875 270.246094 C 166.378906 270.125 168.152344 268.046875 168.1875 268.152344 C 168.378906 268.730469 166.914062 270.835938 166.699219 271.277344 C 165.226562 274.316406 163.929688 277.382812 162.3125 280.355469 C 160.730469 283.269531 158.820312 286.132812 156.589844 288.597656 C 148.71875 297.300781 139.289062 294.03125 131.101562 287.894531 C 130.046875 287.101562 128.597656 286.628906 127.667969 285.671875 C 127.457031 285.003906 127.246094 284.339844 127.035156 283.675781 C 126.6875 282.589844 126.347656 281.511719 126.039062 280.417969 C 126.015625 280.332031 125.984375 279.578125 125.960938 279.566406 C 125.550781 278.109375 125.003906 276.707031 124.371094 275.339844 Z M 121.761719 229.320312 C 122.050781 232.15625 122.007812 234.984375 121.164062 237.8125 C 120.359375 240.527344 118.800781 243.054688 117.242188 245.453125 C 116.835938 246.289062 116.4375 247.136719 116.082031 248.027344 C 114.621094 251.675781 114.003906 255.714844 113.976562 259.636719 C 113.945312 264.570312 115.441406 269.539062 117.40625 274.019531 C 118.070312 275.539062 118.617188 277.109375 119.375 278.585938 C 119.496094 278.816406 120.523438 280.753906 120.425781 280.773438 C 120.101562 280.851562 119.742188 280.628906 119.394531 280.300781 C 119.785156 280.890625 120.109375 281.402344 120.066406 281.4375 C 119.488281 281.917969 116.695312 279.894531 116.167969 279.65625 C 111.734375 277.644531 107.542969 276.09375 103.546875 273.132812 C 91.714844 264.363281 84.851562 249.757812 87.296875 235.109375 C 88.320312 228.992188 92.070312 223.339844 92.457031 217.210938 C 92.746094 212.625 91.609375 208.121094 91.636719 203.550781 C 91.679688 195.511719 94.792969 186.839844 99.679688 180.53125 C 107.636719 170.257812 119.449219 164.289062 132.675781 165.765625 C 136.941406 166.242188 141.230469 167.472656 145.019531 169.515625 C 145.414062 169.730469 149.226562 171.5 148.785156 172.539062 L 150.699219 173.066406 C 156.679688 171.859375 163.425781 172.398438 169.363281 173.535156 C 171.988281 174.039062 174.949219 174.578125 177.152344 176.171875 C 188.113281 184.117188 187.675781 200.394531 184.847656 211.984375 C 184.339844 214.0625 183.589844 216.101562 182.84375 218.125 C 181.929688 216.164062 180.386719 214.003906 179.082031 215.882812 C 177.332031 218.40625 176.539062 223.792969 176.921875 226.664062 C 176.644531 226.867188 175.777344 225.566406 175.699219 225.449219 C 174.886719 224.175781 174.054688 222.832031 173.617188 221.378906 C 173.566406 221.214844 173.332031 219.980469 173.164062 219.945312 C 172.925781 219.902344 172.695312 220.113281 172.453125 220.09375 C 171.703125 220.035156 170.902344 219.933594 170.191406 219.679688 C 168.007812 218.90625 166.066406 217.703125 164.46875 215.996094 C 161.910156 213.269531 160.332031 209.601562 158.648438 206.304688 C 158.070312 205.171875 157.644531 203.742188 156.792969 202.777344 C 155.183594 200.949219 151.945312 199.765625 149.785156 201.378906 C 148.671875 202.207031 147.824219 203.953125 147.199219 205.152344 L 144.183594 205.882812 C 144.429688 205.804688 143.796875 205.53125 143.667969 205.308594 C 143.339844 204.746094 142.984375 204.167969 142.546875 203.683594 C 141.445312 202.476562 139.859375 200.820312 138.378906 200.109375 C 133.394531 197.71875 126.980469 199.449219 123.660156 203.789062 C 121.960938 206.015625 120.46875 209.113281 119.78125 212.144531 C 119.722656 213.207031 119.703125 214.273438 119.746094 215.351562 C 119.917969 219.765625 121.160156 224.199219 121.6875 228.632812 C 124.289062 227.839844 127.410156 227.03125 130.085938 227.425781 C 130.273438 227.453125 130.398438 227.625 130.371094 227.8125 C 130.34375 228 130.171875 228.128906 129.988281 228.097656 C 127.363281 227.714844 124.300781 228.542969 121.761719 229.320312 Z M 143.113281 272.378906 C 145.414062 272.15625 147.464844 271.46875 149.847656 271.46875 C 150.035156 271.46875 150.1875 271.316406 150.1875 271.128906 C 150.1875 270.941406 150.035156 270.789062 149.847656 270.789062 C 147.445312 270.789062 145.375 271.476562 143.050781 271.699219 C 142.863281 271.71875 142.726562 271.882812 142.742188 272.070312 C 142.761719 272.257812 142.925781 272.394531 143.113281 272.378906 Z M 141.945312 247.652344 C 142.023438 247.589844 142.074219 247.492188 142.074219 247.386719 C 142.074219 247.199219 141.921875 247.046875 141.734375 247.046875 C 141.617188 247.046875 141.453125 247.109375 141.347656 247.3125 C 141.230469 247.539062 141.132812 248.113281 141.117188 248.191406 C 140.902344 249.308594 140.652344 250.414062 140.460938 251.535156 C 140.1875 253.101562 139.4375 255.050781 139.214844 256.8125 C 138.976562 258.722656 139.34375 260.421875 141.363281 261.320312 C 141.621094 261.433594 141.914062 261.625 142.210938 261.757812 C 142.457031 261.867188 142.703125 261.941406 142.945312 261.941406 C 143.136719 261.941406 143.285156 261.785156 143.285156 261.597656 C 143.285156 261.410156 143.136719 261.257812 142.945312 261.257812 C 142.75 261.257812 142.550781 261.171875 142.355469 261.070312 C 142.105469 260.945312 141.859375 260.796875 141.640625 260.695312 C 139.945312 259.945312 139.691406 258.496094 139.890625 256.894531 C 140.113281 255.144531 140.859375 253.207031 141.128906 251.652344 C 141.324219 250.535156 141.570312 249.433594 141.785156 248.320312 C 141.796875 248.265625 141.914062 247.773438 141.945312 247.652344 Z M 149.261719 258.925781 C 149.320312 258.941406 149.386719 258.941406 149.449219 258.921875 C 149.628906 258.867188 149.730469 258.675781 149.675781 258.496094 C 149.644531 258.398438 149.585938 258.320312 149.484375 258.273438 C 149.414062 258.238281 149.242188 258.210938 149.015625 258.28125 C 148.449219 258.457031 147.097656 259.167969 146.933594 259.289062 C 146.78125 259.402344 146.75 259.617188 146.863281 259.765625 C 146.976562 259.917969 147.191406 259.945312 147.339844 259.832031 C 147.457031 259.746094 148.246094 259.335938 148.824219 259.085938 C 148.984375 259.015625 149.179688 258.949219 149.261719 258.925781 Z M 183.738281 228.855469 C 185.980469 228.671875 188.183594 229.140625 189.542969 230.425781 C 193.84375 234.484375 195.445312 241.210938 193.585938 246.796875 C 191.460938 253.171875 185.273438 257.316406 178.871094 257.933594 C 176.894531 258.121094 174.058594 257.644531 172.160156 256.269531 C 172.546875 255.003906 172.925781 253.734375 173.28125 252.460938 C 173.730469 250.839844 174.160156 249.203125 174.722656 247.617188 C 174.804688 247.386719 175.03125 246.238281 175.21875 246.113281 C 176.847656 245.003906 178.59375 244.246094 179.648438 242.441406 C 181.992188 238.441406 183.25 233.609375 183.738281 228.855469 Z M 129.847656 241.484375 C 129.761719 241.171875 128.738281 241.300781 128.601562 241.601562 C 127.960938 243.023438 127.976562 247.113281 130.097656 247.324219 C 130.773438 247.394531 130.960938 246.601562 131.03125 246.050781 C 131.1875 244.789062 131.054688 243.160156 130.335938 242.078125 Z M 156.660156 238.066406 C 156.519531 237.992188 155.992188 237.707031 155.761719 237.730469 C 155.3125 237.773438 155.023438 238.339844 154.910156 238.714844 C 154.53125 240.007812 154.644531 242.816406 156.015625 243.640625 C 158.140625 244.914062 157.597656 240.125 157.476562 239.273438 Z M 137.296875 232.363281 C 137.289062 232.328125 137.273438 232.296875 137.253906 232.265625 C 137.152344 232.109375 136.941406 232.0625 136.785156 232.164062 C 136.652344 232.25 136.582031 232.382812 136.632812 232.570312 C 136.648438 232.628906 136.695312 232.722656 136.78125 232.820312 C 136.949219 233 137.316406 233.28125 137.34375 233.308594 C 137.707031 233.636719 138.050781 233.996094 138.332031 234.390625 C 139.433594 235.921875 140.574219 237.558594 141.039062 239.417969 C 141.085938 239.597656 141.269531 239.710938 141.453125 239.664062 C 141.632812 239.617188 141.746094 239.433594 141.699219 239.253906 C 141.214844 237.308594 140.035156 235.59375 138.886719 233.992188 C 138.574219 233.558594 138.199219 233.164062 137.804688 232.804688 C 137.78125 232.785156 137.414062 232.464844 137.296875 232.363281 Z M 156.660156 238.066406 L 156.648438 238.046875 C 156.710938 238.089844 156.707031 238.089844 156.660156 238.066406 Z M 137.238281 232.65625 C 137.226562 232.671875 137.214844 232.6875 137.199219 232.699219 C 137.183594 232.714844 137.171875 232.726562 137.152344 232.738281 C 137.1875 232.714844 137.214844 232.6875 137.238281 232.65625 Z M 182.230469 223.582031 C 182.113281 223.539062 182.050781 223.417969 181.984375 223.285156 C 181.878906 223.070312 181.800781 222.8125 181.707031 222.5625 C 181.464844 221.898438 181.117188 221.328125 180.429688 221.328125 C 180.046875 221.328125 179.71875 221.570312 179.476562 221.972656 C 179.046875 222.671875 178.851562 223.902344 178.777344 224.304688 C 178.332031 226.808594 178.230469 229.59375 178.578125 232.117188 C 178.605469 232.304688 178.777344 232.433594 178.960938 232.410156 C 179.148438 232.382812 179.277344 232.210938 179.253906 232.027344 C 178.914062 229.570312 179.015625 226.863281 179.449219 224.425781 C 179.503906 224.109375 179.632812 223.242188 179.914062 222.597656 C 179.996094 222.414062 180.089844 222.25 180.199219 222.132812 C 180.265625 222.066406 180.339844 222.011719 180.429688 222.011719 C 180.621094 222.011719 180.742188 222.128906 180.835938 222.28125 C 180.929688 222.429688 181 222.613281 181.070312 222.796875 C 181.191406 223.132812 181.300781 223.476562 181.457031 223.738281 C 181.597656 223.96875 181.773438 224.140625 181.996094 224.222656 C 182.171875 224.285156 182.367188 224.195312 182.433594 224.019531 C 182.5 223.84375 182.40625 223.644531 182.230469 223.582031 Z M 151.664062 225.378906 C 153.152344 225.089844 155 224.074219 156.53125 223.625 C 160.070312 222.585938 164.691406 222.046875 168.332031 222.777344 C 168.515625 222.8125 168.695312 222.695312 168.734375 222.507812 C 168.769531 222.324219 168.648438 222.144531 168.464844 222.109375 C 164.726562 221.359375 159.976562 221.90625 156.34375 222.972656 C 154.828125 223.414062 153.003906 224.425781 151.535156 224.710938 C 151.351562 224.75 151.230469 224.929688 151.265625 225.113281 C 151.300781 225.296875 151.480469 225.417969 151.664062 225.378906 Z M 151.664062 225.378906 " fill-opacity="1" fill-rule="evenodd"/></svg>